<svg width="219" height="56" viewBox="0 0 219 56" fill="none" xmlns="http://www.w3.org/2000/svg">
<mask id="mask0_264_752" style="mask-type:luminance" maskUnits="userSpaceOnUse" x="0" y="0" width="41" height="56">
<path d="M41 0H0V56H41V0Z" fill="white"/>
</mask>
<g mask="url(#mask0_264_752)">
<path d="M40.7 17.4C39.6 11.2 35.8 5.5 30.3 2.4C26.7 0.400002 22.4 -0.399998 18.3 1.51992e-06C8.3 1.2 0 10.4 0 20.4C0 30.4 3.3 33.4 6.9 38.9C9.9 43.8 13 48.7 16.6 53.2C17.6 54.4 18.6 55.9 20.5 55.9C22.4 55.9 23.6 54.2 24.7 52.9C29 47.5 32.7 41.7 36.2 35.7C39.2 30.2 41.9 23.9 40.8 17.4H40.7ZM20.5 35C13.1 35 7 28.9 7 21.5C7 14.1 13.1 8 20.5 8C27.9 8 34 14.1 34 21.5C34 28.9 28 35 20.5 35Z" fill="#00ADB5"/>
<path d="M20.5 12C21.3 12 22 12.7 22 13.5V29.5C22 30.3 21.3 31 20.5 31C19.7 31 19 30.3 19 29.5V13.5C19 12.7 19.7 12 20.5 12Z" fill="#00ADB5"/>
<path d="M24.5 15C25.4 15 26 15.7 26 16.5V26.5C26 27.4 25.3 28 24.5 28C23.6 28 23 27.3 23 26.5V16.5C23 15.6 23.7 15 24.5 15Z" fill="#00ADB5"/>
<path d="M28.3999 19C29.2999 19 29.8999 19.7 29.8999 20.5V22.5C29.8999 23.4 29.1999 24 28.3999 24C27.4999 24 26.8999 23.3 26.8999 22.5V20.5C26.8999 19.6 27.5999 19 28.3999 19Z" fill="#00ADB5"/>
<path d="M16.5 15C17.3 15 18 15.7 18 16.5V26.5C18 27.3 17.3 28 16.5 28C15.7 28 15 27.3 15 26.5V16.5C15 15.7 15.7 15 16.5 15Z" fill="#00ADB5"/>
<path d="M12.5 19C13.4 19 14 19.7 14 20.5V22.5C14 23.4 13.3 24 12.5 24C11.6 24 11 23.3 11 22.5V20.5C11 19.6 11.7 19 12.5 19Z" fill="#00ADB5"/>
</g>
<path d="M73.5018 25.1C74.9951 25.1 76.3135 25.3917 77.4568 25.975C78.6235 26.5583 79.5335 27.4567 80.1868 28.67C80.8401 29.86 81.1668 31.4 81.1668 33.29V44H76.7918V33.85C76.7918 32.1933 76.4301 30.9567 75.7068 30.14C74.9835 29.3233 73.9451 28.915 72.5918 28.915C71.6351 28.915 70.7835 29.125 70.0368 29.545C69.3135 29.965 68.7418 30.5833 68.3218 31.4C67.9251 32.2167 67.7268 33.255 67.7268 34.515V44H63.3518V33.85C63.3518 32.1933 62.9901 30.9567 62.2668 30.14C61.5435 29.3233 60.5051 28.915 59.1518 28.915C58.1951 28.915 57.3435 29.125 56.5968 29.545C55.8735 29.965 55.3018 30.5833 54.8818 31.4C54.4851 32.2167 54.2868 33.255 54.2868 34.515V44H49.9118V25.31H54.0768V30.28L53.3418 28.81C53.9718 27.5967 54.8818 26.675 56.0718 26.045C57.2851 25.415 58.6618 25.1 60.2018 25.1C61.9518 25.1 63.4685 25.5317 64.7518 26.395C66.0585 27.2583 66.9218 28.565 67.3418 30.315L65.6268 29.72C66.2335 28.32 67.2368 27.2 68.6368 26.36C70.0368 25.52 71.6585 25.1 73.5018 25.1ZM95.8225 44V40.22L95.5775 39.415V32.8C95.5775 31.5167 95.1925 30.525 94.4225 29.825C93.6525 29.1017 92.4858 28.74 90.9225 28.74C89.8725 28.74 88.8342 28.9033 87.8075 29.23C86.8042 29.5567 85.9525 30.0117 85.2525 30.595L83.5375 27.41C84.5408 26.64 85.7308 26.0683 87.1075 25.695C88.5075 25.2983 89.9542 25.1 91.4475 25.1C94.1542 25.1 96.2425 25.7533 97.7125 27.06C99.2058 28.3433 99.9525 30.3383 99.9525 33.045V44H95.8225ZM89.9425 44.245C88.5425 44.245 87.3175 44.0117 86.2675 43.545C85.2175 43.055 84.4008 42.39 83.8175 41.55C83.2575 40.6867 82.9775 39.7183 82.9775 38.645C82.9775 37.595 83.2225 36.65 83.7125 35.81C84.2258 34.97 85.0542 34.305 86.1975 33.815C87.3408 33.325 88.8575 33.08 90.7475 33.08H96.1725V35.985H91.0625C89.5692 35.985 88.5658 36.23 88.0525 36.72C87.5392 37.1867 87.2825 37.77 87.2825 38.47C87.2825 39.2633 87.5975 39.8933 88.2275 40.36C88.8575 40.8267 89.7325 41.06 90.8525 41.06C91.9258 41.06 92.8825 40.815 93.7225 40.325C94.5858 39.835 95.2042 39.1117 95.5775 38.155L96.3125 40.78C95.8925 41.8767 95.1342 42.7283 94.0375 43.335C92.9642 43.9417 91.5992 44.245 89.9425 44.245ZM113.477 44.245C111.961 44.245 110.572 43.895 109.312 43.195C108.076 42.495 107.084 41.445 106.337 40.045C105.614 38.6217 105.252 36.825 105.252 34.655C105.252 32.4617 105.602 30.665 106.302 29.265C107.026 27.865 108.006 26.8267 109.242 26.15C110.479 25.45 111.891 25.1 113.477 25.1C115.321 25.1 116.942 25.4967 118.342 26.29C119.766 27.0833 120.886 28.1917 121.702 29.615C122.542 31.0383 122.962 32.7183 122.962 34.655C122.962 36.5917 122.542 38.2833 121.702 39.73C120.886 41.1533 119.766 42.2617 118.342 43.055C116.942 43.8483 115.321 44.245 113.477 44.245ZM103.117 50.79V25.31H107.282V29.72L107.142 34.69L107.492 39.66V50.79H103.117ZM112.987 40.5C114.037 40.5 114.971 40.2667 115.787 39.8C116.627 39.3333 117.292 38.6567 117.782 37.77C118.272 36.8833 118.517 35.845 118.517 34.655C118.517 33.4417 118.272 32.4033 117.782 31.54C117.292 30.6533 116.627 29.9767 115.787 29.51C114.971 29.0433 114.037 28.81 112.987 28.81C111.937 28.81 110.992 29.0433 110.152 29.51C109.312 29.9767 108.647 30.6533 108.157 31.54C107.667 32.4033 107.422 33.4417 107.422 34.655C107.422 35.845 107.667 36.8833 108.157 37.77C108.647 38.6567 109.312 39.3333 110.152 39.8C110.992 40.2667 111.937 40.5 112.987 40.5ZM135.266 25.1C136.76 25.1 138.09 25.3917 139.256 25.975C140.446 26.5583 141.38 27.4567 142.056 28.67C142.733 29.86 143.071 31.4 143.071 33.29V44H138.696V33.85C138.696 32.1933 138.3 30.9567 137.506 30.14C136.736 29.3233 135.651 28.915 134.251 28.915C133.225 28.915 132.315 29.125 131.521 29.545C130.728 29.965 130.11 30.595 129.666 31.435C129.246 32.2517 129.036 33.29 129.036 34.55V44H124.661V18.03H129.036V30.35L128.091 28.81C128.745 27.62 129.69 26.71 130.926 26.08C132.186 25.4267 133.633 25.1 135.266 25.1ZM154.606 44.245C152.692 44.245 150.989 43.8367 149.496 43.02C148.002 42.18 146.824 41.0367 145.961 39.59C145.097 38.1433 144.666 36.4983 144.666 34.655C144.666 32.7883 145.097 31.1433 145.961 29.72C146.824 28.2733 148.002 27.1417 149.496 26.325C150.989 25.5083 152.692 25.1 154.606 25.1C156.542 25.1 158.257 25.5083 159.751 26.325C161.267 27.1417 162.446 28.2617 163.286 29.685C164.149 31.1083 164.581 32.765 164.581 34.655C164.581 36.4983 164.149 38.1433 163.286 39.59C162.446 41.0367 161.267 42.18 159.751 43.02C158.257 43.8367 156.542 44.245 154.606 44.245ZM154.606 40.5C155.679 40.5 156.636 40.2667 157.476 39.8C158.316 39.3333 158.969 38.6567 159.436 37.77C159.926 36.8833 160.171 35.845 160.171 34.655C160.171 33.4417 159.926 32.4033 159.436 31.54C158.969 30.6533 158.316 29.9767 157.476 29.51C156.636 29.0433 155.691 28.81 154.641 28.81C153.567 28.81 152.611 29.0433 151.771 29.51C150.954 29.9767 150.301 30.6533 149.811 31.54C149.321 32.4033 149.076 33.4417 149.076 34.655C149.076 35.845 149.321 36.8833 149.811 37.77C150.301 38.6567 150.954 39.3333 151.771 39.8C152.611 40.2667 153.556 40.5 154.606 40.5ZM176.919 25.1C178.412 25.1 179.742 25.3917 180.909 25.975C182.099 26.5583 183.032 27.4567 183.709 28.67C184.386 29.86 184.724 31.4 184.724 33.29V44H180.349V33.85C180.349 32.1933 179.952 30.9567 179.159 30.14C178.389 29.3233 177.304 28.915 175.904 28.915C174.877 28.915 173.967 29.125 173.174 29.545C172.381 29.965 171.762 30.595 171.319 31.435C170.899 32.2517 170.689 33.29 170.689 34.55V44H166.314V25.31H170.479V30.35L169.744 28.81C170.397 27.62 171.342 26.71 172.579 26.08C173.839 25.4267 175.286 25.1 176.919 25.1ZM187.824 44V25.31H192.199V44H187.824ZM190.029 22.23C189.212 22.23 188.536 21.9733 187.999 21.46C187.486 20.9467 187.229 20.3283 187.229 19.605C187.229 18.8583 187.486 18.24 187.999 17.75C188.536 17.2367 189.212 16.98 190.029 16.98C190.846 16.98 191.511 17.225 192.024 17.715C192.561 18.1817 192.829 18.7767 192.829 19.5C192.829 20.27 192.572 20.9233 192.059 21.46C191.546 21.9733 190.869 22.23 190.029 22.23ZM204.066 44.245C202.106 44.245 200.356 43.8367 198.816 43.02C197.3 42.18 196.11 41.0367 195.246 39.59C194.383 38.1433 193.951 36.4983 193.951 34.655C193.951 32.7883 194.383 31.1433 195.246 29.72C196.11 28.2733 197.3 27.1417 198.816 26.325C200.356 25.5083 202.106 25.1 204.066 25.1C205.886 25.1 207.485 25.4733 208.861 26.22C210.261 26.9433 211.323 28.0167 212.046 29.44L208.686 31.4C208.126 30.5133 207.438 29.86 206.621 29.44C205.828 29.02 204.965 28.81 204.031 28.81C202.958 28.81 201.99 29.0433 201.126 29.51C200.263 29.9767 199.586 30.6533 199.096 31.54C198.606 32.4033 198.361 33.4417 198.361 34.655C198.361 35.8683 198.606 36.9183 199.096 37.805C199.586 38.6683 200.263 39.3333 201.126 39.8C201.99 40.2667 202.958 40.5 204.031 40.5C204.965 40.5 205.828 40.29 206.621 39.87C207.438 39.45 208.126 38.7967 208.686 37.91L212.046 39.87C211.323 41.27 210.261 42.355 208.861 43.125C207.485 43.8717 205.886 44.245 204.066 44.245Z" fill="#00ADB5"/>
</svg>
