<?xml version="1.0" encoding="UTF-8"?>
<svg id="katman_1" data-name="katman 1" xmlns="http://www.w3.org/2000/svg" viewBox="0 0 1920 1080">
  <defs>
    <style>
      .cls-1 {
        fill: #152a2f;
      }

      .cls-2 {
        fill: #e18f2a;
      }

      .cls-3 {
        fill: #1a3137;
      }

      .cls-4 {
        fill: #0e1c20;
      }

      .cls-5 {
        fill: #0f2428;
      }

      .cls-6 {
        fill: #0e1d20;
      }

      .cls-7 {
        fill: #0e1c1f;
      }

      .cls-8 {
        fill: #0d1e21;
      }

      .cls-9 {
        fill: #fcd38e;
      }

      .cls-10 {
        fill: #e0771a;
      }

      .cls-11 {
        fill: #263d43;
      }

      .cls-12 {
        fill: #b75518;
      }

      .cls-13 {
        fill: #283e43;
      }

      .cls-14 {
        fill: #fab355;
      }

      .cls-15 {
        fill: #1b3137;
      }

      .cls-16 {
        fill: #273e43;
      }

      .cls-17 {
        fill: #b85518;
      }

      .cls-18 {
        fill: #273d43;
      }

      .cls-19 {
        fill: #38494a;
      }
    </style>
  </defs>
  <rect class="cls-14" y=".39" width="1920" height="742.83"/>
  <path class="cls-11" d="M1920,534.31l-271.55-.61-.91-9.41-18.02-.97-18.54-32.39-15.87,32.86-.08,11.42-29.37-16.22-11.19.22-8.49-93.18s20.6-9.67-3.81-22.71c-.31-6.91-1.05-24.79-1.05-24.79,0,0,1.58-11.34-10.92-20.78-2.73-13.43-8.1-23.39-8.1-23.39l-8.83,26.73s-11.48,5.15-9.81,21.19c-.25,15.14-.92,20.92-.92,20.92,0,0-20.57,11.14-3.44,21.96l-6.1,94.72-15.97,1.13s-17.99-41.88-37.14-18.14c-6.64,0-18.53,0-18.53,0v-23.97l-32.02.02.14-45.21s15.02-13.04-1.16-15.39c.11-5.41-.04-39.18-.04-39.18,0,0,10.32-5.44,5.69-14.9l-7.45-.76-.02-43.3-2.84-3.64,3.3-4.43-8.6-56.06-7.45,56.19,3.22,2.97-1.9,3.68-1.27,43.85-6.16.18s-6.89,12.96,3.93,14.75c.43,4.34,1.18,40.34,1.18,40.34,0,0-16.45,2.63-1.66,17.02.23,14.3-.12,43.87-.12,43.87l-4.06.28s-8.16-18.73-26.3-20.16c1.06-11.21,1.44-12.16,1.44-12.16,0,0,4.6-10.81-10.89-10-4.97-7.89-15.39-29.65-46.76-36.29.63-2.9-1.18-14.55-9.3-16.81-.01-7.88-3.01-33.75-3.01-33.75l-4.43,33.35s-10.84,7.61-8.91,17.26c-3,1.65-28.04-1.22-49.65,37.83-.21-22.22-.84-44.18-.84-44.18l.6-2.92,5.02-6.79-5.15-3.8-17.87-56.8-16.13,54.84-6.3,5.75,5.44,6.79.31,1.72-1.19,65.99s-14.07,2.38-16.04,16.54c-2.65-.06-21.25.4-21.25.4l-.7,13.99-27.94-.02.88-82.66s9.92-.43,5.63-15.12l-5.57-.27-.42-40.54,2.13-5.28-13.62-75.32-13.16,75.3,2.86,3.95.17,41.84h-6.47s-5.31,11.23,4.54,16.73c-.2,3.62.76,75.92.76,75.92l-25.67.47-.24-30.71-2.2-3.31-47.4-.36-.46,28.3h-42.98s.33-80.17.33-80.17l5.83-5.58.24-7.37-6.91.51-.3-41,6.97-4.57v-7.66l-11.79-.51v-17l5.96-4.38v-5.77l-17.66-.69-10.02-29.15.97-4.59-.39-9.22-5.44-.53-27.32-103.83-27.41,104.11-5.91.47-.76,8.53,1.45,4-11.07,30.4-16.29,1.33-.49,5.61,5.88,3.17-.66,19.18-7.14-.24v7.99l5.89,5.14-.93,38.69h-7.53v8.18l5.46,4.35-.53,61.53.4,279.84h1076.19v-205.39Z"/>
  <path class="cls-11" d="M0,743.22l765.9-3.52,3.74-337.36s13.19-10.79-1.61-11.49l.14-27.62,1.89-1.84-8.68-52.2-9.76,51.46,2.2,2.19.27,28.01s-12.81,1.21-.26,11.49l-.75,35.03-17.25-.67s.75-44.58-49.84-23.8l-1.13-31s10.07-19.01-7.06-17.57c0,0-13.93-53.84-68.89-69.1l-1.6-24.96-5.25-1.45,5.35-6.02-7.36-51.35-8.87,52.21,6.2,5.37-4.84,1.9-2.53,23.72c-57.13,18.51-63.34,55.18-69.28,70.77-19.52-2.29-8.4,15.93-8.4,15.93l.47,29.58-7.73.78c-41.99-20.68-42.1,27.32-42.1,27.32l-11.04.35v9.23l-12.7.18,1.11-32.47,6.13-.17-29.79-28.31-28.17,28.48h7.52l.15,31.77-25.97,1.63-.13,61.14-29.71-.03.78-30.66-27.34-24.61-17.39-.15-2.92-48.96s1.51.31,5.77-1.23c5.75-4.48,1.88-14.18,1.88-14.18,0,0-23.45-.06-42.5-.14-2.72,11.1,2.74,14.75,2.74,14.75l3.75.58-2.17,48.69-18.73.64-28.29,24.83v30.48l-215.93,1.15v231.18Z"/>
  <rect class="cls-3" y="739.7" width="1920" height="340.3"/>
  <ellipse class="cls-5" cx="475.76" cy="881.17" rx="202.83" ry="23.79"/>
  <ellipse class="cls-5" cx="825.12" cy="898.17" rx="158.82" ry="23.79"/>
  <ellipse class="cls-5" cx="1231.55" cy="885.16" rx="235.92" ry="23.79"/>
  <rect class="cls-14" x="300" y="628.71" width="358.32" height="248.91" rx="14.5" ry="14.5"/>
  <path class="cls-18" d="M1136.4,132.41c5.68-1.23,11.05-3.58,16.79-4.6.51,3.7.78,7.44.68,11.18-.33,16,.34,32.03-.89,48.01-.21,4.04-2.31,7.88-5.69,10.13-4.07,3.03-9.31,2.8-14.16,3.2-.94.08-1.9-.02-2.75-.43-5.08-2.45-7.59-9.08-5.67-14.38.02-.04.03-.09.05-.13,2.1-5.87,7.59-9.85,13.8-10.36,3.18-.26,6.37-.44,9.4-1.41.73-5.52-.11-11.09-.05-16.63-.15-3.94.52-8.08-.99-11.84-12.02,3.81-24.47,5.9-36.66,8.98l-.78.27c-.74,15.94.7,31.95-.87,47.89-.62,2.82-2.65,5.3-5.07,6.8-3.75,1.12-7.49,2.5-11.43,2.69-1.07.06-2.1-.07-3.09-.32-9.66-2.45-12.37-15.13-4.74-21.56,1.11-.94,2.32-1.72,3.58-2.28,4.93-1.17,9.97-1.76,15.03-1.98.88-15.45.31-45.11.31-45.11,7.6-1.68,5.13-1.03,7.6-1.68,8.53-2.14,17.01-4.51,25.6-6.44Z"/>
  <path class="cls-8" d="M809.51,860.43c7.14-1.03,14.42-.14,21.63-.48,5.48.08,12.28-.91,16.22,3.85,3.11,5.66,1.62,15.1-5.39,16.96-4.9.77-9.88.2-14.81.31-6-.17-12.01.3-17.99-.11-3.67-.19-6.8-3.34-7.03-6.99-.86-5.35,1.75-12.05,7.37-13.54Z"/>
  <path class="cls-11" d="M287.68,156.61c37.94-7.21,56.91,32.75,44.34,64.27-7.71,20.02-31.41,26.8-39.11,45.95-6.99,19.07,12.38,34.97,9.07,54.17-.43,18.83-26.54,37.87-17.64,54.17,4.08,5.45-1.93,5.29-5.47,2.27-19.82-21.39,5.71-39.55-5.94-58.14-45.23-43.78-66.57-146.61,14.75-162.69Z"/>
  <path class="cls-16" d="M1247.66,210.08c6.04,3.13,11.19,7.69,16.6,11.77,0,0,.01.01.02.02h0c4.24,3.85,7.28,8.86,8.67,14.42.39,1.57.74,3.16.97,4.77.45,4.38-.11,8.79-.47,13.17,0,.06-.03.12-.06.16-1.56,2.04-1.79,2.33-2.64,2.85-.2.12-.46-.02-.46-.26.04-6.25-1.1-12.88-5.37-17.7-3.1-3.4-6.37-6.71-10.08-9.43l-1.7-.76-.71-.16-.96-.18c-.41,15.4.06,30.83-.3,46.24-.11,2.78-.01,5.56.26,8.34.43,4.44-1.35,8.92-4.98,11.51-.91.65-1.89,1.16-2.91,1.52-.03.01-.07.01-.11.02-6.82.64-11.12,1.58-16.39-2.61-3.6-2.56-5.17-7.12-3.79-10.74,0-.01.01-.03.02-.04,1.75-3.49,1.54-4.09,6.95-9.36,1.24-1.01,2-1.84,3.62-2.11.7-.12.04,0,.05,0,4.25-.24,8.49-.49,12.74-.86.15-.01.27-.14.28-.29.69-13.1.13-26.23.32-39.35.07-6.32.12-12.65-.05-18.97,0-.41.03-1.13.04-1.69,0-.23.25-.37.45-.26Z"/>
  <path class="cls-1" d="M961.97,744.76c0,11.2.11,11.37-.17,17.13.7,28.36.15,56.74.36,85.11-.18,9.33-.07,18.69-1.09,27.98-.38,4.31-1.98,8.48-4.69,11.86-5.88,7.61-14.49,13.55-24.34,13.99-12.82.46-25.66.58-38.49.42-10.37,1.11-20.75-.64-31.14.07-22.42-.7-44.84.12-67.26-.3-25,.35-50.01-.17-75.02.1-6.68.1-13.37-2.4-18.59-6.49-2.96-2.3-5.74-4.79-8.37-7.49-2.55-5.96-2.43-7.94-2.73-12.31-.6-9.92.35-19.86-.21-29.78-.24-33.59.18-67.2-.26-100.79-10.55-.18-21.1.19-31.64-.29,1.77-.94,3.8-1.11,5.78-1.06,8.68.12,17.37.25,26.05,0,.52-85.3.02-170.65.11-255.96.06-6.58,2.62-12.97,6.83-17.99,5.16-6.68,13.86-9.52,22.04-9.72,10.98-.26,21.96.07,32.94.03,5.35-.04,10.19.65,15.43-.7l2.56.65c1.16.1,3.8.35,4.98.47l2.8-.09c24.7.64,37.59.22,62.3.64l25.01-.99c15.69.21,31.38-.14,47.07.08,8.63.16,17.32-.47,25.92.6,6.29.75,12.16,4.02,16.38,8.71,2.72,2.98,3.9,6.92,5.84,10.38.62.94.98,2.02,1.05,3.14.24,3.63.44,7.27.45,10.91.1,69.31-.04,138.63,0,207.94.33,13.94-.44,27.9.13,41.83l-.04,1.92ZM793.46,483.38c-3.43.71-4.47,5.96-1.6,7.96,2,1.69,4.79,1.55,7.26,1.64,17.02-.02,34.05-.07,51.07-.08,2.83.09,5.58-.67,8.05-2.05.13-2.81-.51-5.54-2.19-7.82-17.3-.38-34.61.07-51.91-.17-3.56.03-7.18-.26-10.68.52ZM720.51,507.47c-2.83.46-5.87,1.72-7.41,4.26-1.33,3.57-1.53,7.45-1.66,11.22.05,99.68.2,199.36,0,299.03.07,4.7-.1,9.61,1.72,14.03,2.21,3.88,6.41,6.88,10.96,7.05,67.68.14,135.38-.24,203.06.1,5.5.28,10.64-3.61,12.38-8.73,1.15-5.39.37-10.96.54-16.42.08-99.02.01-198.05.1-297.07-.09-4.14-1.31-8.65-4.83-11.18-4.42-3.15-10.13-2.36-15.23-2.55-66.53.27-133.13-.48-199.64.26ZM809.51,860.43c-5.62,1.49-8.23,8.19-7.37,13.54.23,3.65,3.36,6.8,7.03,6.99,5.98.41,11.99-.06,17.99.11,4.93-.11,9.91.46,14.81-.31,7.01-1.86,8.5-11.3,5.39-16.96-3.94-4.76-10.74-3.77-16.22-3.85-7.21.34-14.49-.55-21.63.48Z"/>
  <path class="cls-10" d="M998.66,673.54s-22.15-68.82,51.12-98.81,198.14-72.22,347.11-8.21c41.07,23.49,87.17,40.53,66.75,111.76-31.11-8.94-112.85-45.57-112.85-45.57l3.07-15.97s-137.87-96.77-241.28.51c-.07,16.1-1.06,16.52-1.06,16.52,0,0-85.07,40.64-112.86,39.77Z"/>
  <path class="cls-17" d="M1142.83,590.74c3.55-4.75,9.97-4.46,15.28-4.58,5.73,0,12.69-.94,16.78,4.1,3.62,3.06,2.51,7.96,2.06,12.05-.48,7.88.33,15.76.27,23.65-.55,2.42,2.28,2.79,3.94,3.44q.68.12,1.42.24,2.84,0,13.25-.06.62-.06,3.02-.16c21.16-.67,10.84-.48,32,.36,7.73.64,8.9.6,15.9.87,10.68.21,21.65.45,32.45.47,2.78-.27,6.3.31,8.19-2.26.12-.9.24-1.81.36-2.7.4-2.79.79-5.58,1.33-7.94.38-1.56.46-2.38.62-3.38.3-2.3.46-5.62.4-8.92-.12-3.89-3.07-7.59-1.55-11.5,1.32-3.89,4.44-7.66,8.79-8.04,5.65-.61,11.43-.52,17.06.35,4.52.66,7.91,4.25,10.06,8.06,1.66,2.86.62,6.25.41,9.34-.26,2.49-.27,5-.29,7.51.69,7.74.81,7.34,1.96,12.11,0,0,.13.8,0,0,2.24,13.39,5.24,26.73,10.14,39.44,12.13,30.82,32.42,58.11,57.17,79.99,2.27,2.08,4.56,4.16,6.76,6.34,3.36,3.23,4.49,4.88,6.51,7.15,3.96,3.96,4.68,4.6,9.4,8.92,3.14,3.3,5.85,7.01,8.01,11.04,3.4,8.61,3.66,7.37,5.23,11.74,2.05,4.74,1.81,6.63,3.91,11.36q.39,1.01.79,2.12c.45,2.28.87,4.57,1.21,6.89-.07,8.73-.13,17.47-.23,26.21h-1.12c-105.4-.19-210.79,0-316.19-.12-30.05.09-60.1-.07-90.15.1h-1.08c-.08-6.62-.09-13.26-.04-19.89.03-18.81,7.83-36.24,19.83-51.49q4.54-4.24,5.86-5.69,3.75-3.94,9.37-9.19,5.54-5.48,10.82-10.01c8.82-8.86,17.64-17.78,25.43-27.58,6.27-8.59,13.06-16.98,17.43-26.75,11.17-18.71,18-39.75,21.96-61.08.1-.99.19-1.98.27-2.96.82-5.45,1.92-10.87,2.24-16.38.31-4.44-.77-9.68,2.74-13.16ZM1220.96,645.51c1.68.73,3.5.97,5.34.83-2.11.12-4.22.3-6.31.52l.55-.98c-6.15-.33-11.96,1.95-17.79,3.51-2.64,1.12-6.42,1.22-7.74,4.15l1.12-.36c-20.28,8.36-36.9,24.79-45.79,44.81l.36-1.1c-2.05,1-2.63,3.28-3.41,5.22-1.57,4.32-3.53,8.68-3.26,13.39l.87-.7c-.54,3.17-.93,6.37-1.42,9.56-.23-.41-.68-1.24-.9-1.66-.47,7.15-1.19,14.56.45,21.59.22-1.48.35-2.97.4-4.45,1.02,8.45,2.86,16.83,6.05,24.75-.41,3.62,1.76,6.69,3.4,9.72,1.52,2.45,2.72,5.53,5.69,6.56,7,8.79,14.98,16.95,24.49,23.04l-1.02-.45c.79,2.41,3.4,3.12,5.37,4.3,2.91,1.38,5.75,3.79,9.21,2.91,12.65,4.84,26.19,7.13,39.73,6.57-3.48.59-7.27-.11-10.51,1.43,6.86.53,13.8-.15,20.61-1.1-.63-.23-1.88-.71-2.51-.95,1.03-.15,2.07-.33,3.12-.54l.12,1.16c9.76-1.18,18.95-5.07,27.68-9.42,1.44-.68,2.83-1.66,3.14-3.34,11.42-7.49,22.47-16.72,28.87-28.99,2.86,2.23,6.37,3.78,10.07,3.58,3.97-4.95,9.56-9.92,8.81-16.91-.23-5.01-5.63-6.7-9.52-8.17,2.18-5.85,2.88-12.1,3.31-18.28.35.8.75,1.6,1.19,2.39.68-7.15.22-14.39-1.12-21.44-.18.64-.53,1.92-.71,2.56-.16-1.14-.35-2.26-.57-3.36l.97.48c-.4-6.12-2.75-11.87-4.92-17.53-.83-1.84-1.43-4.22-3.67-4.74-9.32-18.11-24.83-32.8-43.53-40.91l1.1.35c-1.05-2.41-3.79-2.91-5.99-3.7-4.48-1.34-8.97-3.04-13.71-2.88l.74.84c-3.46-.53-6.94-.91-10.4-1.36.62-.25,1.84-.76,2.45-1.02-6.77-.73-13.64-.45-20.41.12Z"/>
  <path class="cls-13" d="M855.64,640.66c1.4-2.89,4.08-5.3,7.17-6.25,3.9.56,7.82.94,11.77,1.08,5.24,2.4,8.23,8.73,7.44,14.36-1,3.71-2.86,7.83-6.5,9.57-4.9.54-9.84.51-14.74.05-2.22-.93-4.01-2.91-5-5.07-.48-4.56-.62-9.17-.14-13.74Z"/>
  <path class="cls-2" d="M301.25,641.09c1.16-2.3,2.93-4.2,4.55-6.17,2.44,1.26,4.8,2.71,6.86,4.56,31.28,28.73,62.98,57.02,94.52,85.46,15.41,13.24,29.84,27.54,44.85,41.21,5.53,4.87,11.06,9.9,17.61,13.38,3.93,2.12,8.59,2.94,12.98,1.96,6.31-1.44,11.7-5.3,16.66-9.28,7.3-5.66,13.49-12.55,20.45-18.6,14.01-13.71,28.77-26.62,43.31-39.77,27.09-24.57,54.44-48.86,81.35-73.63,1.91-1.88,4.38-2.98,6.86-3.87.48.46,1.45,1.38,1.94,1.85.88,2.12,1.58,4.33,1.96,6.62-.62.64-1.25,1.28-1.88,1.93-8.18,6.57-16.45,13.07-23.88,20.5-7.26,7.44-15.54,13.77-23.01,20.98-25.67,23.41-51.97,46.1-77.34,69.83,13.51,13.23,27.99,25.43,42.05,38.07,23.06,20.91,46.25,41.68,69.22,62.69,4.6,4.51,10.28,8.85,14.58,13.67-1.33,2.04-2.61,2.41-4.7,3.83-.59.23-1.96.53-2.55.77q-1.68.58-1.97.35c-12.77-11.58-24.53-23.09-37.62-34.3-26.24-24.12-52.87-47.8-79.49-71.49-2.32-2.12-4.82-4-7.38-5.79-7.56,5.01-14.21,11.21-20.82,17.38-5.67,4.76-12.51,9.09-20.18,8.98-5.87.25-11.83-1.18-16.7-4.5-9.74-6.57-17.19-15.82-26-23.47-12.84,11.84-26.06,23.27-38.88,35.15-11.78,10.94-24.25,21.11-35.79,32.31-11.46,10.17-22.69,20.58-34.19,30.71-5.63,5.34-11.87,8.93-16.89,14.89-1.7-.09-2.98-.68-4.3-1.45-2.45-1.81-3.96-3.28-4.66-4.22,12.23-12.08,25.52-22.22,38.16-33.86,15.64-14.01,31.07-28.25,46.85-42.11,8.28-7.76,17.11-14.92,25.27-22.82,5.16-4.95,11.15-9.05,15.61-14.7-4.6-5.31-10.14-9.63-15.28-14.38-15.5-13.81-30.75-27.9-46.37-41.59-11.46-10.93-23.71-20.96-35.3-31.74-9.89-8.74-19.55-17.73-29.42-26.49-.28-.29-.85-.89-1.13-1.19.02-.41.07-1.25.09-1.66Z"/>
  <path class="cls-15" d="M1226.3,646.34c4.2-.26,8.42-.3,12.62.07,3.46.45,6.94.83,10.4,1.36,6.08,1.35,12.06,3.11,17.86,5.39,18.7,8.11,34.21,22.8,43.53,40.91,3.5,6.89,5.76,14.31,7.62,21.79.22,1.1.41,2.22.57,3.36.59,5.47.87,10.98.64,16.49-.43,6.18-1.13,12.43-3.31,18.28-8.57-3.35-17.67-5.1-26-9.04-4.53-2.47-10.11,2.98-8.8,7.56,9.55,6.27,19.56,12.86,25.44,22.98-6.4,12.27-17.45,21.5-28.87,28.99-9.62,5.48-20.05,9.53-30.94,11.6-1.05.21-2.09.39-3.12.54-2.53.24-5.06.45-7.59.62-13.54.56-27.08-1.73-39.73-6.57-4.67-1.95-9.09-4.43-13.56-6.76-9.51-6.09-17.49-14.25-24.49-23.04-3.5-5.15-6.52-10.62-9.09-16.28-3.19-7.92-5.03-16.3-6.05-24.75-.42-5.16-.41-10.34.05-15.48.49-3.19.88-6.39,1.42-9.56,1.4-5.73,3.3-11.32,5.44-16.81,8.89-20.02,25.51-36.45,45.79-44.81,7.7-2.95,15.67-5.21,23.86-6.32,2.09-.22,4.2-.4,6.31-.52ZM1227.45,657.43c-6.09.06-11.08,5.65-11.3,11.56.05,6.59,6.22,12.75,12.96,12.01,5.52-.18,9.79-5.06,10.91-10.19.81-6.91-5.59-13.84-12.57-13.38ZM1264.53,665.4c-4.44,1.31-8.57,4.92-9.4,9.62-1.51,7.27,5.54,15.08,12.98,13.88,6.61-.3,11.9-7.29,10.83-13.73-.78-6.57-8.12-11.16-14.41-9.77ZM1185.52,670.43c-4.94,1.89-8.64,7.12-7.4,12.53.38,6.3,6.89,10.9,12.96,10,7.02-.25,12.54-8.24,10.14-14.87-2.02-6.24-9.52-9.88-15.7-7.66ZM1219.68,689.31c.66-.02,1.99-.08,2.65-.11-5.15,1.45-10.37,3.07-14.81,6.14-8.36,5.3-14.39,13.66-17.91,22.82-.36.21-1.06.63-1.41.84-1.97,4.69-2.12,10.02-2,15.06.35,2.82.11,6.1,2.2,8.34-.05-.64-.13-1.91-.18-2.54,2.87,11.25,9.84,22.36,20.59,27.4,5.06,3.78,11.42,5.21,17.53,6.35-.62.23-1.87.71-2.49.94,4.86.55,9.79.6,14.66.02-.42-.27-1.27-.79-1.7-1.06,4.68-.94,9.63-1.65,13.71-4.33,10.12-4.13,17.89-13.14,21.94-23.2.42-.22,1.27-.66,1.7-.88,3.04-6.53,2.41-14.07,1.9-21.06-.42-1.81-.18-4.62-2.4-5.22l.2,1.28c-.61-1.89-1.43-3.7-2.34-5.44-2.71-7.92-8.84-14.31-15.55-19.12-.49-1.24-1.12-2.5-2.44-2.97-7.82-3.99-16.66-6.33-25.48-5.48-2.84.4-6.14.12-8.37,2.22ZM1162.47,706.27c-6.3,2.3-9.08,10.08-6.67,16.12,2.98,6.12,11.15,9.04,17.14,5.42,7.01-3.37,8.34-14.08,2.51-19.14-3.33-3.4-8.65-3.64-12.98-2.4ZM1171.46,747.43c-3.56.16-7.05,1.86-9.14,4.78-3.88,5.16-2.27,13.03,3,16.63,5.81,4.41,14.82,1.42,17.61-5.11,3.95-7.46-3.12-17.41-11.47-16.3ZM1273.49,765.29c-5.69,1.38-10.93,6.97-9.86,13.12.45,4.36,4.2,7.45,7.91,9.25,7.42,2.88,16.67-3.55,15.79-11.67-.18-6.85-7.32-11.93-13.84-10.7ZM1196.48,775.33c-6.28,2.3-9.59,10.56-6.14,16.44,3.24,7,14.46,9.12,19.33,2.73,4.25-4.77,3.28-12.55-1.18-16.84-3.01-3.28-8-3.41-12.01-2.33ZM1238.51,782.35c-6.36,1.09-11.11,7.74-9.75,14.09.79,5.08,5.48,8.9,10.46,9.46,6.26.55,12.48-4.64,12.94-10.94,1.14-7.29-6.5-14.31-13.65-12.61ZM1322.38,732.81c0,49.37-40.89,89.39-91.33,89.39s-91.33-40.02-91.33-89.39,40.89-89.39,91.33-89.39,91.33,40.02,91.33,89.39Z"/>
  <g>
    <path class="cls-4" d="M1171.46,745.51c8.35-1.11,15.42,8.84,11.47,16.3-2.79,6.53-11.8,9.52-17.61,5.11-5.27-3.6-6.88-11.47-3-16.63,2.09-2.92,5.58-4.62,9.14-4.78Z"/>
    <path class="cls-4" d="M1196.48,773.41c4.01-1.08,9-.95,12.01,2.33,4.46,4.29,5.43,12.07,1.18,16.84-4.87,6.39-16.09,4.27-19.33-2.73-3.45-5.88-.14-14.14,6.14-16.44Z"/>
    <path class="cls-4" d="M1238.51,780.43c7.15-1.7,14.79,5.32,13.65,12.61-.46,6.3-6.68,11.49-12.94,10.94-4.98-.56-9.67-4.38-10.46-9.46-1.36-6.35,3.39-13,9.75-14.09Z"/>
    <path class="cls-6" d="M1227.45,657.43c6.98-.46,13.38,6.47,12.57,13.38-1.12,5.13-5.39,10.01-10.91,10.19-6.74.74-12.91-5.42-12.96-12.01.22-5.91,5.21-11.5,11.3-11.56Z"/>
    <path class="cls-6" d="M1264.53,665.4c6.29-1.39,13.63,3.2,14.41,9.77,1.07,6.44-4.22,13.43-10.83,13.73-7.44,1.2-14.49-6.61-12.98-13.88.83-4.7,4.96-8.31,9.4-9.62Z"/>
    <path class="cls-6" d="M1185.52,670.43c6.18-2.22,13.68,1.42,15.7,7.66,2.4,6.63-3.12,14.62-10.14,14.87-6.07.9-12.58-3.7-12.96-10-1.24-5.41,2.46-10.64,7.4-12.53Z"/>
    <path class="cls-6" d="M1273.49,763.37c6.52-1.23,13.66,3.85,13.84,10.7.88,8.12-8.37,14.55-15.79,11.67-3.71-1.8-7.46-4.89-7.91-9.25-1.07-6.15,4.17-11.74,9.86-13.12Z"/>
    <path class="cls-7" d="M1162.47,706.27c4.33-1.24,9.65-1,12.98,2.4,5.83,5.06,4.5,15.77-2.51,19.14-5.99,3.62-14.16.7-17.14-5.42-2.41-6.04.37-13.82,6.67-16.12Z"/>
    <path class="cls-19" d="M1281.43,752.51c-1.31-4.58,4.27-10.03,8.8-7.56,8.33,3.94,17.43,5.69,26,9.04,3.89,1.47,9.29,3.16,9.52,8.17.75,6.99-4.84,11.96-8.81,16.91-3.7.2-7.21-1.35-10.07-3.58-5.88-10.12-15.89-16.71-25.44-22.98Z"/>
  </g>
  <path class="cls-10" d="M1026.92,834.93h408.54v35.14c0,10.16-8.26,18.39-18.43,18.34l-374.07-1.72c-8.91-.04-16.1-7.28-16.09-16.18l.05-35.58Z"/>
  <circle class="cls-14" cx="1230.03" cy="729.39" r="43.24"/>
  <rect class="cls-16" x="711.18" y="507.12" width="228.77" height="336.06" rx="13.05" ry="13.05"/>
  <g>
    <g>
      <rect class="cls-9" x="737.16" y="585.98" width="176.82" height="127.32" rx="32.04" ry="32.04"/>
      <polygon class="cls-9" points="771.47 740.78 771.47 711.32 806.7 711.32 771.47 740.78"/>
    </g>
    <circle class="cls-7" cx="781.98" cy="645.05" r="14.53"/>
    <circle class="cls-7" cx="823.91" cy="645.05" r="14.53"/>
    <circle class="cls-7" cx="864.63" cy="645.05" r="14.53"/>
  </g>
  <rect class="cls-8" x="788.32" y="482.85" width="72.77" height="10.11" rx="5.05" ry="5.05"/>
  <path class="cls-12" d="M1112.12,630.59l6.11,13.74c2,4.51.55,9.81-3.49,12.63-12.24,8.55-41.75,25.62-94.09,36.3-5.06,1.03-10.23-1.16-12.99-5.52l-8.99-14.2s63.11-12.03,113.46-42.95Z"/>
  <path class="cls-12" d="M1350.79,632.71l-5.32,12.53c-2.14,4.44-.86,9.78,3.09,12.74,11.96,8.93,40.92,26.93,92.89,39.27,5.02,1.19,10.26-.84,13.16-5.11l9.03-13.86s-58.21-20.56-112.85-45.57Z"/>
</svg>