<?xml version="1.0" encoding="UTF-8"?>
<svg id="Layer_1" xmlns="http://www.w3.org/2000/svg" version="1.1" xmlns:xlink="http://www.w3.org/1999/xlink" viewBox="0 0 52 72">
  <!-- Generator: Adobe Illustrator 29.0.1, SVG Export Plug-In . SVG Version: 2.1.0 Build 192)  -->
  <defs>
    <style>
      .st0 {
        fill: #fff;
      }

      .st1 {
        fill: none;
      }

      .st2 {
        fill: #00adb5;
      }

      .st3 {
        clip-path: url(#clippath);
      }
    </style>
    <clipPath id="clippath">
      <rect class="st1" y="0" width="52" height="71"/>
    </clipPath>
  </defs>
  <g class="st3">
    <g>
      <path class="st2" d="M23.2.1c5.2-.6,10.7.4,15.2,3,7,3.9,11.8,11.2,13.2,19,1.4,8.2-2,16.2-5.8,23.2-4.4,7.6-9.1,15-14.6,21.8-1.4,1.6-2.9,3.8-5.3,3.8s-3.6-1.9-4.9-3.4c-4.6-5.7-8.5-11.9-12.3-18.1C4.2,42.4,0,34.5,0,25.9,0,13.2,10.5,1.5,23.2.1ZM23.6,10.5c-5.1.8-9.8,3.8-12.2,8.4-2.9,5.3-2.8,12.3.8,17.4,3.9,6.1,12.2,8.9,19,6.3,7.9-2.3,12.8-11.2,10.8-19-1.5-8.2-10-14.6-18.4-13.1Z"/>
      <path class="st0" d="M26,44.4c9.5,0,17.1-7.7,17.1-17.1s-7.7-17.1-17.1-17.1-17.1,7.7-17.1,17.1,7.7,17.1,17.1,17.1Z"/>
      <rect class="st2" x="24.1" y="15.2" width="3.8" height="24.1" rx="1.9" ry="1.9"/>
      <path class="st2" d="M31.1,19h0c1.1,0,1.9.9,1.9,1.9v12.7c0,1.1-.9,1.9-1.9,1.9h0c-1.1,0-1.9-.9-1.9-1.9v-12.7c0-1.1.9-1.9,1.9-1.9Z"/>
      <path class="st2" d="M36.1,24.1h0c1.1,0,1.9.9,1.9,1.9v2.5c0,1.1-.9,1.9-1.9,1.9h0c-1.1,0-1.9-.9-1.9-1.9v-2.5c0-1.1.9-1.9,1.9-1.9Z"/>
      <rect class="st2" x="19" y="19" width="3.8" height="16.5" rx="1.9" ry="1.9"/>
      <path class="st2" d="M15.9,24.1h0c1.1,0,1.9.9,1.9,1.9v2.5c0,1.1-.9,1.9-1.9,1.9h0c-1.1,0-1.9-.9-1.9-1.9v-2.5c0-1.1.9-1.9,1.9-1.9Z"/>
    </g>
  </g>
</svg>