<?xml version="1.0" encoding="UTF-8"?>
<svg id="katman_1" data-name="katman 1" xmlns="http://www.w3.org/2000/svg" viewBox="0 0 1920 1080">
  <defs>
    <style>
      .cls-1 {
        fill: #f8eed5;
      }

      .cls-2 {
        fill: #f17825;
      }

      .cls-3 {
        fill: #ffe5b4;
      }

      .cls-4 {
        fill: #0c0e1f;
      }

      .cls-5 {
        fill: #333e43;
      }

      .cls-6 {
        fill: #1c2e35;
      }

      .cls-7 {
        fill: #2f3c43;
      }

      .cls-8 {
        fill: #16182c;
      }

      .cls-9 {
        fill: #1d191e;
      }

      .cls-10 {
        fill: #323d42;
      }

      .cls-11 {
        fill: #0c0b16;
      }

      .cls-12 {
        fill: #c03612;
      }

      .cls-13 {
        fill: #333f46;
      }

      .cls-14 {
        fill: #1f2f36;
      }

      .cls-15 {
        fill: #0b0c1e;
      }

      .cls-16 {
        fill: #ee9124;
      }

      .cls-17 {
        fill: #f67a31;
      }

      .cls-18 {
        fill: #f3742d;
      }

      .cls-19 {
        fill: #0e1323;
      }

      .cls-20 {
        fill: #a2815e;
      }

      .cls-21 {
        fill: #ed8a25;
      }

      .cls-22 {
        fill: #653a2c;
      }

      .cls-23 {
        fill: #f5a221;
      }

      .cls-24 {
        fill: #f37720;
      }

      .cls-25 {
        fill: #fd9d33;
      }

      .cls-26 {
        fill: #082e4d;
      }

      .cls-27 {
        fill: #cd5726;
      }

      .cls-28 {
        fill: #ed5519;
      }

      .cls-29 {
        fill: #d56928;
      }

      .cls-30 {
        fill: #323f44;
      }

      .cls-31 {
        fill: #1d6581;
      }

      .cls-32 {
        fill: #fdaf54;
      }

      .cls-33 {
        fill: #313e44;
      }

      .cls-34 {
        fill: #1c1e2b;
      }

      .cls-35 {
        fill: #1a1e2b;
      }

      .cls-36 {
        fill: #102f49;
      }

      .cls-37 {
        fill: #eb7711;
      }

      .cls-38 {
        fill: #fdf4d8;
      }

      .cls-39 {
        fill: #fedd9f;
      }

      .cls-40 {
        fill: #fef3d5;
      }

      .cls-41 {
        fill: #354044;
      }

      .cls-42 {
        fill: #1f2d34;
      }

      .cls-43 {
        fill: #637aad;
      }

      .cls-44 {
        fill: #0d101f;
      }

      .cls-45 {
        fill: #ef8b24;
      }

      .cls-46 {
        fill: #210f12;
      }

      .cls-47 {
        fill: #814d2b;
      }

      .cls-48 {
        fill: #ec7812;
      }

      .cls-49 {
        fill: #141011;
      }

      .cls-50 {
        fill: #2c677c;
      }

      .cls-51 {
        fill: #c85117;
      }

      .cls-52 {
        fill: #0f0f31;
      }

      .cls-53 {
        fill: #1d2f36;
      }

      .cls-54 {
        fill: #305c6d;
      }

      .cls-55 {
        fill: #313d44;
      }

      .cls-56 {
        fill: #c85224;
      }

      .cls-57 {
        fill: #18324a;
      }

      .cls-58 {
        fill: #0c1223;
      }

      .cls-59 {
        fill: #fcf3db;
      }

      .cls-60 {
        fill: #0e1324;
      }

      .cls-61 {
        fill: #0a0d1b;
      }

      .cls-62 {
        fill: #0b2f46;
      }

      .cls-63 {
        fill: #323e43;
      }

      .cls-64 {
        fill: #233942;
      }

      .cls-65 {
        fill: #fef1d2;
      }

      .cls-66 {
        fill: #313e43;
      }

      .cls-67 {
        fill: #f2e9cf;
      }

      .cls-68 {
        fill: #ec7624;
      }

      .cls-69 {
        fill: #fec67b;
      }

      .cls-70 {
        fill: #1d130e;
      }

      .cls-71 {
        fill: #131734;
      }

      .cls-72 {
        fill: #313d42;
      }

      .cls-73 {
        fill: #223842;
      }

      .cls-74 {
        fill: #111728;
      }

      .cls-75 {
        fill: #181926;
      }

      .cls-76 {
        fill: #2e3c42;
      }

      .cls-77 {
        fill: #eb7713;
      }

      .cls-78 {
        fill: #483a37;
      }

      .cls-79 {
        fill: #ffb55c;
      }

      .cls-80 {
        fill: #f4772e;
      }

      .cls-81 {
        fill: #323e44;
      }

      .cls-82 {
        fill: #ed7322;
      }

      .cls-83 {
        fill: #121523;
      }

      .cls-84 {
        fill: #1c2f35;
      }

      .cls-85 {
        fill: #d05414;
      }

      .cls-86 {
        fill: #ffe5b5;
      }

      .cls-87 {
        fill: #f4eed2;
      }

      .cls-88 {
        fill: #fee5b5;
      }

      .cls-89 {
        fill: #303d43;
      }

      .cls-90 {
        fill: #2f3d43;
      }

      .cls-91 {
        fill: #f7741c;
      }

      .cls-92 {
        fill: #ef741d;
      }

      .cls-93 {
        fill: #fee4b4;
      }

      .cls-94 {
        fill: #16141a;
      }

      .cls-95 {
        fill: #12354a;
      }

      .cls-96 {
        fill: #1e2e35;
      }

      .cls-97 {
        fill: #323d44;
      }

      .cls-98 {
        fill: #ee8a24;
      }

      .cls-99 {
        fill: #d36a28;
      }

      .cls-100 {
        fill: #f3742e;
      }

      .cls-101 {
        fill: #d2b37e;
      }

      .cls-102 {
        fill: #112948;
      }

      .cls-103 {
        fill: #313c43;
      }

      .cls-104 {
        fill: #ee8a23;
      }

      .cls-105 {
        fill: #ca6226;
      }

      .cls-106 {
        fill: #fee5b6;
      }

      .cls-107 {
        fill: #ba4418;
      }

      .cls-108 {
        fill: #fcf0d1;
      }

      .cls-109 {
        fill: #1e2f36;
      }

      .cls-110 {
        fill: #d56a28;
      }

      .cls-111 {
        fill: #161825;
      }

      .cls-112 {
        fill: #2d4049;
      }

      .cls-113 {
        fill: #313e45;
      }

      .cls-114 {
        fill: #101323;
      }

      .cls-115 {
        fill: #334146;
      }

      .cls-116 {
        fill: #937b5f;
      }

      .cls-117 {
        fill: #1e1a1e;
      }

      .cls-118 {
        fill: #313d43;
      }

      .cls-119 {
        fill: #1a1d30;
      }

      .cls-120 {
        fill: #303d44;
      }

      .cls-121 {
        fill: #303c40;
      }

      .cls-122 {
        fill: #8f3a1e;
      }

      .cls-123 {
        fill: #f0a122;
      }

      .cls-124 {
        fill: #070711;
      }

      .cls-125 {
        fill: #161726;
      }

      .cls-126 {
        fill: #151926;
      }

      .cls-127 {
        fill: #243942;
      }

      .cls-128 {
        fill: #1b1922;
      }

      .cls-129 {
        fill: #303c43;
      }

      .cls-130 {
        fill: #0f304a;
      }

      .cls-131 {
        fill: #18151f;
      }
    </style>
  </defs>
  <rect class="cls-79" y="1.39" width="1920" height="577.06"/>
  <rect class="cls-54" y="627.06" width="1920" height="452.94"/>
  <g id="martı2">
    <path class="cls-52" d="M581.39,52.51c2.1-1.3,4.29.5,6.1,1.49-1.99-.16-3.97-.25-5.95-.34-.02,2.01-.06,4.02-.01,6.03-.97-2.14-2.96-5.61-.14-7.18Z"/>
    <path class="cls-13" d="M581.54,53.66c1.98.09,3.96.18,5.95.34,7.77,4.34,15.44,8.99,23.92,11.92,1.67,4.96,2.81,10.14,5.14,14.87,2.42,4.95,5.63,9.46,8.43,14.21-.51.29-1.52.87-2.02,1.17-14.74-6.31-28.1-16.16-37.37-29.35-1.51-2.27-3.19-4.52-4.06-7.13-.05-2.01-.01-4.02.01-6.03Z"/>
    <path class="cls-128" d="M611.41,65.92c.56.2,1.69.6,2.26.8l.16.82c1.9,11.72,8.57,22.04,16.24,30.85l.24.36c-2.48-.34-4.92-1.78-7.35-2.58.5-.3,1.51-.88,2.02-1.17-2.8-4.75-6.01-9.26-8.43-14.21-2.33-4.73-3.47-9.91-5.14-14.87Z"/>
    <path class="cls-1" d="M613.83,67.54c4.3.97,8.47,2.49,12.33,4.62-3.51-.47-6.92-1.41-10.26-2.57,1.58,8.22,6,15.47,10.84,22.16,2.26,3.1,5.74,5.71,6,9.83-.88-1.07-1.75-2.15-2.67-3.19-7.67-8.81-14.34-19.13-16.24-30.85Z"/>
    <path class="cls-3" d="M615.9,69.59c3.34,1.16,6.75,2.1,10.26,2.57,4.48.67,8.49,2.9,12.73,4.37,8.92,3.22,18,7.37,24.33,14.68,9.09,10.94,14.63,24.28,23.31,35.51,4.6,5.92,10.44,12.63,18.74,12l-.69.3c-.89.36-1.78.74-2.66,1.13,5.69.57,11.42.24,17.13.44,3.89.03,7.16,2.38,10.31,4.39.85.64,1.31,1.64,1.72,2.6-.41,3-1.92,5.65-3.73,8.01-.41-.37-1.24-1.13-1.66-1.51.2-1.93.4-3.85.62-5.78-1.81-1.25-4.41-3.33-6.28-.93-2.84,2.54.02,5.72,1.51,8.1-7.06,1.55-13.69,4.4-20.44,6.89-8.17,3.02-17.01,2.32-25.5,3.57-8.77.33-16.85-4.32-25.57-4.58-5.32-.32-9.54,4.26-14.89,3.75-6.41-.39-13.6-4.11-14.93-10.9-.61-2.04,1.15-4.98,3.46-4.31,12.62,2.65,24.61-3.26,36.63-6.08l-.67-.72c-3.33-4.09-7.35-7.58-10.35-11.94-5.43-7.51-9.37-15.93-14.28-23.76-1.15-1.76-2.02-3.7-2.26-5.81-.26-4.12-3.74-6.73-6-9.83-4.84-6.69-9.26-13.94-10.84-22.16Z"/>
    <path class="cls-88" d="M762.95,99.96c4.8-.18,11.04-2.2,14.4,2.39-3.12,4.39-8.85,4.89-13.48,6.82-16.81,5.58-33.94,12.74-46.1,26.1-5.45.04-10.98.61-16.37-.38-4.24-1.29-7.13-4.94-10.36-7.76,1.32-1.57,2.73-3.07,4.42-4.24,12.26-8.36,25.18-17.24,40.3-18.93,4.79.14,9.53-.69,14.23-1.52,6.43-1.16,13.01-.64,19.46-1.56-2.14-.47-4.32-.8-6.5-.92Z"/>
    <path class="cls-40" d="M735.76,103.96c8.81-2.62,18.04-3.46,27.19-4,2.18.12,4.36.45,6.5.92-6.45.92-13.03.4-19.46,1.56-4.7.83-9.44,1.66-14.23,1.52Z"/>
    <path class="cls-32" d="M686.53,126.72c1.42.68,2.84,1.37,4.26,2.07.06-.41.19-1.25.25-1.66,3.23,2.82,6.12,6.47,10.36,7.76,5.39.99,10.92.42,16.37.38l.08,1.02c-1.58.13-3.14.25-4.71.38.98.55,1.96,1.1,2.95,1.66-3.61.14-7.21.37-10.82.39-8.3.63-14.14-6.08-18.74-12Z"/>
    <path class="cls-38" d="M701.92,140.15c.88-.39,1.77-.77,2.66-1.13,5.77.17,11.56.15,17.32.61,3.34.18,5.91,2.55,7.46,5.35-3.15-2.01-6.42-4.36-10.31-4.39-5.71-.2-11.44.13-17.13-.44Z"/>
    <path class="cls-65" d="M640.42,147.81c6.46-1.34,12.58-4.17,19.21-4.72l.67.72c-12.02,2.82-24.01,8.73-36.63,6.08,5.56-.86,11.27-.64,16.75-2.08Z"/>
    <path class="cls-108" d="M720.03,147.37c1.87-2.4,4.47-.32,6.28.93-.22,1.93-.42,3.85-.62,5.78.42.38,1.25,1.14,1.66,1.51-4.08.92-8.25,1.56-12.2,2.97-7.5,2.62-14.75,6.27-22.71,7.34-5.58.72-11.25.72-16.84.03,8.49-1.25,17.33-.55,25.5-3.57,6.75-2.49,13.38-5.34,20.44-6.89-1.49-2.38-4.35-5.56-1.51-8.1ZM722,147.49c-1.55,1.63-1.32,3.78-.85,5.8.76,0,2.27-.02,3.03-.02l-.2-1.16c1.7.58,1.8-2.97.07-2.45l.21-.89c-.56-.32-1.7-.96-2.26-1.28Z"/>
    <path class="cls-102" d="M722,147.49c.56.32,1.7.96,2.26,1.28l-.21.89c-.02.61-.05,1.84-.07,2.45l.2,1.16c-.76,0-2.27.01-3.03.02-.47-2.02-.7-4.17.85-5.8Z"/>
    <path class="cls-18" d="M731.08,147.58c5.57,1.53,11.44,4.08,14.4,9.37-6.09,2.2-12.3-1.55-18.55-.76l.42-.6c1.81-2.36,3.32-5.01,3.73-8.01Z"/>
    <path class="cls-20" d="M724.05,149.66c1.73-.52,1.63,3.03-.07,2.45.02-.61.05-1.84.07-2.45Z"/>
  </g>
  <path id="güneş" class="cls-17" d="M996.39,174.81c19.14-.81,38.64,4.66,54.05,16.18,9.49,7.5,17.95,16.55,23.78,27.21,9.21,17.54,12.47,38.51,7.46,57.81-6.72,30.82-32.94,56.27-63.89,62.21-19.64,4.14-40.93.98-58.21-9.35-20.59-11.82-35.21-33.05-39.77-56.27-4.5-20.64.25-42.96,11.96-60.46,4.8-7.35,11.11-13.57,17.59-19.44,13.35-10.53,29.98-17.12,47.03-17.89Z"/>
  <g id="martı1">
    <path class="cls-71" d="M1153.03,79.67c3.82-.42,7.48.94,10.86,2.59-3.17-.11-6.27-.75-9.29-1.66.82,1.53,1.61,3.07,2.47,4.59-2.1-1.21-3.88-2.98-4.04-5.52Z"/>
    <path class="cls-115" d="M1154.6,80.6c3.02.91,6.12,1.55,9.29,1.66,2.94.25,5.78,1.08,8.65,1.75l-.65.46-.77.54c4.15,1.24,8.36,2.29,12.57,3.35.56,3.79,1.09,7.58,1.66,11.36-2.98-1.24-6.06-2.21-9.23-2.8-3.09-.9-5.71-2.88-8.52-4.38-3.63-2.24-7.6-4.2-10.53-7.35-.86-1.52-1.65-3.06-2.47-4.59Z"/>
    <path class="cls-8" d="M1171.12,85.01l.77-.54c4.58.23,8.85,2.24,13.41,2.68l.03.68c-.1,5.12.8,10.34,3.52,14.76-4.53-1.17-8.76-3.26-12.73-5.67,3.17.59,6.25,1.56,9.23,2.8-.57-3.78-1.1-7.57-1.66-11.36-4.21-1.06-8.42-2.11-12.57-3.35Z"/>
    <path class="cls-87" d="M1185.33,87.83c3.2.36,6.33,1.19,9.3,2.47-2.4-.08-4.81-.08-7.2-.13.06,4.47.92,8.93,2.91,12.97-.37-.14-1.12-.41-1.49-.55-2.72-4.42-3.62-9.64-3.52-14.76Z"/>
    <path class="cls-86" d="M1187.43,90.17c2.39.05,4.8.05,7.2.13,5.45.52,10.43,3.06,15.65,4.53,8.79,3.05,18.66,4.77,25.64,11.39,6.88,6.39,9.28,15.81,14.35,23.45,3.53,6.11,8.73,12.3,16.13,13.36-4.19-2.65-8.43-5.39-11.47-9.39,3.61-3.9,8.73-5.78,13.4-8.07,6.97-3.36,14.93-1.78,22.08.08,8.41,1.89,16.44,5.19,24.22,8.83,1.81.62,1.92,2.58,2.15,4.19-7.11.5-14.01-1.99-21.11-1.57-8.47.38-17.07,2.07-24.58,6.14,2.55.59,5.35.62,7.68,1.95,2.53,1.55,1.44,4.81,1.66,7.25-1.41,1.57-2.83,3.13-4.28,4.65-2-.29-4.06-1.13-6.06-.61-2.94,1.61-5.06,4.52-8.32,5.59-7.51,2.76-15.77,1.08-23.02-1.68-4.87-1.74-9.41-4.52-14.55-5.42-5.74-.6-11.39,1.96-17.11,1.11-2.59-.46-3.74-2.98-4.07-5.32,4.59-1.79,9.46-2.68,14.09-4.36,4.75-1.73,9.52-3.39,14.36-4.86-6.41-5.25-12.16-11.36-16.59-18.39-2.67-4.19-5.24-8.66-9.43-11.54-4.59-3.58-10.19-5.45-15.11-8.47-1.99-4.04-2.85-8.5-2.91-12.97ZM1272.64,148.64c-.6,1-1.13,2.04-1.61,3.1,1.09.29,2.99,2.15,3.73.41,1.42-1.46-.12-4.26-2.12-3.51Z"/>
    <path class="cls-25" d="M1249.81,128.85c1.99,1.26,3.63,2.97,5.12,4.79,3.04,4,7.28,6.74,11.47,9.39-7.4-1.06-12.6-7.25-16.13-13.36l-.46-.82Z"/>
    <path class="cls-49" d="M1272.64,148.64c2-.75,3.54,2.05,2.12,3.51-.74,1.74-2.64-.12-3.73-.41.48-1.06,1.01-2.1,1.61-3.1Z"/>
    <path class="cls-80" d="M1276.15,157.09c1.45-1.52,2.87-3.08,4.28-4.65,3.67,2.18,9.41,4.22,8.97,9.43-4.44-1.55-9-2.77-13.25-4.78Z"/>
  </g>
  <g id="martı3">
    <path class="cls-106" d="M1413.38,316.8c6.44-.44,12.91-1.1,19.38-1.27l-.79.66c-3.81,2.61-9.2,2.54-12.19,6.27-2.6,3.52-5.85,6.46-9.19,9.26,3.02,3.32,7.64,3.99,11.66,5.46,1.2-.13,2.78,2.04,1.11,2.47-3.22,2.13-6.93.07-10.38.01-3.63.08-7.23,1.17-10.85.55-4.55-.85-8.54-3.91-10.82-7.9-.57-1.08-1.13-2.16-1.66-3.24,1.33-1.12,2.42-3.06,4.43-2.86,2.71.17,5.22,1.34,7.77,2.21,3.54-4.1,5.29-10.94,11.53-11.62ZM1393.16,330.62c-1.19,1.03.04,3.79,1.63,2.63,1.17-1.02-.12-3.75-1.63-2.63Z"/>
    <path class="cls-125" d="M1419.78,322.46c2.99-3.73,8.38-3.66,12.19-6.27,1.85-.25,3.72-.23,5.61-.15-1.07,1.29-2.33,2.47-3.94,3.01-4.48,1.65-9.15,2.72-13.86,3.41Z"/>
    <path class="cls-28" d="M1379.66,330.95c2.94-2.03,6.54-2.26,9.99-1.88.53,1.08,1.09,2.16,1.66,3.24l.4.77c-4.01-.79-8.03-1.44-12.05-2.13Z"/>
    <path class="cls-70" d="M1393.16,330.62c1.51-1.12,2.8,1.61,1.63,2.63-1.59,1.16-2.82-1.6-1.63-2.63Z"/>
  </g>
  <g id="martı4">
    <path class="cls-41" d="M1083.93,343.3c6.72-1.69,11.76-6.66,17.94-9.45,1.09,4.84-2.82,8.5-5.76,11.73-3.2,3.05-6.13,6.56-10.03,8.72-1.11.32-2.21.63-3.31.94.65-3.67,1.08-7.38,1.13-11.11l.03-.83Z"/>
    <path class="cls-67" d="M1079.12,345.49c1-.49,1.99-.99,3.01-1.47,1.69,5.41-1,10.57-3.57,15.17-.75,1.17-1.7,2.18-2.59,3.23.78-5.71,6.99-11.25,3.15-16.93Z"/>
    <path class="cls-131" d="M1082.13,344.02c.44.03,1.33.08,1.77.11-.05,3.73-.48,7.44-1.13,11.11,1.1-.31,2.2-.62,3.31-.94-2.45,2.24-5.01,4.43-8,5.91l.48-1.02c2.57-4.6,5.26-9.76,3.57-15.17Z"/>
    <path class="cls-93" d="M1058.64,354.1c6.2-4.14,13.5-6.17,20.48-8.61,3.84,5.68-2.37,11.22-3.15,16.93-3.48,8.56-7.66,16.96-13.79,23.97,7.31,4.28,16.06,3.49,23.93,5.86-1.57,3.99-5.14,7.31-9.55,7.64-4.22.49-7.7-2.72-11.8-2.97-4.11.18-7.96,1.86-12.02,2.35-7.79,1.13-15.86-1.09-22.28-5.55.05-1.54.13-3.08.1-4.61-.92-1.23-1.93-2.38-2.96-3.49-.97.81-1.94,1.61-2.89,2.43-.05-1.39-.08-2.77-.08-4.15.54-2.14,2.83-3.89,5.07-3.46,3.6.44,7.79,2.54,10.92-.4,8.04-7.11,9.16-19.45,18.02-25.94Z"/>
    <path class="cls-59" d="M1023.41,387.39c.09-1.26.5-2.42,1.22-3.49,0,1.38.03,2.76.08,4.15.95-.82,1.92-1.62,2.89-2.43-.17,1.68-.16,3.38.01,5.07.74-.4,2.21-1.19,2.95-1.58.03,1.53-.05,3.07-.1,4.61-1.92-.82-3.81-1.67-5.68-2.55-.48-1.26-.95-2.52-1.37-3.78Z"/>
    <path class="cls-100" d="M1011.48,390.98c2.71-3.54,7.17-4.56,11.35-5.24.14.41.44,1.24.58,1.65.42,1.26.89,2.52,1.37,3.78-4.42-.64-8.87-.44-13.3-.19Z"/>
    <path class="cls-46" d="M1027.6,385.62c1.03,1.11,2.04,2.26,2.96,3.49-.74.39-2.21,1.18-2.95,1.58-.17-1.69-.18-3.39-.01-5.07Z"/>
  </g>
  <g>
    <path class="cls-78" d="M573.62,465.87s-2.26-27.28,19.53-26.26l13.07-10.66c4.53-8.62,15.62-26.32,33.53-26.21v-3.57s0-8.24,0-8.24c0,0,1.92-10.38,12.42-7.13,2.7-6.91,12.44-41.1,53.71-45.73q4.03-6.68,7.11-12.03c.08-3.66.14-8.42.14-8.42l2.03-15.69,1.91,15.54v8.34l6.87,12.12c10.53,2.01,42.74,5.22,56.44,46.34,7.44.55,14.04-.41,13.87,10.65l-.17,11.4s17.97-1.46,33.53,23.32c-.67-25.68.41-72.63.41-72.63l-2.98-3.55-1.68-8.17h5.07l.02-38.35,7.22-59.18,6.29,59.17,1.05,37.13,5.65.09-2.19,9.31-3.21,4.2-.62,84.74s20.51-4.12,21.31,23.88c3.19.9,15.42.39,25.79,15.28-.05-40.9.06-75.84.06-75.84,0,0-4.12-6.03-4.22-5.35s0-5.97,0-5.97l5.96-.59-.36-25.66,4.91-48.95,5.47,48.95v25.54h5.54v6.85l-5.08,5.4,1.2,75.63h9.91s2.52-14.46,25.14-13.7c8.43-9.73,10.62-14.84,25.68-15.21s24.52,8.93,31.28,24.45l12.97-.32v-11.73l40.77-.51.69,14.89,7.07-.08v-15.57l28.69-.51.05,7.4,5.37-.23-.19-23.06,32.98-.14.5,23.01h16.68l-.23-26.41,47.92-.23s-.65,22.89,0,22.68,31.8,0,31.8,0l-1.66-63.1-4.98-12.05,5.61-.12-.79-24.15-6.86-9.13,8.34-.33-.18-17.66,8.03-.25,27.27-84.51,27.07,84.05,8.2.05-.1,17.28,6.3.19-6.71,10.32v24.14s5.82-.35,5.82-.35l-6.79,13.12v60.26s36.1-.34,36.1-.34v-21.28l73.14.02v32.53l21.39-.47v-22.14h78.07v33.05h22.98v-45.78h28.34v45.78h16.85v-34.9h52.85v34.9h21.45v-72.43l68.94.77v71.67h18.38v-45.78h58.98v49.94h16.85v-108.77h87.32v114.89h29.21v141.41L-.27,627.43v-169.88h48.66v33.03h18.38v-31.53h60.26v31.53h18.38v-90.11l49.02-.02v90.13h29.62v-54.4h40.85v59.51h33.7v-43.34h29.62v43.34h36.77v-71.86h45.96v71.86h35.74v-37.05l26.55.42v36.64h15.51v-12l54.32-3.72s2.42-5.01,8.29-8.98c5.58-3.78,14.28-6.9,22.25-5.11h0Z"/>
    <path class="cls-78" d="M593.09,458.94c.4,2.89.63-85.89.63-85.89l-5.94-7.07v-8.23l5.32.22-.73-34.75,8.34-65.87,7.13,65.87.28,34.53h5.24l-.56,8.62-4.66,6.63-.15,85.22-14.89.72Z"/>
    <path class="cls-78" d="M530.16,497.95c-.05-40.9.06-75.84.06-75.84,0,0-4.12-6.03-4.22-5.35s0-5.97,0-5.97l5.96-.59-.36-25.65,4.91-48.95,5.47,48.95v25.54h5.54v6.85l-5.08,5.4,1.2,75.63h-13.47Z"/>
  </g>
  <path class="cls-39" d="M950.2,662.54l5.65-22.86c2.98-12.06,14.04-20.36,26.46-19.84l87.34,3.66c9.43.4,17.52,6.83,20.05,15.9.04.14.09.28.15.41l13.44,29.64c.53,1.16,1.69,1.9,2.96,1.88l169.64-1.92c3.47-.07,6.44,2.49,6.89,5.94l.69,5.33c.23,1.79-1.06,3.42-2.85,3.6l-11.71,1.2c-1.76.18-3.04,1.74-2.86,3.5l1.56,15.98c.18,1.89,1.96,3.21,3.82,2.83l9.69-1.94c2.07-.41,3.97,1.25,3.83,3.36l-.89,13.25c-.09,1.38-1.06,2.54-2.4,2.89l-8.62,2.23c-1.54.4-2.55,1.86-2.39,3.44l1.61,15.13c.19,1.79,1.81,3.07,3.59,2.84l9.56-1.21c1.3-.16,2.57.48,3.21,1.62l2.18,3.9c.33.59.46,1.28.38,1.95l-1.11,9.08c-.17,1.39-1.22,2.51-2.6,2.76l-69.02,12.74c-.19.04-.39.05-.59.05l-201.8-.29-133.45-6.95-101.45-5.04c-1.32-.07-2.46-.93-2.88-2.18l-32.47-96.61c-.34-1.01-.16-2.11.48-2.96l1.23-1.63c.71-.93,1.87-1.41,3.02-1.24l135.57,19.98c1.93.28,3.66-1.2,3.67-3.15l.08-13.85c.01-1.81,1.52-3.26,3.34-3.19l53.76,2.16c1.52.06,2.88-.96,3.24-2.43Z"/>
  <path class="cls-102" d="M1271.57,727.41c4.13-.65,8.17-1.72,12.31-2.35-2.86,2.83-7.19,2.63-10.85,3.45-.42,6.48.26,12.95.69,19.41,2.61-.22,5.23-.44,7.85-.57.42.2,1.25.62,1.67.82-1.45.37-2.88.78-4.31,1.19-2.12.14-4.23.25-6.34.34-.64-4.52-.97-9.06-1.09-13.61-.07-2.9.01-5.79.07-8.68Z"/>
  <path class="cls-102" d="M1253.42,734.22c3.64-.32,7.29-.73,10.93-1.11.66,5.23.91,10.51,1.27,15.78-3.54.67-7.08,1.52-10.68,1.68-.23-.26-.68-.78-.9-1.04-.8-5.05-.91-10.21-.62-15.31ZM1254.79,735.78c-.12,4.4.01,8.82.82,13.16,2.68-.3,5.35-.71,8-1.21.11-4.32-.01-8.64-.19-12.95-2.91.13-5.79.46-8.63,1Z"/>
  <path class="cls-102" d="M1234.91,737.25c2.47-1.97,6.6-1.23,9.75-1.65,1.87-.4,1.78,2.07,1.91,3.27.17,4.25.08,8.5.02,12.76-3.56.48-7.11,1.09-10.69,1.25-.28-5.22-.91-10.42-.99-15.63ZM1236.78,737.86c-.09,4.34,0,8.68.19,13.02,2.8.03,5.59-.07,8.39-.3.11-4.58-.2-9.16-.81-13.69-2.6.25-5.19.58-7.77.97Z"/>
  <path class="cls-102" d="M1008.77,736.68c5.02.2,10.07.25,15.02,1.22.43,5.97.14,11.96-.26,17.93-5.16,0-10.33-.26-15.4-1.25-.68-5.96-.6-12.03.64-17.9ZM1009.86,738.7c-.32,4.98-.56,9.97-.27,14.96,4.26.36,8.54.54,12.82.36.05-5.05.17-10.09.24-15.13-4.26-.3-8.53-.39-12.79-.19Z"/>
  <path class="cls-102" d="M1197.51,739.26c4.08.03,8.17-.09,12.26-.11.63,5.49.91,11.02.78,16.54-4.25.23-8.49.28-12.73.14-.26-5.52-.37-11.05-.31-16.57ZM1198.79,740.91c-.07,4.54,0,9.08.3,13.62,3.37.15,6.74,0,10.07-.58-.21-4.34-.49-8.68-.82-13.01-3.19-.11-6.37-.12-9.55-.03Z"/>
  <path class="cls-102" d="M885.49,796.67c.59-.22,1.78-.67,2.37-.89,1.43,0,2.86.06,4.3.1,28.28,4.05,56.9,1.97,85.29.56.7.54,1.42,1.1,2.14,1.66-15.14.31-30.24,1.46-45.36,2.26-16.28-.53-32.64-.99-48.74-3.69Z"/>
  <path class="cls-18" d="M1058.55,739.96c5.54-1.8,11.31-.79,16.96-.22,1.97,6.55,3.21,14.15-.59,20.33-4.48-.34-8.96-.27-13.44-.28-1.32-1.29-3.07-2.51-3.2-4.51-.75-5.09.1-10.23.27-15.32ZM1059.86,740.69c-.26,5.64-.38,11.31-.01,16.95,4.81.44,9.72.94,14.54.26.24-.33.74-.98.99-1.31.58-4.91.16-9.87.31-14.8-5.1-1.66-10.56-1.18-15.83-1.1Z"/>
  <path class="cls-80" d="M1251.66,733.92c4.42-1.61,9.13-2.02,13.82-1.91,1.13,4.23,1.11,8.61,1.28,12.95-.11,2,1.32,3.53,2.35,5.11-6.5.87-12.9,2.48-19.48,2.83,1.05-.66,2.1-1.3,3.17-1.94-1.12-5.61-1.4-11.34-1.14-17.04ZM1253.42,734.22c-.29,5.1-.18,10.26.62,15.31.22.26.67.78.9,1.04,3.6-.16,7.14-1.01,10.68-1.68-.36-5.27-.61-10.55-1.27-15.78-3.64.38-7.29.79-10.93,1.11Z"/>
  <path class="cls-42" d="M1068.35,596.11c1.48-4.28,6.97-3.68,10.62-4.36,13.85-.35,27.69,1.94,40.96,5.81,2.48.84,5.38,1.83,6.49,4.46,2.39,5.49,2.39,11.5,4.09,17.21-10.2-3.02-19.2-7.47-29.61-9.8-11.45-2.47-22.29-5.29-34.09-3.95.62-3.19.3-6.35,1.54-9.37Z"/>
  <path class="cls-45" d="M868.44,581.43c1.96.08,3.92.18,5.89.3.22,1.77.43,3.55.64,5.34-.71,7.87-1.76,15.72-1.79,23.63l-.04.62c-.89,5.38-1.41,10.83-1.63,16.29-1.69,17.92-2.77,35.9-4.57,53.81-3.49-.58-6.98-1.18-10.46-1.83.25-4.32,1.06-8.59,1.48-12.89.19-1.59.34-3.18.46-4.76,2.55-19.44,4.72-38.92,6.89-58.4-.34.44-1.01,1.33-1.35,1.77.01-2-.07-4,.02-5.98,2.98-5.55,2.69-12,4.46-17.9Z"/>
  <path class="cls-16" d="M863.98,599.33c-.09,1.98,0,3.98-.02,5.98-.72,1.65-1.44,3.3-2.28,4.9-5.38,8.09-10.81,16.14-16.15,24.26-8.78,12.12-17,24.63-25.53,36.91-.47.65-.93,1.3-1.4,1.96-1.37-.25-2.73-.52-4.1-.75l.6-.75c8.84-11.97,17.37-24.17,25.79-36.44,3.5-5.11,7.34-10.02,10.25-15.5,4.69-6.6,8.75-13.6,12.84-20.57Z"/>
  <path class="cls-123" d="M1067.13,604.05c7.64-.61,15.27.61,22.72,2.27-7.07,1.66-14.08-1.68-21.11-.65-.72,1.7-1.11,3.5-1.6,5.28-.25-.56-.76-1.67-1.01-2.23.33-1.57.66-3.13,1-4.67Z"/>
  <path class="cls-98" d="M1068.74,605.67c7.03-1.03,14.04,2.31,21.11.65,1.99.33,3.97.71,5.97,1.11l-2.36.64c12.01,3.32,24.15,6.41,35.52,11.64,1.86,9.07,3.22,18.23,4.61,27.38-2.09.4-4.16.89-6.24,1.33-12.63-1.48-25.23-3.54-37.56-6.68-.49-1.83-1.07-3.62-1.73-5.39-1.09-2.94-2.81-5.62-5.41-7.57-2.99-2.2-6.11-3.59-9.66-4.34-3.08-.64-6.18-.83-9.32-.92.44-4.87,1.46-10.03,2.46-14.8.25.56.44-3.34.69-2.78l1.92-.27Z"/>
  <path class="cls-98" d="M1162.79,676.34c.01-3.14-.03-6.27.09-9.4.69-3.27,1.43-7.49,5.11-8.64,4.81-1.04,10.04-1.12,14.74.48,3.75,1.2,5.52,5.02,6.82,8.43.07,3.12.11,6.25.05,9.38l-26.81-.25Z"/>
  <path class="cls-98" d="M945.77,716.98c8.66.63,17.22,2.26,25.89,2.85,28.67,2.36,57.29,5.6,86.07,6.36,8.74.37,17.65,2.34,26.27-.09,2.95-.02,5.91.1,8.88.21-2.88-.01-5.73.43-8.53,1.07,8.3,1.19,16.7.52,25.04,1.06,17.41,1.16,34.88.66,52.32.84,18.35.01,36.7-.36,55.03-1.32,16-1.19,31.96-2.92,47.86-5.06,5.5-.86,11.15-1.03,16.46-2.87-1.56-.2-3.11-.37-4.66-.49,1.78-.31,3.56-.66,5.35-.98.4-.07,1.19-.21,1.59-.28l.88-.22c-.3,2.32-.39,4.66-.34,7-4.14.63-8.18,1.7-12.31,2.35-9.47.25-18.81,1.92-28.21,2.94-13.26,1.09-26.46,2.98-39.77,3.47-13.61,1.41-27.32,1.29-40.92,2.78-4.99.32-10,.07-14.99.37l-.87.08c-.07,8.36.3,16.71-.02,25.07-12.05.36-24.1-.55-36.15-.24-.04-1.24-.09-2.47-.14-3.69.19-7.17.14-14.33.15-21.5-.45-.02-1.35-.05-1.81-.07-3.06-.21-6.12-.43-9.18-.42-14.08.22-28.03-1.99-42.07-2.56-18.8-1.7-37.62-3.05-56.35-5.43-13.17-1.44-26.3-3.31-39.5-4.46-4.61-.53-9.18-1.37-13.71-2.38l-.77-.15c-.5-1.43-1-2.84-1.49-4.24Z"/>
  <path class="cls-23" d="M1093.46,608.07l2.36-.64c11.95,2.03,23.21,6.67,34.49,10.92,1.29,5.33,2.08,10.76,3.16,16.14.27,3.75.9,7.46,1.42,11.18.05,1.31.1,2.62.14,3.94-2.56-.41-5.12-.85-7.68-1.19,2.08-.44,4.15-.93,6.24-1.33-1.39-9.15-2.75-18.31-4.61-27.38-11.37-5.23-23.51-8.32-35.52-11.64Z"/>
  <path class="cls-117" d="M963.73,634.9c5.33-1.29,10.98-.54,16.42-.48.12.37.34,1.1.46,1.46-5.25.16-10.51.16-15.75.26-1.11,5.93-1.99,11.91-2.88,17.87,4.77.68,9.6.85,14.42.64.96-5.95,1.5-11.95,2.49-17.89.34.34,1.04,1.03,1.39,1.38-.63,4.49-1.37,8.97-1.78,13.5-.2,1.43-.56,2.84-.86,4.28-2.08.2-4.17.3-6.25.18-3.5-.76-7.93,1.03-10.75-1.49.56-6.59,1.32-13.33,3.09-19.71Z"/>
  <path class="cls-124" d="M987.81,634.85c5.02-.18,10.04.16,15.06-.04,1.29,1.87,1.58,4.11,1.13,6.33-.22,1.83-.39,3.67-.54,5.52-.53,3.22-.42,6.59-1.31,9.74-1.37.89-3.13.38-4.65.53-4.05-.09-8.09-.04-12.13-.21.62-7.31,1.43-14.6,2.44-21.87ZM988.81,635.93c-.65,6.37-1.17,12.77-2.25,19.09,4.53.7,9.16,1.02,13.73.51.26-.25.78-.74,1.04-.98.58-5.91,1.13-11.84,1.39-17.77-4.59-.83-9.26-1.03-13.91-.85Z"/>
  <path class="cls-53" d="M964.86,636.14c5.24-.1,10.5-.1,15.75-.26-.09.57-.25,1.69-.33,2.26-.35-.35-1.05-1.04-1.39-1.38-.99,5.94-1.53,11.94-2.49,17.89-4.82.21-9.65.04-14.42-.64.89-5.96,1.77-11.94,2.88-17.87Z"/>
  <path class="cls-96" d="M988.81,635.93c4.65-.18,9.32.02,13.91.85-.26,5.93-.81,11.86-1.39,17.77-.26.24-.78.73-1.04.98-4.57.51-9.2.19-13.73-.51,1.08-6.32,1.6-12.72,2.25-19.09Z"/>
  <path class="cls-9" d="M1014.64,635.68c2.26.14,4.51.27,6.77.51,2.73.35,5.47.63,8.23.7,1.46-.28,3.39.64,3.18,2.38-.84,6.73-1.43,13.5-2.46,20.22-6.32-.05-12.75-.02-18.93-1.45.83-6.58,1.7-13.16,2.75-19.7.12-.67.35-1.99.46-2.66ZM1015.92,637.9c-1.02,6.44-2.17,12.87-2.75,19.37,5.39.51,10.81.52,16.22.47.04-6.47,1.35-12.82,1.88-19.25-5.1-.52-10.23-.67-15.35-.59Z"/>
  <path class="cls-11" d="M1045.83,638.16c.73-1.45,2.29-1.15,3.63-1.1,2.99.2,5.94.77,8.95.75.01.52.04,1.55.05,2.07-.32,7.09-.94,14.17-.83,21.28-1.44.06-2.87.07-4.3.03-2.94-.16-5.91-.31-8.74-1.18-.14-7.31.75-14.57,1.24-21.85ZM1046.94,638.88c-.14,6.69-.63,13.37-1.31,20.04,3.5,1.03,7.16,1.07,10.78.88.15-6.96.33-13.92.36-20.88-3.28-.16-6.56-.18-9.83-.04Z"/>
  <path class="cls-6" d="M1015.92,637.9c5.12-.08,10.25.07,15.35.59-.53,6.43-1.84,12.78-1.88,19.25-5.41.05-10.83.04-16.22-.47.58-6.5,1.73-12.93,2.75-19.37Z"/>
  <path class="cls-84" d="M1046.94,638.88c3.27-.14,6.55-.12,9.83.04-.03,6.96-.21,13.92-.36,20.88-3.62.19-7.28.15-10.78-.88.68-6.67,1.17-13.35,1.31-20.04Z"/>
  <path class="cls-94" d="M1064.67,638.75c2.57.08,5.15.27,7.7.66,2.39.35,4.75,1.37,6.14,3.45,1.29,6.69,1.95,13.48,2.34,20.29-5.49-.17-10.97-.79-16.29-2.18-.02-.46-.07-1.38-.1-1.83-.05-4.52.02-9.03.03-13.54.11-2.29.15-4.57.18-6.85ZM1066.18,640.28c-.55,6.5-.43,13.03-.32,19.54,4.39.99,8.88,1.35,13.33,2.03-.81-6.52-.31-13.39-2.91-19.56-3.07-1.69-6.71-1.61-10.1-2.01Z"/>
  <path class="cls-109" d="M1066.18,640.28c3.39.4,7.03.32,10.1,2.01,2.6,6.17,2.1,13.04,2.91,19.56-4.45-.68-8.94-1.04-13.33-2.03-.11-6.51-.23-13.04.32-19.54Z"/>
  <path class="cls-27" d="M1089.79,641.74c12.33,3.14,24.93,5.2,37.56,6.68,2.56.34,5.12.78,7.68,1.19-.04-1.32-.09-2.63-.14-3.94,1.41,10.11,3.61,20.16,3.91,30.38-7.98-.19-15.98.02-23.93-.74-5.84-.65-12.85.6-16.98-4.63-.19-.58-.55-1.74-.73-2.31-.36-5.42-2.47-10.47-3.99-15.61-.28.32-.83.96-1.11,1.28-.7-4.11-1.36-8.23-2.27-12.3Z"/>
  <path class="cls-101" d="M1064.46,659.14c-.65-4.5-.6-9.05.03-13.54-.01,4.51-.08,9.02-.03,13.54Z"/>
  <path class="cls-12" d="M1092.06,654.04c.28-.32.83-.96,1.11-1.28,1.52,5.14,3.63,10.19,3.99,15.61-2.09-4.11-3.73-8.43-5.06-12.83-.01-.38-.03-1.12-.04-1.5Z"/>
  <path class="cls-127" d="M534.96,674.15c8-1.35,15.81-4.64,24.07-3.6,9.41,1.33,18.67,3.58,27.93,5.65,15.7,3.23,31.8,4.82,47.83,4.14-4.13,2.8-9.32,2.46-13.95,3.81-5.33,1.51-10.88,1.83-16.35,2.46-5.97.76-11.9-.59-17.86-.72-9.86-.11-19.15-4.72-29.05-4.16-4.26.18-8.55-.54-12.77.29-8.41,1.07-16.68,3.18-25.16,3.74-8.4-.14-17.12-1.03-24.49-5.42-1.38-.52-1.31-2.12-1.67-3.27,13.84,1.93,28,.7,41.47-2.92Z"/>
  <path class="cls-127" d="M82.52,672.71c8-1.35,15.81-4.64,24.07-3.6,9.41,1.33,18.67,3.58,27.93,5.65,15.7,3.23,31.8,4.82,47.83,4.14-4.13,2.8-9.32,2.46-13.95,3.81-5.33,1.51-10.88,1.83-16.35,2.46-5.97.76-11.9-.59-17.86-.72-9.86-.11-19.15-4.72-29.05-4.16-4.26.18-8.55-.54-12.77.29-8.41,1.07-16.68,3.18-25.16,3.74-8.4-.14-17.12-1.03-24.49-5.42-1.38-.52-1.31-2.12-1.67-3.27,13.84,1.93,28,.7,41.47-2.92Z"/>
  <path class="cls-127" d="M327.81,711.79c8-1.35,15.81-4.64,24.07-3.6,9.41,1.33,18.67,3.58,27.93,5.65,15.7,3.23,31.8,4.82,47.83,4.14-4.13,2.8-9.32,2.46-13.95,3.81-5.33,1.51-10.88,1.83-16.35,2.46-5.97.76-11.9-.59-17.86-.72-9.86-.11-19.15-4.72-29.05-4.16-4.26.18-8.55-.54-12.77.29-8.41,1.07-16.68,3.18-25.16,3.74-8.4-.14-17.12-1.03-24.49-5.42-1.38-.52-1.31-2.12-1.67-3.27,13.84,1.93,28,.7,41.47-2.92Z"/>
  <path class="cls-127" d="M139.6,1010.58c8-1.35,15.81-4.64,24.07-3.6,9.41,1.33,18.67,3.58,27.93,5.65,15.7,3.23,31.8,4.82,47.83,4.14-4.13,2.8-9.32,2.46-13.95,3.81-5.33,1.51-10.88,1.83-16.35,2.46-5.97.76-11.9-.59-17.86-.72-9.86-.11-19.15-4.72-29.05-4.16-4.26.18-8.55-.54-12.77.29-8.41,1.07-16.68,3.18-25.16,3.74-8.4-.14-17.12-1.03-24.49-5.42-1.38-.52-1.31-2.12-1.67-3.27,13.84,1.93,28,.7,41.47-2.92Z"/>
  <path class="cls-127" d="M1369.11,674.79c7.96.25,16.21-.69,23.85,2.15,9.27,3.33,19.21,3.32,28.93,3.74,5.2.19,10.47-.93,15.63.32-5.81,4.14-13.27,3.75-19.83,5.92-16.32,2.68-32.68-1.9-49.03-1.98-5.25.12-10.31,1.63-15.44,2.58-4.95.95-10.02.76-15.02.61-6.64-.26-13.42-.37-19.77-2.51-2.19-.67-3.74-2.44-5.28-4,4.46-1.14,8.98.41,13.49.06,5.15-.32,10.4.27,15.43-1.17,9.14-1.31,17.89-4.47,27.04-5.72Z"/>
  <path class="cls-127" d="M639.44,723.86c6.99-.24,14-.59,20.99.05,4.15-.45,7.73,2.06,11.78,2.43,9.68,1.99,19.32,4.19,29.07,5.84,2.1.33,4.23.33,6.35.26,5.03-.34,9.96,1.27,14.99.65,4.43,0,9.03-1.82,13.33-.07-7.26,3.59-15.04,7.19-23.34,6.73-4.86-.35-9.55,1.42-14.41,1.07-6.8.68-13.57-.39-20.29-1.3-14.16-2.46-28.82-3.48-42.98-.38-8.42.94-16.73,3.35-25.26,2.84-7.07.06-14.3,1.11-21.22-.9-9.74-1.68-19.71-2.71-29.07-6.05-3.71-1.74-7.58-3.17-11.68-3.64,2.09-.62,4.2-1.73,6.45-1.38,8.33,1.65,16.85.48,25.28,1.08,8.73-.61,17.52.68,26.18-.98,5.21.28,9.87-2.49,15.01-2.47,6.5.01,12.35-3.43,18.82-3.78Z"/>
  <path class="cls-127" d="M203.44,783.79c6.99-.24,14-.59,20.99.05,4.15-.45,7.73,2.06,11.78,2.43,9.68,1.99,19.32,4.19,29.07,5.84,2.1.33,4.23.33,6.35.26,5.03-.34,9.96,1.27,14.99.65,4.43,0,9.03-1.82,13.33-.07-7.26,3.59-15.04,7.19-23.34,6.73-4.86-.35-9.55,1.42-14.41,1.07-6.8.68-13.57-.39-20.29-1.3-14.16-2.46-28.82-3.48-42.98-.38-8.42.94-16.73,3.35-25.26,2.84-7.07.06-14.3,1.11-21.22-.9-9.74-1.68-19.71-2.71-29.07-6.05-3.71-1.74-7.58-3.17-11.68-3.64,2.09-.62,4.2-1.73,6.45-1.38,8.33,1.65,16.85.48,25.28,1.08,8.73-.61,17.52.68,26.18-.98,5.21.28,9.87-2.49,15.01-2.47,6.5.01,12.35-3.43,18.82-3.78Z"/>
  <path class="cls-127" d="M391.69,844.46c6.99-.24,14-.59,20.99.05,4.15-.45,7.73,2.06,11.78,2.43,9.68,1.99,19.32,4.19,29.07,5.84,2.1.33,4.23.33,6.35.26,5.03-.34,9.96,1.27,14.99.65,4.43,0,9.03-1.82,13.33-.07-7.26,3.59-15.04,7.19-23.34,6.73-4.86-.35-9.55,1.42-14.41,1.07-6.8.68-13.57-.39-20.29-1.3-14.16-2.46-28.82-3.48-42.98-.38-8.42.94-16.73,3.35-25.26,2.84-7.07.06-14.3,1.11-21.22-.9-9.74-1.68-19.71-2.71-29.07-6.05-3.71-1.74-7.58-3.17-11.68-3.64,2.09-.62,4.2-1.73,6.45-1.38,8.33,1.65,16.85.48,25.28,1.08,8.73-.61,17.52.68,26.18-.98,5.21.28,9.87-2.49,15.01-2.47,6.5.01,12.35-3.43,18.82-3.78Z"/>
  <path class="cls-127" d="M132.79,892.65c6.99-.24,14-.59,20.99.05,4.15-.45,7.73,2.06,11.78,2.43,9.68,1.99,19.32,4.19,29.07,5.84,2.1.33,4.23.33,6.35.26,5.03-.34,9.96,1.27,14.99.65,4.43,0,9.03-1.82,13.33-.07-7.26,3.59-15.04,7.19-23.34,6.73-4.86-.35-9.55,1.42-14.41,1.07-6.8.68-13.57-.39-20.29-1.3-14.16-2.46-28.82-3.48-42.98-.38-8.42.94-16.73,3.35-25.26,2.84-7.07.06-14.3,1.11-21.22-.9-9.74-1.68-19.71-2.71-29.07-6.05-3.71-1.74-7.58-3.17-11.68-3.64,2.09-.62,4.2-1.73,6.45-1.38,8.33,1.65,16.85.48,25.28,1.08,8.73-.61,17.52.68,26.18-.98,5.21.28,9.87-2.49,15.01-2.47,6.5.01,12.35-3.43,18.82-3.78Z"/>
  <path class="cls-127" d="M542.64,777.83c5.85-.46,11.86-1.43,17.69-.26,3.97,1.79,8.5,1.89,12.22,4.28,5.38,1.81,11.26,1.29,16.77,2.65,9.9,2.8,20.29,1.3,30.41,2.24,2.12-.04,3.68,1.39,5.02,2.87-11.35,1.62-22.7,5.15-34.26,3.47-2.67-.37-5.37,1.26-7.95.09-3.63-1.41-7.65-.61-11.33-1.84-6.24-2.13-12.91-1.76-19.35-2.78-3.26-.55-6.42.66-9.56,1.34-4.51.99-9.17.28-13.73.87-5.65.81-11.38.85-17.08.72-7.92-1.07-15.77-2.59-23.63-3.95-3.39-1.17-6.22-3.52-9.33-5.25,4.44.38,8.89,1.26,13.36.8,5.81-.7,11.67-.96,17.45-1.86,6.7.63,13.36-.27,19.95-1.39.17-.25.51-.74.68-.99,4.23,1.55,8.43-.76,12.67-1.01Z"/>
  <path class="cls-127" d="M605.9,842.29c14.47-3.62,29.38-4.94,43.95-8.04,8.81-.83,17.87.15,26.23,3.11,5,1.69,10.31,2.19,15.33,3.84,2.8.88,5.55,2,8.46,2.48,7.02.98,13.57,4.51,20.8,4.12,4.43-.3,8.81.81,13.24.56,7.63-.18,15.28-.19,22.87-1.08-4.36,3.84-10.04,5.72-15.66,6.82-7.45,1.42-14.9,2.89-22.45,3.67-6.85.68-13.66-.69-20.51-.58-4.42.08-8.78-.83-13.2-.68-11.19-3.08-22.67-5.64-34.34-5.81-8.56-.74-16.8,2.32-25.31,2.67-3.71.2-7.44.02-11.15.4-5.4.61-10.59-2.77-15.95-1.02-3.72-1.91-8.01-1.3-11.92-2.46-5.08-1.33-9.91-3.4-14.73-5.42-.2-.5-.58-1.49-.77-1.98,3.38-.5,6.79-.26,10.09.6,4.99,1.3,10.09.2,15.11-.13,3.31-.28,6.64-.43,9.91-1.07Z"/>
  <path class="cls-127" d="M460.53,910.04c14.47-3.62,29.38-4.94,43.95-8.04,8.81-.83,17.87.15,26.23,3.11,5,1.69,10.31,2.19,15.33,3.84,2.8.88,5.55,2,8.46,2.48,7.02.98,13.57,4.51,20.8,4.12,4.43-.3,8.81.81,13.24.56,7.63-.18,15.28-.19,22.87-1.08-4.36,3.84-10.04,5.72-15.66,6.82-7.45,1.42-14.9,2.89-22.45,3.67-6.85.68-13.66-.69-20.51-.58-4.42.08-8.78-.83-13.2-.68-11.19-3.08-22.67-5.64-34.34-5.81-8.56-.74-16.8,2.32-25.31,2.67-3.71.2-7.44.02-11.15.4-5.4.61-10.59-2.77-15.95-1.02-3.72-1.91-8.01-1.3-11.92-2.46-5.08-1.33-9.91-3.4-14.73-5.42-.2-.5-.58-1.49-.77-1.98,3.38-.5,6.79-.26,10.09.6,4.99,1.3,10.09.2,15.11-.13,3.31-.28,6.64-.43,9.91-1.07Z"/>
  <path class="cls-127" d="M274.54,954.47c14.47-3.62,29.38-4.94,43.95-8.04,8.81-.83,17.87.15,26.23,3.11,5,1.69,10.31,2.19,15.33,3.84,2.8.88,5.55,2,8.46,2.48,7.02.98,13.57,4.51,20.8,4.12,4.43-.3,8.81.81,13.24.56,7.63-.18,15.28-.19,22.87-1.08-4.36,3.84-10.04,5.72-15.66,6.82-7.45,1.42-14.9,2.89-22.45,3.67-6.85.68-13.66-.69-20.51-.58-4.42.08-8.78-.83-13.2-.68-11.19-3.08-22.67-5.64-34.34-5.81-8.56-.74-16.8,2.32-25.31,2.67-3.71.2-7.44.02-11.15.4-5.4.61-10.59-2.77-15.95-1.02-3.72-1.91-8.01-1.3-11.92-2.46-5.08-1.33-9.91-3.4-14.73-5.42-.2-.5-.58-1.49-.77-1.98,3.38-.5,6.79-.26,10.09.6,4.99,1.3,10.09.2,15.11-.13,3.31-.28,6.64-.43,9.91-1.07Z"/>
  <path class="cls-127" d="M542.68,1013.41c14.47-3.62,29.38-4.94,43.95-8.04,8.81-.83,17.87.15,26.23,3.11,5,1.69,10.31,2.19,15.33,3.84,2.8.88,5.55,2,8.46,2.48,7.02.98,13.57,4.51,20.8,4.12,4.43-.3,8.81.81,13.24.56,7.63-.18,15.28-.19,22.87-1.08-4.36,3.84-10.04,5.72-15.66,6.82-7.45,1.42-14.9,2.89-22.45,3.67-6.85.68-13.66-.69-20.51-.58-4.42.08-8.78-.83-13.2-.68-11.19-3.08-22.67-5.64-34.34-5.81-8.56-.74-16.8,2.32-25.31,2.67-3.71.2-7.44.02-11.15.4-5.4.61-10.59-2.77-15.95-1.02-3.72-1.91-8.01-1.3-11.92-2.46-5.08-1.33-9.91-3.4-14.73-5.42-.2-.5-.58-1.49-.77-1.98,3.38-.5,6.79-.26,10.09.6,4.99,1.3,10.09.2,15.11-.13,3.31-.28,6.64-.43,9.91-1.07Z"/>
  <path class="cls-127" d="M711.57,957.94c14.47-3.62,29.38-4.94,43.95-8.04,8.81-.83,17.87.15,26.23,3.11,5,1.69,10.31,2.19,15.33,3.84,2.8.88,5.55,2,8.46,2.48,7.02.98,13.57,4.51,20.8,4.12,4.43-.3,8.81.81,13.24.56,7.63-.18,15.28-.19,22.87-1.08-4.36,3.84-10.04,5.72-15.66,6.82-7.45,1.42-14.9,2.89-22.45,3.67-6.85.68-13.66-.69-20.51-.58-4.42.08-8.78-.83-13.2-.68-11.19-3.08-22.67-5.64-34.34-5.81-8.56-.74-16.8,2.32-25.31,2.67-3.71.2-7.44.02-11.15.4-5.4.61-10.59-2.77-15.95-1.02-3.72-1.91-8.01-1.3-11.92-2.46-5.08-1.33-9.91-3.4-14.73-5.42-.2-.5-.58-1.49-.77-1.98,3.38-.5,6.79-.26,10.09.6,4.99,1.3,10.09.2,15.11-.13,3.31-.28,6.64-.43,9.91-1.07Z"/>
  <path class="cls-119" d="M910.61,676.74c4.27.09,8.52.61,12.78.92,1.45.35,2.89.79,4.34,1.25-.06,2.58-.12,5.16-.25,7.75-.22,1.53-.49,3.05-.7,4.6-6.11.19-11.42-3.35-17.45-3.67.19-3.65.52-7.28,1.28-10.85ZM911.86,678.85c-.43,2.52-.86,5.05-1.25,7.59,5.15.33,9.83,2.64,14.83,3.62.24-3.27,1.46-6.79.07-9.95-4.29-1.84-9.1-1.33-13.65-1.26Z"/>
  <path class="cls-55" d="M778.46,678.99l.76.22c9.77,3.33,20.63,2.44,30.04,6.89-.98.85-1.66,2.6-3.24,2.19-7.68-.56-15.09-3.47-22.88-2.93-1.23-.22-2.47-.43-3.7-.61-.56-1.88-.87-3.82-.98-5.76Z"/>
  <path class="cls-111" d="M779.22,679.21c.65-.13,1.94-.39,2.59-.52,7.72,1.09,15.37,2.61,23.04,4.03,1.26.27,2.69.36,3.63,1.37,1.91,1.28.94,3.78,1.04,5.69-8.93-.17-17.82-1.96-26.38-4.42,7.79-.54,15.2,2.37,22.88,2.93,1.58.41,2.26-1.34,3.24-2.19-9.41-4.45-20.27-3.56-30.04-6.89Z"/>
  <path class="cls-113" d="M911.86,678.85c4.55-.07,9.36-.58,13.65,1.26,1.39,3.16.17,6.68-.07,9.95-5-.98-9.68-3.29-14.83-3.62.39-2.54.82-5.07,1.25-7.59Z"/>
  <path class="cls-4" d="M959.11,682.11c5.29-.04,10.58.64,15.84,1.25-.28,6.92-.25,13.84-.21,20.76l-.08,1.84-.04.95h-1.01c-5.73.08-11.4-.79-17.09-1.26-.01-7.53.63-15.04,1.31-22.53.32-.25.96-.75,1.28-1.01ZM958.76,683.81c.05,6.98-.47,13.94-1.09,20.89,5.28.11,10.55.48,15.81,1.05.25-7.22.22-14.45.06-21.67-4.92-.2-9.85-.29-14.78-.27Z"/>
  <path class="cls-7" d="M958.76,683.81c4.93-.02,9.86.07,14.78.27.16,7.22.19,14.45-.06,21.67-5.26-.57-10.53-.94-15.81-1.05.62-6.95,1.14-13.91,1.09-20.89Z"/>
  <path class="cls-60" d="M984.87,683.87c5.18-.48,10.37.4,15.49,1.1,1.52,1.16,1.17,3.17,1.28,4.86,0,6.05.06,12.1-.09,18.15-5.86,1.39-11.96-.26-17.91-.21-.07-7.55-.1-15.11.17-22.64.27-.32.8-.95,1.06-1.26ZM985.65,684.94c-.55,7.24-.96,14.51-.83,21.78,5.12.23,10.24.2,15.36.12-.48-6.93.41-13.89-.49-20.8-4.68-.43-9.35-.84-14.04-1.1Z"/>
  <path class="cls-76" d="M985.65,684.94c4.69.26,9.36.67,14.04,1.1.9,6.91.01,13.87.49,20.8-5.12.08-10.24.11-15.36-.12-.13-7.27.28-14.54.83-21.78Z"/>
  <path class="cls-19" d="M1011.64,685.75c5.62-.19,11.25.03,16.85.49.46,7.7-.12,15.42.29,23.13-6.05.5-12.09-.77-18.15-.42.16-7.73-.54-15.57,1.01-23.2ZM1012.72,686.87c.01,6.87-1.61,13.76-.67,20.59,4.86.89,9.84.28,14.76.41.25-6.63.47-13.27.56-19.9-4.82-1.01-9.75-1.2-14.65-1.1Z"/>
  <path class="cls-48" d="M754.42,686.78c8.02-.33,15.66,2.57,23.5,3.81,22.91,4.02,45.89,7.67,68.89,11.14,14.6,2.39,29.36,3.74,43.88,6.55-7.19,1.4-14.33-.88-21.45-1.71-29.31-3.84-58.46-8.84-87.63-13.61-8.68-1.29-17.06-4.18-25.83-4.96.39,1.45.79,2.92,1.18,4.39,6.6,1.36,13.27,2.32,19.87,3.64-.58.31-1.75.94-2.34,1.26-6.13-1.2-12.43-1.81-18.4-3.67-1-1.39-1.41-3.08-1.87-4.68l.2-2.16Z"/>
  <path class="cls-90" d="M1012.72,686.87c4.9-.1,9.83.09,14.65,1.1-.09,6.63-.31,13.27-.56,19.9-4.92-.13-9.9.48-14.76-.41-.94-6.83.68-13.72.67-20.59Z"/>
  <path class="cls-90" d="M1131.58,693.29c3.92-.12,7.86-.09,11.74.59.41,6.64.37,13.28.27,19.93-4.02.01-8.03-.06-12.04-.2-.97-6.74-.28-13.56.03-20.32Z"/>
  <path class="cls-34" d="M1039.01,686.67c4.7,1.05,9.55.84,14.31,1.43.3.26.91.77,1.22,1.03.34,5.58-.02,11.2.14,16.8-.17,1.67.49,3.84-1.27,4.88-4.45.38-8.92-.05-13.37-.28-.65-.27-1.94-.81-2.59-1.09.48-3.43.4-6.9.46-10.34.2-4.16.22-8.35,1.1-12.43ZM1039.66,688.9c.02,6.59,0,13.18.03,19.77,4.31.28,8.62.7,12.93,1.07,1.05-6.54.7-13.19.55-19.78-4.45-.89-8.99-1.09-13.51-1.06Z"/>
  <path class="cls-21" d="M755.78,688c8.77.78,17.15,3.67,25.83,4.96,29.17,4.77,58.32,9.77,87.63,13.61,7.12.83,14.26,3.11,21.45,1.71l.7.04c4.61,3.07,10.45,2.2,15.65,3.32,12.65,2.28,26.02,1.75,38.03,6.82-8.01.39-15.86-1.49-23.79-2.28-15.49-1.57-30.9-3.9-46.36-5.78-5.83-.76-11.74-2.46-17.59-.91-21.61-2.07-43.04-5.66-64.48-9-2.62-.46-5.23-.88-7.86-1.18-3.49-.73-6.98-1.44-10.5-2.02.59-.32,1.76-.95,2.34-1.26-6.6-1.32-13.27-2.28-19.87-3.64-.39-1.47-.79-2.94-1.18-4.39Z"/>
  <path class="cls-81" d="M1246.7,688.16c.39-.02,1.15-.06,1.54-.07,3.02,1.85,6.69.94,10.03.99.35,5.76.55,11.53.85,17.3-3.32.57-6.66,1.01-10.01,1.3-.47-6.54-.55-13.18-2.41-19.52Z"/>
  <path class="cls-83" d="M1248.24,688.09c1.71-.14,3.44-.28,5.18-.44,1.98-.18,3.99-.24,6-.03.09,6.66,1.47,13.25,1.14,19.91-3.55.63-7.1,1.2-10.67,1.53-.52-.04-1.57-.12-2.09-.16-.35-3.43-.61-6.85-.95-10.26-.12-1.42-.23-2.82-.33-4.21-.1-1.6-.26-3.19-.38-4.77.14-.38.42-1.12.56-1.5,1.86,6.34,1.94,12.98,2.41,19.52,3.35-.29,6.69-.73,10.01-1.3-.3-5.77-.5-11.54-.85-17.3-3.34-.05-7.01.86-10.03-.99Z"/>
  <path class="cls-120" d="M1039.66,688.9c4.52-.03,9.06.17,13.51,1.06.15,6.59.5,13.24-.55,19.78-4.31-.37-8.62-.79-12.93-1.07-.03-6.59-.01-13.18-.03-19.77Z"/>
  <path class="cls-114" d="M1229.48,690.68c3.88-.8,7.91-1.25,11.87-.74.29.3.88.89,1.17,1.19.21,3.34.18,6.69.62,10.02.2,2.62.41,5.24.61,7.87-3.33,1.17-6.83,1.73-10.34,1.94-.76.04-2.3.13-3.07.17-.21-1.82-.42-3.62-.52-5.43-.12-2.52-.19-5.04-.29-7.56-.06-2.49-.04-4.98-.05-7.46ZM1230.76,691.96c-.11,5.92.32,11.85,1.13,17.72,3.3-.37,6.6-.71,9.92-1.01-.11-5.99.32-12.08-1.05-17.95-3.36.23-6.7.65-10,1.24Z"/>
  <path class="cls-15" d="M1087.74,690.89c4.63-.02,9.38-.4,13.88.95.02,7.35.28,14.7.03,22.05-4.68-.31-9.6.77-14.08-.94.1-7.36,0-14.71.17-22.06ZM1088.92,692c.14,6.64-.08,13.28-.21,19.92,3.93.45,7.88.73,11.84.87.2-6.6,0-13.2-.19-19.79-3.79-.55-7.61-.9-11.44-1Z"/>
  <path class="cls-126" d="M1219.85,690.98c1.3-.07,2.62-.14,3.94-.2.77,5.09.9,10.25.94,15.39.01,1.85.03,3.71,0,5.57-4.32.21-8.66.48-12.96,0-.3-6.66.05-13.33-.22-19.99,2.76-.26,5.53-.56,8.3-.76ZM1213.56,692.97c-.13,5.95-.85,11.92-.04,17.86,3.33.04,6.68-.03,10.03-.19.03-5.98-.77-11.92-1.02-17.88-2.99.04-5.98.1-8.97.21Z"/>
  <path class="cls-118" d="M1230.76,691.96c3.3-.59,6.64-1.01,10-1.24,1.37,5.87.94,11.96,1.05,17.95-3.32.3-6.62.64-9.92,1.01-.81-5.87-1.24-11.8-1.13-17.72Z"/>
  <path class="cls-118" d="M1151.61,693.99c3.85.37,8.6-1.31,11.84,1.19.49,5.84.1,11.73.15,17.59-3.98.12-7.95.13-11.92.09-.03-6.29-.12-12.58-.07-18.87Z"/>
  <path class="cls-33" d="M1088.92,692c3.83.1,7.65.45,11.44,1,.19,6.59.39,13.19.19,19.79-3.96-.14-7.91-.42-11.84-.87.13-6.64.35-13.28.21-19.92Z"/>
  <path class="cls-58" d="M1109.13,691.48c3.59-.19,7.2-.16,10.8.12,2.35-.16,2.26,2.59,2.47,4.25.29,6.27.54,12.57.04,18.83-2.95.2-5.91.19-8.86.13-1.51-.37-1.13-.37-4.14-.76-1.06-7.45-.05-15.06-.31-22.57ZM1110.66,692.88c-.02,6.64-.03,13.27,0,19.91,3.41.22,6.83.49,10.23.89,1.6-6.85-.3-13.85-.37-20.76-3.29-.06-6.57-.07-9.86-.04Z"/>
  <path class="cls-44" d="M1130.44,691.84c4.61.5,9.88-1.15,14.03,1.33.3,2.46.21,4.96.31,7.44-.02,4.76-.02,9.51-.14,14.27-1.74.04-3.48.1-5.2.09-3.21-.1-6.42-.07-9.61-.3-.08-7.59-.83-15.34.61-22.83ZM1131.58,693.29c-.31,6.76-1,13.58-.03,20.32,4.01.14,8.02.21,12.04.2.1-6.65.14-13.29-.27-19.93-3.88-.68-7.82-.71-11.74-.59Z"/>
  <path class="cls-35" d="M1191.08,694.26c.35-1.65,2.14-2,3.57-2.17,3.38-.38,6.79-.14,10.19-.23,1.5,6.58.52,13.42.93,20.11-4.06,1.48-8.53.9-12.74.66,3.47-2.18,7.73-1.66,11.63-1.89-.18-5.86-.63-11.71-1.18-17.54-3.59.2-7.18.48-10.75.81-.13,6.29.02,12.58-.19,18.87h-1.89c.23-6.2-.15-12.44.43-18.62Z"/>
  <path class="cls-89" d="M1110.66,692.88c3.29-.03,6.57-.02,9.86.04.07,6.91,1.97,13.91.37,20.76-3.4-.4-6.82-.67-10.23-.89-.03-6.64-.02-13.27,0-19.91Z"/>
  <path class="cls-89" d="M1192.73,694.01c3.57-.33,7.16-.61,10.75-.81.55,5.83,1,11.68,1.18,17.54-3.9.23-8.16-.29-11.63,1.89l-.49.25c.21-6.29.06-12.58.19-18.87Z"/>
  <path class="cls-89" d="M1044.12,739.09c1.17-.18,2.37-.21,3.56-.09,1.15,5.54,1.18,11.28.02,16.82-4.24.26-8.49.18-12.71-.27-.44-5.04-.39-10.1.05-15.14,3.03-.37,6.05-.85,9.08-1.32Z"/>
  <path class="cls-61" d="M1149.66,692.94c4.55,0,9.13-.4,13.67.12,2.17,1.37,1.17,4.3,1.61,6.45-.13,4.77.08,9.54,0,14.31-4.79.25-9.59.39-14.37.62-.17-4.6-.23-9.21-.47-13.8-.1-2.58-.29-5.14-.44-7.7ZM1151.61,693.99c-.05,6.29.04,12.58.07,18.87,3.97.04,7.94.03,11.92-.09-.05-5.86.34-11.75-.15-17.59-3.24-2.5-7.99-.82-11.84-1.19Z"/>
  <path class="cls-74" d="M1170.73,692.98c4.53-.21,9.08-.27,13.62.08.46,5.67.19,11.37.37,17.06.05.85.13,2.54.17,3.39-4.45.47-8.94.39-13.4.35l-.07-.85c-.04-4.19-.09-8.38-.37-12.56.22-1.69.59-3.36.95-5.01,1.08,5.48.61,11.08.68,16.63,3.57.14,7.15.12,10.73-.09-.3-6.01-.42-12.01-.7-18.01-4.03.02-8.06.25-12.04.83.01-.45.04-1.36.06-1.82Z"/>
  <path class="cls-63" d="M1213.56,692.97c2.99-.11,5.98-.17,8.97-.21.25,5.96,1.05,11.9,1.02,17.88-3.35.16-6.7.23-10.03.19-.81-5.94-.09-11.91.04-17.86Z"/>
  <path class="cls-103" d="M1170.67,694.8c3.98-.58,8.01-.81,12.04-.83.28,6,.4,12,.7,18.01-3.58.21-7.16.23-10.73.09-.07-5.55.4-11.15-.68-16.63-.36,1.65-.73,3.32-.95,5.01l-.11.81c-.1-2.16-.26-4.31-.27-6.46Z"/>
  <path class="cls-116" d="M1170.94,701.26l.11-.81c.28,4.18.33,8.37.37,12.56-.53-3.9-.72-7.83-.48-11.75Z"/>
  <path class="cls-77" d="M891.39,708.32c3.37.14,6.72.59,10.08.9,1.26.1,2.52.25,3.79.36,6.37,1.28,12.85,1.95,19.31,2.63,3.63.71,7.28,1.25,10.94,1.83,10.86,1.36,21.73,2.81,32.66,3.55,16.38,2,32.87,2.99,49.3,4.56,22.13,2,44.35,2.72,66.53,3.95-8.62,2.43-17.53.46-26.27.09-28.78-.76-57.4-4-86.07-6.36-8.67-.59-17.23-2.22-25.89-2.85.49,1.4.99,2.81,1.49,4.24-18.04-2.42-36.14-4.32-54.17-6.78-11.93-1.59-23.93-2.75-35.76-4.95,5.85-1.55,11.76.15,17.59.91,15.46,1.88,30.87,4.21,46.36,5.78,7.93.79,15.78,2.67,23.79,2.28-12.01-5.07-25.38-4.54-38.03-6.82-5.2-1.12-11.04-.25-15.65-3.32Z"/>
  <path class="cls-37" d="M1270.84,720.29c1.84-.25,3.7-.51,5.56-.75,1.55.12,3.1.29,4.66.49-5.31,1.84-10.96,2.01-16.46,2.87-15.9,2.14-31.86,3.87-47.86,5.06-18.33.96-36.68,1.33-55.03,1.32-17.44-.18-34.91.32-52.32-.84-8.34-.54-16.74.13-25.04-1.06,2.8-.64,5.65-1.08,8.53-1.07,10.58.68,21.19.62,31.78.95,33.34,1.28,66.74.67,100.02-1.48,14.46-1.39,28.92-2.91,43.27-5.18.95-.1,1.92-.2,2.89-.31Z"/>
  <path class="cls-107" d="M943.42,726.69c.3-2.62,2.65-3.99,4.61-5.32,4.53,1.01,9.1,1.85,13.71,2.38l-.28.92c-4,.44-7.87-.95-11.83-1.15-2.88-.25-5.26,2.59-4.95,5.38.21,4.02,2.64,7.47,3.46,11.37-3.16-3.78-5.56-8.52-4.72-13.58Z"/>
  <path class="cls-110" d="M944.68,728.9c-.31-2.79,2.07-5.63,4.95-5.38,3.96.2,7.83,1.59,11.83,1.15-.25.89-.5,1.8-.72,2.72,3.4.6,6.84.97,10.29,1.2.73.9,1.46,1.81,2.19,2.73.52-.75,1.05-1.5,1.58-2.23,3.84,2,8.17,2.55,12.42,1.77,4.07,3.23,9.29,3.37,14.16,2.37,7.55.51,15,2.94,22.64,2.54,7.16-.87,14.21,1.24,21.35,1.45,4.57-.01,8.69,2.3,13.18,2.74-.17,5.09-1.02,10.23-.27,15.32.13,2,1.88,3.22,3.2,4.51-5.58-.25-11.14-1.11-16.74-.97-8.12.15-16.18-1.07-24.27-1.57.74-.11,2.21-.33,2.94-.44l.12-.98c.4-5.97.69-11.96.26-17.93-4.95-.97-10-1.02-15.02-1.22-.42-.02-1.25-.07-1.66-.09-.77,6.53-.97,13.16.17,19.67-9.89-.33-19.71-1.71-29.59-2.18-5.33-.08-10.23-2.82-15.58-2.48h0c-4.69-3.37-10.69-6.44-13.97-11.33-.82-3.9-3.25-7.35-3.46-11.37ZM983.13,735.32c-.65,5.82-.47,11.7-.42,17.55,4.88,1.49,10.52,1.69,15.39.52,1.16-5.58.43-11.61.55-17.35-1.32-.22-2.64-.4-3.95-.53-2.7-.35-5.42-.55-8.12-.77-1.16.14-2.31.34-3.45.58ZM1033.71,738.88c.07,5.58-.42,11.17.05,16.74.29.26.88.78,1.17,1.05,4.52.56,9.11.75,13.66.38,1.59-4.56.98-9.45,1.03-14.17.18-1.63-.51-3.1-1.94-3.88-1.19-.12-2.39-.09-3.56.09-3.47-.27-6.94-.24-10.41-.21Z"/>
  <path class="cls-97" d="M1198.79,740.91c3.18-.09,6.36-.08,9.55.03.33,4.33.61,8.67.82,13.01-3.33.57-6.7.73-10.07.58-.3-4.54-.37-9.08-.3-13.62Z"/>
  <path class="cls-105" d="M961.74,723.75c13.2,1.15,26.33,3.02,39.5,4.46,18.73,2.38,37.55,3.73,56.35,5.43,14.04.57,27.99,2.78,42.07,2.56,3.06-.01,6.12.21,9.18.42-5.71.46-11.96-1.31-17.3,1.2-.71,2.61-1.05,5.3-1.47,7.98-.96-2.44-1.94-4.86-2.89-7.29-3.97-1.58-7.89-.04-11.67,1.23-5.65-.57-11.42-1.58-16.96.22-4.49-.44-8.61-2.75-13.18-2.74-7.14-.21-14.19-2.32-21.35-1.45-7.64.4-15.09-2.03-22.64-2.54-4.87,1-10.09.86-14.16-2.37-4.25.78-8.58.23-12.42-1.77-.53.73-1.06,1.48-1.58,2.23-.73-.92-1.46-1.83-2.19-2.73-3.45-.23-6.89-.6-10.29-1.2.22-.92.47-1.83.72-2.72l.28-.92Z"/>
  <path class="cls-99" d="M1243.36,730.35c9.4-1.02,18.74-2.69,28.21-2.94-.06,2.89-.14,5.78-.07,8.68-.2-2.54-.66-5.05-1.16-7.53-.69,7.01-.64,14.24.67,21.18.4,0,1.19-.03,1.58-.04,2.11-.09,4.22-.2,6.34-.34-.37.2-1.11.59-1.48.79-.28.14-.85.43-1.14.57-15.69,3.02-31.58,4.63-47.44,6.51-1.91-.06-3.82-.21-5.71-.34,8-3.31,16.92-1.37,25.04-4.26.24-1.52.5-3.03.76-4.53.77.96,1.55,1.93,2.33,2.92-2.81-5.37-2.49-11.61-4.6-17.2-4.3.1-8.58.58-12.79,1.44-.98,6.33-.65,12.74-.11,19.1-4.69-3.36-3.27-9.46-4.09-14.37-.26-1.22-.46-3.1-1.97-3.3-3.83-.83-7.88-.28-11.6.79-1.67.24-1.5,2.09-1.64,3.35-.27,5.11.06,10.24-.12,15.36,2.9.41,5.78.97,8.67,1.52-4.18.4-8.34.96-12.52,1.17.42-.21,1.26-.63,1.68-.85,0-.34,0-1.02,0-1.36-.19-5.85-.26-11.7-.66-17.53-.44,0-1.32.01-1.76.01-4.09.02-8.18.14-12.26.11h-.77c-1.87,3.6-1.28,7.8-1.23,11.7-.01,2.62.57,5.23,1.99,7.47-2.56.19-5.13.26-7.69.32,3.37-2.62,3.09-7.1,2.99-10.92-.18-2.49-.01-5.42-2.18-7.12-3.69-.19-7.39-.29-11.08,0,3.52-.5,7.08-.66,10.62-1.09-3.83-.86-7.96-1.23-11.71.18-1.39.51-2.35,1.85-2.42,3.34-.5,4.56.23,9.13.68,13.67.37-.52,1.1-1.55,1.47-2.06.08.54.26,1.63.34,2.18-.62.64-1.24,1.3-1.84,1.96.4.07,1.2.21,1.6.27,2.18.46,4.35.99,6.57,1.36-7.36.47-14.74.45-22.11.61-.26-7.8.13-15.6-.04-23.4l-.03-1.13c13.6-1.49,27.31-1.37,40.92-2.78,13.31-.49,26.51-2.38,39.77-3.47ZM1251.66,733.92c-.26,5.7.02,11.43,1.14,17.04-1.07.64-2.12,1.28-3.17,1.94,6.58-.35,12.98-1.96,19.48-2.83-1.03-1.58-2.46-3.11-2.35-5.11-.17-4.34-.15-8.72-1.28-12.95-4.69-.11-9.4.3-13.82,1.91Z"/>
  <path class="cls-75" d="M896.81,727.78c2.94.15,5.86.65,8.76,1.17,1.13,3.61,1.53,7.53.06,11.12-3.22-.26-6.89.48-9.65-1.6-1.29-3.44-.48-7.37.83-10.69ZM897.3,729.49c-.4,2.76-.63,5.55-.69,8.35,2.65.46,5.31.85,7.99,1.16.1-3.01.1-6.02.05-9.03-2.46-.19-4.9-.36-7.35-.48Z"/>
  <path class="cls-121" d="M897.3,729.49c2.45.12,4.89.29,7.35.48.05,3.01.05,6.02-.05,9.03-2.68-.31-5.34-.7-7.99-1.16.06-2.8.29-5.59.69-8.35Z"/>
  <path class="cls-92" d="M1271.01,749.74c-1.31-6.94-1.36-14.17-.67-21.18.5,2.48.96,4.99,1.16,7.53.12,4.55.45,9.09,1.09,13.61-.39.01-1.18.03-1.58.04Z"/>
  <path class="cls-68" d="M1233.9,735.26c4.21-.86,8.49-1.34,12.79-1.44,2.11,5.59,1.79,11.83,4.6,17.2-.78-.99-1.56-1.96-2.33-2.92-.26,1.5-.52,3.01-.76,4.53-8.12,2.89-17.04.95-25.04,4.26,1.89.13,3.8.28,5.71.34-1.95.18-3.89.36-5.83.48-2.89-.55-5.77-1.11-8.67-1.52.18-5.12-.15-10.25.12-15.36.14-1.26-.03-3.11,1.64-3.35,3.72-1.07,7.77-1.62,11.6-.79,1.51.2,1.71,2.08,1.97,3.3.82,4.91-.6,11.01,4.09,14.37-.54-6.36-.87-12.77.11-19.1ZM1234.91,737.25c.08,5.21.71,10.41.99,15.63,3.58-.16,7.13-.77,10.69-1.25.06-4.26.15-8.51-.02-12.76-.13-1.2-.04-3.67-1.91-3.27-3.15.42-7.28-.32-9.75,1.65ZM1215.6,738.8c.19,5.37.7,10.72,1.19,16.07,3.97.15,7.96-.13,11.86-.97-.03-5.37.27-10.8-.87-16.08-4.08-.04-8.21-.11-12.18.98Z"/>
  <path class="cls-36" d="M983.13,735.32c1.14-.24,2.29-.44,3.45-.58-3.34,5.07-2.39,11.42-2.46,17.18,4.01.53,8.11,1.25,12.15.57,1.26-.67.84-2.44,1.15-3.6.26-3.92.06-7.84.03-11.76-3.4-.14-6.81-.37-10.18-.8,2.45-.45,4.92-.8,7.43-.82,1.31.13,2.63.31,3.95.53-.12,5.74.61,11.77-.55,17.35-4.87,1.17-10.51.97-15.39-.52-.05-5.85-.23-11.73.42-17.55Z"/>
  <path class="cls-66" d="M986.58,734.74c2.7.22,5.42.42,8.12.77-2.51.02-4.98.37-7.43.82,3.37.43,6.78.66,10.18.8.03,3.92.23,7.84-.03,11.76-.31,1.16.11,2.93-1.15,3.6-4.04.68-8.14-.04-12.15-.57.07-5.76-.88-12.11,2.46-17.18Z"/>
  <path class="cls-5" d="M1254.79,735.78c2.84-.54,5.72-.87,8.63-1,.18,4.31.3,8.63.19,12.95-2.65.5-5.32.91-8,1.21-.81-4.34-.94-8.76-.82-13.16Z"/>
  <path class="cls-91" d="M1007.11,736.59c.41.02,1.24.07,1.66.09-1.24,5.87-1.32,11.94-.64,17.9,5.07.99,10.24,1.25,15.4,1.25l-.12.98c-.73.11-2.2.33-2.94.44-4.4-.24-8.79-.75-13.19-.99-1.14-6.51-.94-13.14-.17-19.67Z"/>
  <path class="cls-29" d="M1075.51,739.74c3.78-1.27,7.7-2.81,11.67-1.23.95,2.43,1.93,4.85,2.89,7.29.42-2.68.76-5.37,1.47-7.98l1.02.02.05.9c1.33,8.57.6,14.75.76,22.13-5.86-.01-12.61-.32-18.45-.8,3.8-6.18,2.56-13.78.59-20.33Z"/>
  <path class="cls-10" d="M1236.78,737.86c2.58-.39,5.17-.72,7.77-.97.61,4.53.92,9.11.81,13.69-2.8.23-5.59.33-8.39.3-.18-4.34-.28-8.68-.19-13.02Z"/>
  <path class="cls-10" d="M1009.86,738.7c4.26-.2,8.53-.11,12.79.19-.07,5.04-.19,10.08-.24,15.13-4.28.18-8.56,0-12.82-.36-.29-4.99-.05-9.98.27-14.96Z"/>
  <path class="cls-129" d="M1215.6,738.8c3.97-1.09,8.1-1.02,12.18-.98,1.14,5.28.84,10.71.87,16.08-3.9.84-7.89,1.12-11.86.97-.49-5.35-1-10.7-1.19-16.07Z"/>
  <path class="cls-26" d="M1033.71,738.88c3.47-.03,6.94-.06,10.41.21-3.03.47-6.05.95-9.08,1.32-.44,5.04-.49,10.1-.05,15.14,4.22.45,8.47.53,12.71.27,1.16-5.54,1.13-11.28-.02-16.82,1.43.78,2.12,2.25,1.94,3.88-.05,4.72.56,9.61-1.03,14.17-4.55.37-9.14.18-13.66-.38-.29-.27-.88-.79-1.17-1.05-.47-5.57.02-11.16-.05-16.74Z"/>
  <path class="cls-24" d="M1178.45,739.8c3.75-1.41,7.88-1.04,11.71-.18-3.54.43-7.1.59-10.62,1.09-.37.15-1.13.45-1.51.6-.87,4.42-.35,8.99.15,13.44-.37.51-1.1,1.54-1.47,2.06-.45-4.54-1.18-9.11-.68-13.67.07-1.49,1.03-2.83,2.42-3.34Z"/>
  <path class="cls-82" d="M1195.51,750.96c-.05-3.9-.64-8.1,1.23-11.69h.77c-.06,5.51.05,11.04.31,16.56,4.24.14,8.48.09,12.73-.14.13-5.52-.15-11.05-.78-16.54.44,0,1.32-.01,1.76-.01.4,5.83.47,11.68.66,17.53-4.89.66-9.78,1.27-14.69,1.76-1.42-2.24-2-4.85-1.99-7.47Z"/>
  <path class="cls-130" d="M1059.86,740.69c5.27-.08,10.73-.56,15.83,1.1-.15,4.93.27,9.89-.31,14.8-.25.33-.75.98-.99,1.31-4.82.68-9.73.18-14.54-.26-.37-5.64-.25-11.31.01-16.95ZM1061.45,742.02c-.51,4.79-.13,9.6-.24,14.4,4.11.42,8.26.47,12.39.32.56-4.89,1.37-9.89.17-14.76-4.11-.04-8.21-.03-12.32.04Z"/>
  <path class="cls-57" d="M1178.03,741.31c.38-.15,1.14-.45,1.51-.6,3.69-.29,7.39-.19,11.08,0-.02,5.29.09,10.59-.01,15.89-4.03.17-8.06.3-12.09.33-.08-.55-.26-1.64-.34-2.18-.5-4.45-1.02-9.02-.15-13.44ZM1179.7,742.08c-.17,4.56-.11,9.13.22,13.69,3.12-.17,6.24-.56,9.31-1.21.05-4.15-.27-8.29-.74-12.4-2.94-.07-5.87-.1-8.79-.08Z"/>
  <path class="cls-2" d="M1190.62,740.71c2.17,1.7,2,4.63,2.18,7.12.1,3.82.38,8.3-2.99,10.92-3.85-.05-7.7.17-11.53.41-.4-.06-1.2-.2-1.6-.27.6-.66,1.22-1.32,1.84-1.96,4.03-.03,8.06-.16,12.09-.33.1-5.3-.01-10.6.01-15.89Z"/>
  <path class="cls-72" d="M1061.45,742.02c4.11-.07,8.21-.08,12.32-.04,1.2,4.87.39,9.87-.17,14.76-4.13.15-8.28.1-12.39-.32.11-4.8-.27-9.61.24-14.4Z"/>
  <path class="cls-30" d="M1179.7,742.08c2.92-.02,5.85.01,8.79.08.47,4.11.79,8.25.74,12.4-3.07.65-6.19,1.04-9.31,1.21-.33-4.56-.39-9.13-.22-13.69Z"/>
  <path class="cls-51" d="M1093.43,762.21c-7.01-.1-15.57-.25-22.57-.61-4.62-.31-9.23-.78-13.86-.55-23.11-.87-46.15-2.95-69.22-4.65-1.87-.12-3.73-.19-5.59-.28-6.9-.34-13.86-1.32-20.08-4.52,5.35-.34,10.25,2.4,15.58,2.48,9.88.47,19.7,1.85,29.59,2.18,4.4.24,8.79.75,13.19.99,8.09.5,16.15,1.72,24.27,1.57,5.6-.14,11.16.72,16.74.97,4.48.01,8.96-.06,13.44.28,5.84.48,12.59.79,18.45.8l.06,1.34Z"/>
  <path class="cls-43" d="M1402.01,754.44c12.26-.33,24.39,1.86,36.61,2.39,8.52.61,16.96-.66,25.41-1.46-6.4,4.3-14.34,5.03-21.78,6.04-13.95,1.74-28.05-2.05-41.89,1-11.8,2.48-23.54,5.98-35.7,6.14-10.34-.05-20.74-1.54-31.01.26-8.29,1.08-16.03,4.51-24.27,5.8-6.64,1.47-13.46,1.68-20.14,2.82,6.11.7,12.28.61,18.4,1.31,7.66.71,15.29,1.99,23.01,2.08,6.37.08,12.65-1.25,18.99-1.68,10.46-.8,20.74,1.7,31.11,2.55,11.78.89,23.56,2.13,35.39,1.49-5.81,2.66-12.3,2.83-18.51,3.77-12.05,1.06-24.16-.11-36.16-1.24-7.06-.57-13.98,1.17-20.94,1.94-10.06,1.03-20.22,1.88-30.3.65-12.15-1.41-24.32-3.01-36.58-2.62-7.17-.37-14.13,1.64-21.25,1.96,12-3.87,23.99-8.9,33.34-17.61,1.33-1.03,2.67-2.07,4.03-3.07,7.33-1.06,14.31-3.77,21.71-4.46,5.99-.66,11.97-1.37,17.96-2.13,13.26-1.8,26.68,1.81,39.91-.68,10.83-2.06,21.6-4.74,32.66-5.25Z"/>
  <path class="cls-85" d="M1197.5,758.43c4.91-.49,9.8-1.1,14.69-1.76,0,.34,0,1.02,0,1.36-.42.22-1.26.64-1.68.85-8.55.73-17.12,1.1-25.67,1.64-2.22-.37-4.39-.9-6.57-1.36,3.83-.24,7.68-.46,11.53-.41,2.56-.06,5.13-.13,7.69-.32Z"/>
  <path class="cls-73" d="M1213.92,792.45c9.57-.93,19.12-2.25,28.46-4.56-.3.66-.6,1.34-.88,2.02,2.91,1.74,4.89,4.47,4.66,7.97-4.94,2.87-9.92,5.68-15.03,8.22-.07.74-.14,1.49-.19,2.26-1.03.14-2.05.29-3.06.43-11.66-.64-23.35-1.04-34.96-2.43-11.15-1.41-22.43-1.7-33.62-.71-18.75,1.79-37.08,6.44-55.84,8.14-8.26,1.44-16.97.68-24.86,3.88-2.1.76-4.29,1.33-6.53,1.42-7.7.26-15.38-.69-22.94-2.12-4.62-1.05-8.98,1.33-13.51,1.79,1.21-.91,2.42-1.81,3.64-2.7-12.66-.15-25.38-.68-37.78-3.51-17.04-2.76-34.22-9.05-51.63-5.41,1.38-1.1,2.69-2.28,4-3.46-6.9-.07-13.92-.27-20.3-3.28,15.12-.8,30.22-1.95,45.36-2.26-.72-.56-1.44-1.12-2.14-1.66.65,0,1.96.01,2.62.01,4.48,1.63,9.28,1.06,13.94,1.05,5.81-.05,11.62-.23,17.43.09,7.56.49,15.13-.65,22.69.02,3.03.32,6.14.13,8.96-1.14,1.58-.19,3.17-.36,4.77-.46,1.79,0,3.59-.02,5.39-.05,18.52.44,37.06.78,55.58.17,18.89.16,37.78.21,56.66-.59,16.4-.23,32.82-1.12,49.11-3.13Z"/>
  <path class="cls-43" d="M754.22,799.91c10.89-5.9,23.34-8.16,35.55-9.27.84,2.89.64,6.99,3.88,8.4,4.53-.85,8.79-2.87,13.39-3.51,6.64.92,13.05-1.66,19.57-2.51-.36-.3-1.08-.89-1.44-1.18,3.61-.68,7.25-1.25,10.92-1.45,5.75.98,11.85-.31,17.66-.84.24-.02.48.02.69.12,1.96.97,3.75,2.89,5.81,3.57,15.04,6.95,30.52,13.41,46.92,16.34,15.89,2.59,31.79-1.07,47.26-4.43,17.41-3.64,34.59,2.65,51.63,5.41,12.4,2.83,25.12,3.36,37.78,3.51-1.22.89-2.43,1.79-3.64,2.7-8.29.53-16.43,2.75-24.77,2.41-18.25-.69-36.44-4.62-54.73-2.61-14.43,1.49-28.48,6.04-43.07,6.1-22.45,0-43.68-8.27-64.75-15.02-6.55-2.14-13.51-3.44-20.4-2.52-9.33.94-18.53,2.83-27.71,4.69-3.78.68-7.95,1.73-11.54-.24-5.4-2.8-10.74-5.88-16.7-7.39-7.26-2.15-14.89-1.29-22.31-2.28Z"/>
  <path class="cls-43" d="M1159.46,805.55c11.19-.99,22.47-.7,33.62.71,11.61,1.39,23.3,1.79,34.96,2.43,9.93.98,19.89.01,29.77-.91,10.37-1.03,20.72-3.09,31.19-2.4,12.68.65,25.28,2.55,37.97,3.08,6.79.33,13.56-.63,20.35-.2-6.43,3.52-13.74,4.84-20.96,5.45-11.59,1.63-23.26.11-34.88-.02-12.38-.1-24.57,2.35-36.74,4.25-21.23,3.19-42.61-.42-63.73-2.66-27.46-1.87-54.14,8.25-81.6,6.41-10.27-.88-20.62-1.58-30.65-4.12,7.89-3.2,16.6-2.44,24.86-3.88,18.76-1.7,37.09-6.35,55.84-8.14Z"/>
  <path class="cls-31" d="M832.28,794.04c5.61-.61,11.29-.86,16.89-.01l.87.38c-5.92.5-11.89.63-17.76-.37Z"/>
  <path class="cls-95" d="M849.17,792.86c7.13-.63,14.19.58,21.27,1.19,4.84.63,9.67,1.31,14.48,2.13-5.35,1.65-10.87,0-16.28-.37-4.06-.45-8.14-.35-12.2-.09-2.18-.71-4.31-1.58-6.4-2.48l-.87-.38Z"/>
  <path class="cls-50" d="M816.01,796.21c1.79-.21,3.57-.47,5.35-.72.36.29,1.08.88,1.44,1.18-6.52.85-12.93,3.43-19.57,2.51,3.55-.86,7.08-1.81,10.63-2.69.54-.07,1.61-.21,2.15-.28Z"/>
  <path class="cls-112" d="M856.44,795.01c4.06-.26,8.14-.36,12.2.09,5.41.36,10.93,2.02,16.28.37,1.01.04,2.02.08,3.03.13-.59.22-1.78.67-2.37.89,16.1,2.7,32.46,3.16,48.74,3.69,6.38,3.01,13.4,3.21,20.3,3.28-1.31,1.18-2.62,2.36-4,3.46-15.47,3.36-31.37,7.02-47.26,4.43-16.4-2.93-31.88-9.39-46.92-16.34Z"/>
  <path class="cls-122" d="M1053.34,797.66c9.71-1.47,19.53-.53,29.3-.78,8.76.24,17.59-.51,26.28.95-18.52.61-37.06.27-55.58-.17Z"/>
  <path class="cls-62" d="M980.16,798.15c5.82-.36,11.65-.3,17.48-.27,15.18.14,30.37-.31,45.54.29-2.82,1.27-5.93,1.46-8.96,1.14-7.56-.67-15.13.47-22.69-.02-5.81-.32-11.62-.14-17.43-.09-4.66.01-9.46.58-13.94-1.05Z"/>
  <path class="cls-64" d="M1310.61,853.91c5.72-.06,11.45-.32,17.18-.03,3.84.05,7.18,2.3,10.92,2.96,12.51,2.51,24.77,6.45,37.53,7.6,9.04,1.49,18.26,1.33,27.37.58,4.68-.11,9.43-1.09,14.07.04-9.65,5.43-20.92,6.88-31.76,8.13-8.84,2.15-18.04,1.45-26.96.28-4.85.74-9.3-1.69-14.05-2.08-6.03-1.1-12.19-.73-18.23-1.73-6.72-1.24-13.43.61-20.14,1.01-10.33,1.64-20.56,4.74-31.12,4.16-4.55,1.81-9.12-.65-13.76-.09-12.12.64-24.46.16-36.01-3.86-4.48-1.7-9.3-2.78-13.18-5.71,9.65-1.02,19.41.84,29.05-.7,5.03-1.01,10.27.64,15.24-.89,2.96-.98,6.11-.92,9.18-1.37,9.25-1.51,18.28-4.13,27.51-5.72,5.78-.5,11.33-2.61,17.16-2.58Z"/>
  <path class="cls-64" d="M1101.12,935.43c5.72-.06,11.45-.32,17.18-.03,3.84.05,7.18,2.3,10.92,2.96,12.51,2.51,24.77,6.45,37.53,7.6,9.04,1.49,18.26,1.33,27.37.58,4.68-.11,9.43-1.09,14.07.04-9.65,5.43-20.92,6.88-31.76,8.13-8.84,2.15-18.04,1.45-26.96.28-4.85.74-9.3-1.69-14.05-2.08-6.03-1.1-12.19-.73-18.23-1.73-6.72-1.24-13.43.61-20.14,1.01-10.33,1.64-20.56,4.74-31.12,4.16-4.55,1.81-9.12-.65-13.76-.09-12.12.64-24.46.16-36.01-3.86-4.48-1.7-9.3-2.78-13.18-5.71,9.65-1.02,19.41.84,29.05-.7,5.03-1.01,10.27.64,15.24-.89,2.96-.98,6.11-.92,9.18-1.37,9.25-1.51,18.28-4.13,27.51-5.72,5.78-.5,11.33-2.61,17.16-2.58Z"/>
  <path class="cls-64" d="M982.09,1016.56c5.72-.06,11.45-.32,17.18-.03,3.84.05,7.18,2.3,10.92,2.96,12.51,2.51,24.77,6.45,37.53,7.6,9.04,1.49,18.26,1.33,27.37.58,4.68-.11,9.43-1.09,14.07.04-9.65,5.43-20.92,6.88-31.76,8.13-8.84,2.15-18.04,1.45-26.96.28-4.85.74-9.3-1.69-14.05-2.08-6.03-1.1-12.19-.73-18.23-1.73-6.72-1.24-13.43.61-20.14,1.01-10.33,1.64-20.56,4.74-31.12,4.16-4.55,1.81-9.12-.65-13.76-.09-12.12.64-24.46.16-36.01-3.86-4.48-1.7-9.3-2.78-13.18-5.71,9.65-1.02,19.41.84,29.05-.7,5.03-1.01,10.27.64,15.24-.89,2.96-.98,6.11-.92,9.18-1.37,9.25-1.51,18.28-4.13,27.51-5.72,5.78-.5,11.33-2.61,17.16-2.58Z"/>
  <path class="cls-64" d="M1310.61,993.43c5.72-.06,11.45-.32,17.18-.03,3.84.05,7.18,2.3,10.92,2.96,12.51,2.51,24.77,6.45,37.53,7.6,9.04,1.49,18.26,1.33,27.37.58,4.68-.11,9.43-1.09,14.07.04-9.65,5.43-20.92,6.88-31.76,8.13-8.84,2.15-18.04,1.45-26.96.28-4.85.74-9.3-1.69-14.05-2.08-6.03-1.1-12.19-.73-18.23-1.73-6.72-1.24-13.43.61-20.14,1.01-10.33,1.64-20.56,4.74-31.12,4.16-4.55,1.81-9.12-.65-13.76-.09-12.12.64-24.46.16-36.01-3.86-4.48-1.7-9.3-2.78-13.18-5.71,9.65-1.02,19.41.84,29.05-.7,5.03-1.01,10.27.64,15.24-.89,2.96-.98,6.11-.92,9.18-1.37,9.25-1.51,18.28-4.13,27.51-5.72,5.78-.5,11.33-2.61,17.16-2.58Z"/>
  <path class="cls-64" d="M1459.56,914.99c5.72-.06,11.45-.32,17.18-.03,3.84.05,7.18,2.3,10.92,2.96,12.51,2.51,24.77,6.45,37.53,7.6,9.04,1.49,18.26,1.33,27.37.58,4.68-.11,9.43-1.09,14.07.04-9.65,5.43-20.92,6.88-31.76,8.13-8.84,2.15-18.04,1.45-26.96.28-4.85.74-9.3-1.69-14.05-2.08-6.03-1.1-12.19-.73-18.23-1.73-6.72-1.24-13.43.61-20.14,1.01-10.33,1.64-20.56,4.74-31.12,4.16-4.55,1.81-9.12-.65-13.76-.09-12.12.64-24.46.16-36.01-3.86-4.48-1.7-9.3-2.78-13.18-5.71,9.65-1.02,19.41.84,29.05-.7,5.03-1.01,10.27.64,15.24-.89,2.96-.98,6.11-.92,9.18-1.37,9.25-1.51,18.28-4.13,27.51-5.72,5.78-.5,11.33-2.61,17.16-2.58Z"/>
  <path class="cls-64" d="M1595.06,810.08c5.72-.06,11.45-.32,17.18-.03,3.84.05,7.18,2.3,10.92,2.96,12.51,2.51,24.77,6.45,37.53,7.6,9.04,1.49,18.26,1.33,27.37.58,4.68-.11,9.43-1.09,14.07.04-9.65,5.43-20.92,6.88-31.76,8.13-8.84,2.15-18.04,1.45-26.96.28-4.85.74-9.3-1.69-14.05-2.08-6.03-1.1-12.19-.73-18.23-1.73-6.72-1.24-13.43.61-20.14,1.01-10.33,1.64-20.56,4.74-31.12,4.16-4.55,1.81-9.12-.65-13.76-.09-12.12.64-24.46.16-36.01-3.86-4.48-1.7-9.3-2.78-13.18-5.71,9.65-1.02,19.41.84,29.05-.7,5.03-1.01,10.27.64,15.24-.89,2.96-.98,6.11-.92,9.18-1.37,9.25-1.51,18.28-4.13,27.51-5.72,5.78-.5,11.33-2.61,17.16-2.58Z"/>
  <path class="cls-64" d="M1805.7,964.03c5.72-.06,11.45-.32,17.18-.03,3.84.05,7.18,2.3,10.92,2.96,12.51,2.51,24.77,6.45,37.53,7.6,9.04,1.49,18.26,1.33,27.37.58,4.68-.11,9.43-1.09,14.07.04-9.65,5.43-20.92,6.88-31.76,8.13-8.84,2.15-18.04,1.45-26.96.28-4.85.74-9.3-1.69-14.05-2.08-6.03-1.1-12.19-.73-18.23-1.73-6.72-1.24-13.43.61-20.14,1.01-10.33,1.64-20.56,4.74-31.12,4.16-4.55,1.81-9.12-.65-13.76-.09-12.12.64-24.46.16-36.01-3.86-4.48-1.7-9.3-2.78-13.18-5.71,9.65-1.02,19.41.84,29.05-.7,5.03-1.01,10.27.64,15.24-.89,2.96-.98,6.11-.92,9.18-1.37,9.25-1.51,18.28-4.13,27.51-5.72,5.78-.5,11.33-2.61,17.16-2.58Z"/>
  <path class="cls-64" d="M1717.62,883.61c5.72-.06,11.45-.32,17.18-.03,3.84.05,7.18,2.3,10.92,2.96,12.51,2.51,24.77,6.45,37.53,7.6,9.04,1.49,18.26,1.33,27.37.58,4.68-.11,9.43-1.09,14.07.04-9.65,5.43-20.92,6.88-31.76,8.13-8.84,2.15-18.04,1.45-26.96.28-4.85.74-9.3-1.69-14.05-2.08-6.03-1.1-12.19-.73-18.23-1.73-6.72-1.24-13.43.61-20.14,1.01-10.33,1.64-20.56,4.74-31.12,4.16-4.55,1.81-9.12-.65-13.76-.09-12.12.64-24.46.16-36.01-3.86-4.48-1.7-9.3-2.78-13.18-5.71,9.65-1.02,19.41.84,29.05-.7,5.03-1.01,10.27.64,15.24-.89,2.96-.98,6.11-.92,9.18-1.37,9.25-1.51,18.28-4.13,27.51-5.72,5.78-.5,11.33-2.61,17.16-2.58Z"/>
  <path class="cls-64" d="M1812.93,766.44c5.72-.06,11.45-.32,17.18-.03,3.84.05,7.18,2.3,10.92,2.96,12.51,2.51,24.77,6.45,37.53,7.6,9.04,1.49,18.26,1.33,27.37.58,4.68-.11,9.43-1.09,14.07.04-9.65,5.43-20.92,6.88-31.76,8.13-8.84,2.15-18.04,1.45-26.96.28-4.85.74-9.3-1.69-14.05-2.08-6.03-1.1-12.19-.73-18.23-1.73-6.72-1.24-13.43.61-20.14,1.01-10.33,1.64-20.56,4.74-31.12,4.16-4.55,1.81-9.12-.65-13.76-.09-12.12.64-24.46.16-36.01-3.86-4.48-1.7-9.3-2.78-13.18-5.71,9.65-1.02,19.41.84,29.05-.7,5.03-1.01,10.27.64,15.24-.89,2.96-.98,6.11-.92,9.18-1.37,9.25-1.51,18.28-4.13,27.51-5.72,5.78-.5,11.33-2.61,17.16-2.58Z"/>
  <path class="cls-64" d="M1637.53,1019.91c5.72-.06,11.45-.32,17.18-.03,3.84.05,7.18,2.3,10.92,2.96,12.51,2.51,24.77,6.45,37.53,7.6,9.04,1.49,18.26,1.33,27.37.58,4.68-.11,9.43-1.09,14.07.04-9.65,5.43-20.92,6.88-31.76,8.13-8.84,2.15-18.04,1.45-26.96.28-4.85.74-9.3-1.69-14.05-2.08-6.03-1.1-12.19-.73-18.23-1.73-6.72-1.24-13.43.61-20.14,1.01-10.33,1.64-20.56,4.74-31.12,4.16-4.55,1.81-9.12-.65-13.76-.09-12.12.64-24.46.16-36.01-3.86-4.48-1.7-9.3-2.78-13.18-5.71,9.65-1.02,19.41.84,29.05-.7,5.03-1.01,10.27.64,15.24-.89,2.96-.98,6.11-.92,9.18-1.37,9.25-1.51,18.28-4.13,27.51-5.72,5.78-.5,11.33-2.61,17.16-2.58Z"/>
  <path class="cls-64" d="M1595.06,725.72c5.72-.06,11.45-.32,17.18-.03,3.84.05,7.18,2.3,10.92,2.96,12.51,2.51,24.77,6.45,37.53,7.6,9.04,1.49,18.26,1.33,27.37.58,4.68-.11,9.43-1.09,14.07.04-9.65,5.43-20.92,6.88-31.76,8.13-8.84,2.15-18.04,1.45-26.96.28-4.85.74-9.3-1.69-14.05-2.08-6.03-1.1-12.19-.73-18.23-1.73-6.72-1.24-13.43.61-20.14,1.01-10.33,1.64-20.56,4.74-31.12,4.16-4.55,1.81-9.12-.65-13.76-.09-12.12.64-24.46.16-36.01-3.86-4.48-1.7-9.3-2.78-13.18-5.71,9.65-1.02,19.41.84,29.05-.7,5.03-1.01,10.27.64,15.24-.89,2.96-.98,6.11-.92,9.18-1.37,9.25-1.51,18.28-4.13,27.51-5.72,5.78-.5,11.33-2.61,17.16-2.58Z"/>
  <path class="cls-64" d="M1744.81,667.5c5.72-.06,11.45-.32,17.18-.03,3.84.05,7.18,2.3,10.92,2.96,12.51,2.51,24.77,6.45,37.53,7.6,9.04,1.49,18.26,1.33,27.37.58,4.68-.11,9.43-1.09,14.07.04-9.65,5.43-20.92,6.88-31.76,8.13-8.84,2.15-18.04,1.45-26.96.28-4.85.74-9.3-1.69-14.05-2.08-6.03-1.1-12.19-.73-18.23-1.73-6.72-1.24-13.43.61-20.14,1.01-10.33,1.64-20.56,4.74-31.12,4.16-4.55,1.81-9.12-.65-13.76-.09-12.12.64-24.46.16-36.01-3.86-4.48-1.7-9.3-2.78-13.18-5.71,9.65-1.02,19.41.84,29.05-.7,5.03-1.01,10.27.64,15.24-.89,2.96-.98,6.11-.92,9.18-1.37,9.25-1.51,18.28-4.13,27.51-5.72,5.78-.5,11.33-2.61,17.16-2.58Z"/>
  <path class="cls-64" d="M1017.41,862.53c8.43-1.17,16.59-3.7,24.97-5.15,11.58-1.35,23.4-.27,34.64,2.78,8.64,1.15,16.72,5.03,25.51,5.35,5.13.18,9.99,2.27,15.15,2.18,3.19-.04,6.39-.02,9.54.58,3.48.75,6.93-.51,10.43-.37,3.01.11,6.05-.97,9.02-.08-4.05,1.16-7.14,4.47-11.35,5.11-11.43,2.07-23.08,3.47-34.72,2.78-8.17-.18-16.54-.15-24.33-2.94-10.57-1.34-21.35-3.89-31.99-1.7-7.76,1.38-15.56,2.95-23.47,3.06-6.31-.47-12.59-1.59-18.94-1.42-5.72.26-11.3-1.18-16.85-2.34-3.88-.78-7.15-3.09-10.33-5.3,8.4-1.04,16.81,1.44,25.17-.12,5.88-.59,11.84-.71,17.55-2.42Z"/>
  <path class="cls-64" d="M843.19,880.65c5.15-.17,10.37-.48,15.45.65,6.88,1.48,14.05,1.17,20.82,3.21,6.37,1.99,12.87,3.51,19.28,5.34,4.57,1.45,9.44.24,14.08,1.34,9.3,1.69,18.69.18,28.02-.16-4.09,3.93-9.79,5.31-14.98,7.15-15.06,4.21-30.8,2.55-46.16,1.59-5.34-.59-10.46-2.92-15.92-2.38-5.03.65-10.67-1.86-14.95,1.8-.12-.43-.36-1.29-.49-1.72-6.14.13-12.05,1.87-18.06,2.91-6.67.67-13.38,1.78-20.11,1.15-4.26-.4-8.57.34-12.8-.42-9.29-1.36-18.75-1.89-27.82-4.44-4.95-.52-9.2-3.27-13.67-5.19.48-1.96,2.85-1.13,4.29-1.17,6.02.75,12.07.28,18.08-.2,6.92.45,13.68-1.33,20.52-2.1,9.6-1.28,19.16-2.94,28.5-5.52,5.18-1.46,10.59-1.52,15.92-1.84Z"/>
  <polygon class="cls-104" points="1031.57 622.21 1039.3 553.66 1031.8 552.38 1032.91 546.26 1041.6 546.77 1048.46 484.35 1022.22 484.35 1048.46 480.89 1054.11 439.53 1052.83 480.13 1075 484.47 1052.57 484.21 1050.54 547.28 1058.46 547.28 1058.14 553.91 1050.02 553.91 1050.53 622.97 1031.57 622.21"/>
  <path class="cls-22" d="M1286.53,769.41s-14.87,12.61-33.83,20.62c-24.08,10.18-215.3,9.1-215.3,9.1l-68.47-9.74-12.45-12.92s256.5,15.19,330.05-7.06Z"/>
  <path class="cls-56" d="M956.38,776.46l-178.11-11.01,12.35,36.61,59.33-8.66,83.46,5.9,176.97-.5-80.81-2.68s-64.96-10.92-73.04-19.59c-.04-.05-.1-.07-.16-.07Z"/>
  <path class="cls-69" d="M950.19,666.87l-56.51-2.84-1.82.88-1.54,2.77-.04,15.52,17.29,3.67,1.76-11.09,18.88,1.5-.57,14.25-3.47,1.52s5.44,7.94-.65,17.98c9.99,1.11,13.44,1.1,13.44,1.1l13.23-45.27Z"/>
  <path class="cls-14" d="M1291.29,754.51s-7.7,8.06-25.16,11.12-75.45,10.86-137.74,10.22-149.64-1.35-208.86-14.99l.42,5.74s33.77,7.29,36.52,9.87,226.94,18.42,329.26-6.44c4.03-3.07,4.28-4.43,4.28-4.43,0,0,2.79-1.23,1.27-11.09Z"/>
  <polygon class="cls-47" points="1091.47 775.43 1110.65 775.67 1110.65 736.22 1091.47 736.22 1091.47 775.43"/>
  <polygon class="cls-47" points="1146.67 775.81 1162.99 775.4 1162.99 736.66 1146.67 736.66 1146.67 775.81"/>
  <path class="cls-102" d="M1215.6,738.8c5.19-.98,8.09-.96,12.18-.98.63,5.49,1.8,11.35,1.67,16.87-4.25.23-8.49.28-12.73.14-.26-5.52-1.18-10.51-1.12-16.03ZM1217.69,739.91c-.07,4.54,0,9.08.3,13.62,3.37.15,6.74,0,10.07-.58-.21-4.34-.49-8.68-.82-13.01-3.19-.11-6.37-.12-9.55-.03Z"/>
</svg>