<?xml version="1.0" encoding="UTF-8"?>
<svg id="katman_1" data-name="katman 1" xmlns="http://www.w3.org/2000/svg" viewBox="0 0 1920 1080">
  <defs>
    <style>
      .cls-1 {
        fill: #f8eed5;
      }

      .cls-2 {
        fill: #e29957;
      }

      .cls-3 {
        fill: #ffe5b4;
      }

      .cls-4 {
        fill: #261c1a;
      }

      .cls-5 {
        fill: #ea9b58;
      }

      .cls-6 {
        fill: #1b4042;
      }

      .cls-7 {
        fill: #131e26;
      }

      .cls-8 {
        fill: #2b241b;
      }

      .cls-9 {
        fill: #ea8c4e;
      }

      .cls-10 {
        fill: #a55527;
      }

      .cls-11 {
        fill: #333f46;
      }

      .cls-12 {
        fill: #fdd9a7;
      }

      .cls-13 {
        fill: #f67a31;
      }

      .cls-14 {
        fill: #312218;
      }

      .cls-15 {
        fill: #f3742d;
      }

      .cls-16 {
        fill: #e29755;
      }

      .cls-17 {
        fill: #ac5625;
      }

      .cls-18 {
        fill: #a2815e;
      }

      .cls-19 {
        fill: #d17c49;
      }

      .cls-20 {
        fill: #fdd9a6;
      }

      .cls-21 {
        fill: #cd6124;
      }

      .cls-22 {
        fill: #ed5519;
      }

      .cls-23 {
        fill: #fdaf54;
      }

      .cls-24 {
        fill: #64351b;
      }

      .cls-25 {
        fill: #fdf4d8;
      }

      .cls-26 {
        fill: #fef3d5;
      }

      .cls-27 {
        fill: #e59b56;
      }

      .cls-28 {
        fill: #354044;
      }

      .cls-29 {
        fill: #f3ac5d;
      }

      .cls-30 {
        fill: #e49a56;
      }

      .cls-31 {
        fill: #fdd8a5;
      }

      .cls-32 {
        fill: #171310;
      }

      .cls-33 {
        fill: #e16823;
      }

      .cls-34 {
        fill: #210f12;
      }

      .cls-35 {
        fill: #fddaa7;
      }

      .cls-36 {
        fill: #0f0f31;
      }

      .cls-37 {
        fill: #e59b57;
      }

      .cls-38 {
        fill: #e69c58;
      }

      .cls-39 {
        fill: #305c6d;
      }

      .cls-40 {
        fill: #181311;
      }

      .cls-41 {
        fill: #111c24;
      }

      .cls-42 {
        fill: #fcf3db;
      }

      .cls-43 {
        fill: #17120f;
      }

      .cls-44 {
        fill: #222c2a;
      }

      .cls-45 {
        fill: #fef1d2;
      }

      .cls-46 {
        fill: #f2e9cf;
      }

      .cls-47 {
        fill: #3a4e44;
      }

      .cls-48 {
        fill: #1d130e;
      }

      .cls-49 {
        fill: #254342;
      }

      .cls-50 {
        fill: #4c2c18;
      }

      .cls-51 {
        fill: #483a37;
      }

      .cls-52 {
        fill: #ffb55c;
      }

      .cls-53 {
        fill: #312116;
      }

      .cls-54 {
        fill: #e49956;
      }

      .cls-55 {
        fill: #fee5b5;
      }

      .cls-56 {
        fill: #060709;
      }

      .cls-57 {
        fill: #d89055;
      }

      .cls-58 {
        fill: #fee4b4;
      }

      .cls-59 {
        fill: #e39957;
      }

      .cls-60 {
        fill: #f3742e;
      }

      .cls-61 {
        fill: #e49b58;
      }

      .cls-62 {
        fill: #181e1d;
      }

      .cls-63 {
        fill: #112948;
      }

      .cls-64 {
        fill: #472817;
      }

      .cls-65 {
        fill: #131b22;
      }

      .cls-66 {
        fill: #fee5b6;
      }

      .cls-67 {
        fill: #fcf0d1;
      }

      .cls-68 {
        fill: #6a381c;
      }

      .cls-69 {
        fill: #1f1916;
      }

      .cls-70 {
        fill: #252f2c;
      }

      .cls-71 {
        fill: #1a4041;
      }

      .cls-72 {
        fill: #00adb5;
      }

      .cls-73 {
        fill: #d07c4a;
      }

      .cls-74 {
        fill: #173e41;
      }

      .cls-75 {
        fill: #e49b57;
      }

      .cls-76 {
        fill: #3b4f44;
      }

      .cls-77 {
        fill: #f77627;
      }

      .cls-78 {
        fill: #161726;
      }

      .cls-79 {
        fill: #3c4e44;
      }

      .cls-80 {
        fill: #1b1922;
      }

      .cls-81 {
        fill: #e59a56;
      }

      .cls-82 {
        fill: #1a201f;
      }

      .cls-83 {
        fill: #18151f;
      }

      .cls-84 {
        fill: #2b201a;
      }
    </style>
  </defs>
  <path class="cls-73" d="M1920,823.26c-12.66.04-536.61-.08-549.27.11v-56.29c18.79.06,386.31,0,549.27,0v56.19Z"/>
  <path class="cls-10" d="M1920,934.27c-29.3.09-519.98-5.2-549.27-5.01v-105.89c10.65-.15,414.01-.11,549.27-.11v111.01Z"/>
  <path class="cls-68" d="M1920,964.54c-14.77.06-534.51-.22-549.27.09v-35.38c22.58-.15,375.34,3.41,549.27,5.01v30.28Z"/>
  <path class="cls-64" d="M1920,1079.99h-549.27v-115.35c12.24-.26,406.44-.11,549.27-.09v115.44Z"/>
  <rect class="cls-39" x="1275.11" y="629.84" width="644.89" height="137.23"/>
  <rect class="cls-52" width="1920" height="637.84"/>
  <path class="cls-21" d="M1080.95,609.62c5.48-1.19,11.33-3.96,16.88-1.62l.27-.41.31-.48c.67,4.57,1.61,9.13,1.59,13.77.24,6.67-1.21,13.21-1.92,19.81-.07-.95-.14-1.88-.22-2.81l-.62-.03c0,4.95-.48,9.92.02,14.87.2-.44.62-1.31.82-1.75.31,2.47.75,4.93,1.34,7.36.91,5.03,3.35,9.62,6.12,13.86,3.14,4.71,6.82,9.11,11.25,12.66,9.71,7.72,22.14,11.68,34.47,11.99-.37,1.68-.78,3.35-1.18,5.03-.1-.44-.28-1.32-.37-1.76-1.6,3.62-1.76,7.65-2.81,11.44-2.75,15.1-6.15,30.07-9.01,45.15-.3,2.11-1.74,4.55-.15,6.47-2.13,12.35-4.7,24.64-6.89,36.98-5.96,31.33-11.1,62.82-17.19,94.12-.31.08-.92.25-1.23.33-18.2-3.65-35.89-9.65-52.77-17.35-1.03-1.91.01-4.06.06-6.07.21-3.52.95-7.29-.56-10.62-.64-1.67-2.62-1.74-4.09-2.1,6.5-15.06,12.14-30.5,16.9-46.2,2.64-8.87,5.58-17.69,7.54-26.75-15.09-3.26-29.92-7.95-43.91-14.53-6.29-2.88-12.44-6.09-18.03-10.19-2.37-1.79-4.66-3.68-6.87-5.66,2.66-7.87,3.9-16.12,5.98-24.14,3.28-12.35,6.53-24.71,10.05-37,2.35-8.96,4.34-18.02,6.88-26.94,2.45-9.2,6.32-17.98,10.95-26.27,1.82-3.51,4.56-6.41,6.45-9.88,7.22-8.92,16.51-16.19,27.18-20.51.91-.26,1.82-.51,2.74-.76ZM1102.35,731.65c-3.99,12.42-7.87,24.86-11.88,37.26-1.5,5.28-3.66,10.38-4.84,15.74.96-.01,1.92-.02,2.88-.02,4.3-11.78,8.05-23.74,11.46-35.81,2.1-7.2,4.72-14.32,5.56-21.82-1.76.96-2.66,2.78-3.19,4.64Z"/>
  <path class="cls-31" d="M923.58,735.12c6.03-.67,9.93,7.57,5.76,11.88-2.86,3.82-9.3,3-11.25-1.29-2.53-4.21.46-10.4,5.49-10.58Z"/>
  <path class="cls-73" d="M0,767.07c23.65.07,603,0,626.64.04,1.27,4.5,3.04,8.85,4.23,13.37-1.26,5.77-3.49,11.33-5.33,16.96-.07-.41-.2-1.26-.27-1.68-2.63,6.56-4.42,13.45-6.78,20.12-.42,1.34-1.21,2.84-.35,4.2-.35,1.13-.7,2.28-1.07,3.42-7.78-.49-15.59-.15-23.39-.27-12.66.04-581.02-.06-593.68.12v-56.29Z"/>
  <path class="cls-53" d="M1083.93,395.44c6.28-1.05,12.63-1.67,19-1.84,4.42.32,8.88-.06,13.29.58,14.01,1.04,27.86,5.91,38.92,14.67,8.15,6.55,14.69,14.94,19.79,24.03-1.01,1.07.2,2.28.6,3.33,3.07,5.53,5.42,11.41,7.5,17.38.21-.22.63-.64.84-.85,3.98,10.34,6.74,21.16,8.02,32.16-1.25,1.38-.58,3.27-.41,4.91.91,5.3,1.31,10.68,2.22,15.99.31-.79.57-1.61.77-2.43,1.41,9.63,3.14,19.54,8.28,27.98,3.57,6.29,8.48,11.64,13.64,16.65,5.9,6.07,11.91,12.15,16.53,19.29,2.82,4.55,5.86,9.06,7.78,14.08-6.29,1.39-12.44,3.37-18.45,5.65-8.06,2.62-15.14,7.54-21.7,12.81-4.08,3.15-7.47,7.06-11.16,10.64-9.73,9.88-16.21,22.29-22.32,34.58-3.73,9.51-7.61,19.04-9.72,29.08-.93,4.08-2.7,7.94-3.16,12.13-.33,3.69-2.14,6.99-2.91,10.57-12.33-.32-24.76-4.27-34.47-11.99-4.43-3.55-8.11-7.95-11.25-12.66-2.77-4.24-5.21-8.83-6.12-13.86.98-1.84.2-3.87.06-5.8-.32-3.28-.1-6.57-.11-9.85-.07-7.33,2.1-14.48,1.94-21.8-.51-4.84-.58-9.85-2.51-14.4l-.39.64-.31.48c-2.9-9.65-8.96-17.83-14.08-26.38-5.91-9.84-10.95-20.54-12.07-32.1-.81-7.19.98-14.28,1.55-21.42,3.58-.77,7.4-2.05,9.63-5.15,2.71-3.77,3.77-8.42,4.47-12.94.2.43.63,1.29.84,1.72.3-3.36.25-6.74.04-10.1-.22.27-.67.82-.89,1.1-.9-5.77-2.69-11.95-7.28-15.86-4.97-4.19-12.88-3.42-17.31,1.2-3.14,2.79-4.49,6.88-5.41,10.86-8.25-1.99-14.4-8.32-20.12-14.19-7.47-7.85-13.23-17.16-18.42-26.6-1.54,3.58-1.25,7.59-1.84,11.38-.01-1.34-.15-2.66-.31-3.97-1.49,2.4-.6,5.39-.96,8.05-.41,4.02.28,8.04.08,12.06-3.47-4.11-3.8-9.75-4.49-14.84-.6-3.58,1.81-7.47-.04-10.77,1.21-7.31,4.13-14.22,7.71-20.66,5.12-9.03,11.91-17.17,20.12-23.55,5.2-4.06,10.62-8.04,16.75-10.57,1.39-.06,2.79-.22,4.06-.86,6.83-3.16,14.06-5.52,21.49-6.81v-.83c-.37,0-1.15,0-1.54-.01,1.27-.3,2.55-.63,3.84-.9Z"/>
  <path class="cls-43" d="M1175.52,436.21c-.39-1.05-1.61-2.26-.6-3.33,3.71,6.26,6.45,13.04,8.93,19.86-.21.21-.63.63-.84.85-2.07-5.97-4.42-11.85-7.5-17.38Z"/>
  <path class="cls-57" d="M1023.93,537.12c-.23-1.08-.46-2.16-.7-3.22-2.26-.39-4.82-.42-6.67-1.98-1.91-1.98-1.69-5.01-1.08-7.47,2.05-8.73,6.92-16.79,7.19-25.9-.97-.55-1.95-1.06-2.96-1.49-.72-2.12-1.38-4.25-1.93-6.4-1.36-7.09-.94-14.4-.57-21.56.59-3.79.3-7.8,1.84-11.38,5.2,9.44,10.95,18.75,18.42,26.6,5.72,5.87,11.87,12.2,20.12,14.19.93-3.97,2.27-8.06,5.41-10.86,4.43-4.62,12.34-5.39,17.31-1.2,4.59,3.92,6.38,10.1,7.28,15.86.13,2.42.13,4.85,0,7.28-.7,4.51-1.76,9.17-4.47,12.94-2.24,3.11-6.05,4.38-9.63,5.15-.57,7.14-2.36,14.22-1.55,21.42,1.11,11.57,6.15,22.27,12.07,32.1,5.11,8.55,11.18,16.73,14.08,26.38l-.27.41c-5.55-2.33-11.4.44-16.88,1.62-.35-1.93-.61-3.89-.78-5.84l.3-1.1c-.37-6.6-3.94-12.39-6.76-18.18-.84-1.45-1.39-3.25-2.83-4.21-4.39-.72-8.8.64-13.2.35-6.38-.35-13.28-1.09-18.43-5.27-6.05-5.3-8.77-13.14-11.1-20.59-1.74-5.55-2.31-11.4-4.14-16.91l-.08-.74Z"/>
  <path class="cls-40" d="M1011.51,459.63c1.85,3.3-.57,7.19.04,10.77.68,5.1,1.01,10.74,4.49,14.84.2-4.02-.49-8.04-.08-12.06.35-2.66-.53-5.65.96-8.05.16,1.31.3,2.63.31,3.97-.37,7.16-.79,14.47.57,21.56l-.09.98c-1.25-1.98-2.01-4.21-3.16-6.24-4.48-7.74-4.68-17.2-3.02-25.78Z"/>
  <path class="cls-32" d="M1191.46,489.81c-.16-1.64-.84-3.53.41-4.91,1.05,6.12,1.7,12.31,2.58,18.46-.2.82-.46,1.64-.77,2.43-.91-5.31-1.31-10.69-2.22-15.99Z"/>
  <path class="cls-8" d="M1019.72,497.06c1.01.43,1.99.94,2.96,1.49-.27,9.11-5.13,17.18-7.19,25.9-.62,2.47-.83,5.49,1.08,7.47,1.84,1.55,4.4,1.58,6.67,1.98.23,1.06.46,2.14.7,3.22-.49-.04-1.44-.13-1.93-.17-3.58-.57-7.46-2.02-9.26-5.4-1.33-2.34-.41-5.06.2-7.47,1.7-5.84,3.61-11.62,5.03-17.54.73-3.13,1.74-6.24,1.74-9.48Z"/>
  <path class="cls-56" d="M1087.61,502.31c.22-.27.67-.82.89-1.1.2,3.36.26,6.74-.04,10.1-.21-.43-.63-1.29-.84-1.72.12-2.43.12-4.86,0-7.28Z"/>
  <path class="cls-51" d="M1211.36,639.44v-31l12.68-.16.21,4.63,2.2-.03v-4.85l8.93-.16.02,2.3,1.67-.07-.06-7.17,10.26-.04.16,7.16h5.19l-.07-8.22,14.91-.07s-.2,7.12,0,7.06,9.89,0,9.89,0l-.52-19.63-1.55-3.75,1.75-.04-.24-7.51-2.14-2.84,2.59-.1-.06-5.49,2.5-.08,8.48-26.29,8.42,26.15,2.55.02-.03,5.37,1.96.06-2.09,3.21v7.51s1.81-.11,1.81-.11l-2.11,4.08v18.74s11.23-.11,11.23-.11v-6.62h22.75v10.13l6.65-.14v-6.89h24.29v10.28h7.15v-14.24h8.82v14.24h5.24v-10.86h16.44v10.86h6.67v-22.53l21.45.24v22.29h5.72v-14.24h18.35v15.54h5.24v-33.84h27.16v35.74h0l57.21-52.14,54.51,55.51,322.45-3.37v19.87l-708.64,1.6Z"/>
  <path class="cls-62" d="M1264.37,591.92c3.72-.74,7.54-.64,11.32-.66v488.72h-176.98c-1.17-1.9-1.9-4.01-2.52-6.12-.9.39-1.79.77-2.69,1.19-1.17-.91-2.31-1.84-3.42-2.79.27-1.73.15-3.67,1.33-5.1.77,1.33-.02,3.34,1.6,4.23,2.83,2.64,6.9,1.33,10.25.75-.98-1.22-1.72-2.59-2.07-4.11,2.17.6,3.27,3.66,5.57,3.33.69-2.17-2.21-3.06-3.51-4.21,2.35-.17,5.03-.56,6.03-3.03-.79.11-1.57.24-2.36.38-.67-.69-1.33-1.37-1.98-2.04.8.06,1.62.15,2.43.25.49-.56.97-1.12,1.48-1.65,2.24,1.07,5.35,1.03,6.17,3.9.55-.63,1.1-1.24,1.65-1.85-.46-1.85-.46-3.91,1.14-5.22-.1.94-.2,1.89-.3,2.85,1.33-.39,2.68-.75,4.04-1.08.1.9.2,1.81.33,2.74.95-.84,1.86-1.74,2.72-2.66-1.5-.67-2.99-1.38-4.44-2.12.75-.96,1.51-1.9,2.12-2.94-.86-.57-1.72-.1-2.5.32-.27-.27-.79-.8-1.05-1.08-.84.13-1.68.27-2.51.42-.33-.9-.65-1.79-.98-2.66,2.79-3.1,5.66-6.21,7.62-9.92,3.42-6.48,6.31-13.27,8.58-20.24,3.64-13.53,7.15-27.1,9.77-40.88,3.82-15.03,5.46-30.49,8.44-45.69,1.82-8.2,3.19-16.49,4.78-24.73,1.86-9.06,2.3-18.34,4.12-27.41,1.16-8.02,2.47-16.01,3.52-24.04,1.55-8.18,2.91-16.4,4.27-24.61,1.67-6.9,2.59-13.94,4.25-20.83,1.62-12.12,4.09-24.1,6.24-36.13,1.92-9.63,3.21-19.4,5.44-28.97,1.31-5.41,1.76-11,3.31-16.35,2.81-15.45,6.53-30.72,10.32-45.95,1.43-6.35,3.26-12.6,5.01-18.86,3.21-14.32,9.01-27.86,15.2-41.1,2.26-4.54,5.86-8.18,8.98-12.11,6.62-8.48,15.99-14.41,25.87-18.39,4.5-1.04,8.86-2.63,13.39-3.56Z"/>
  <path class="cls-62" d="M1384.49,1079.99c-2.6-9.63,16.34-311.35,14.55-323.33-.77-6.15-.56-15.32-1.93-24.75-3.8-15.45-8.85-30.72-13.98-45.95-1.93-6.35-4.42-12.6-6.78-18.86-4.35-14.32-12.21-27.86-20.58-41.1-3.07-4.54-7.94-8.18-12.16-12.11-8.97-8.48-21.65-14.41-35.04-18.39-6.09-1.04-12-2.63-18.14-3.56-5.04-.74-10.21-.64-15.33-.66v488.72s109.38,0,109.38,0Z"/>
  <path class="cls-44" d="M896.12,630.15c8.4-.37,16.8-.94,25.19-1.62,3.97-.44,7.87.74,11.31,2.68,2.65,2,4.49,4.84,5.46,8.02,14.21,42.68,28.14,85.46,42.72,128.02,6.64,19.92,13.3,39.84,20.2,59.67-.44,1.14-1.05,2.6-2.45,2.77-2.74.44-5.51.01-8.25-.03-4.27-13.85-9.04-27.55-13.63-41.3-1.46-5.58-3.63-10.93-5.42-16.41-2.77-8.42-5.34-16.9-8.22-25.26-2.13-6.36-4.13-12.75-6.34-19.06-4.2-12.19-8.06-24.5-12.37-36.65-4.59-14.22-9.41-28.36-13.96-42.59-.63-1.88-1.02-3.9-2.17-5.55-1.63-2.1-4.2-3.59-6.9-3.52-9.04.67-18.08,1.53-27.15,1.76-3.38-1.52-7.18-.6-10.74-.42-11.71.79-23.42,1.65-35.13,2.45-2.01.14-4.24-.36-6.01.86,1.09.18,2.19.33,3.29.45-17.38,1.12-34.75,2.5-52.14,3.35-1.03.04-1.91.58-2.77,1.08-2.51-.86-5.17-.47-7.76-.3-8.71.62-17.41,1.3-26.11,2.01-.02.32-.07.94-.1,1.26-.83-.5-1.6-1.31-2.65-1.12-12.58.88-25.16,1.81-37.75,2.45-2.33-1.62-5.36-.77-8.01-.74-4.5.73-9.07.45-13.59.88.6.4,1.2.79,1.81,1.18-8.65.2-17.26,1.1-25.9,1.4-2.95-1.41-6.31-.72-9.45-.63-4.4.55-8.84.6-13.26.79l.03.74c.96.1,1.92.19,2.89.28-8.46.65-16.94.94-25.4,1.66-3.16.25-6.84-.3-9.4,2-2.28,1.81-3.16,4.96-2.36,7.72,13.16,40.64,26.65,81.17,39.8,121.81.72,2.05,1.1,4.3,2.38,6.12,1.13.96,2.77.82,4.16,1.08-1.4.35-2.82.58-4.25.72,4.67,11.83,7.81,24.18,12.04,36.17,5.62,16.99,11.01,34.07,16.39,51.14,1.24,3.78,1.86,8.34,5.43,10.74,2.75,2.07,6.36,1.98,9.62,1.62,6.26-.75,12.54-1.31,18.78-2.23.22-.93.46-1.85.69-2.76.09.55.28,1.63.37,2.18,4.18.32,8.32-.53,12.47-.88,3.53-.45,7.16-.54,10.49-1.9.03.29.08.85.11,1.13,8.52-1.2,17.13-1.61,25.65-2.87,15.31-1.99,30.68-3.35,46-5.15,36.13-4.01,72.29-7.76,108.4-11.92,7.16-.58,14.27-2,21.47-1.71-.06-.39-.2-1.18-.27-1.57,8.17,3.15,16.09,6.92,24.18,10.27,4.3,1.81,8.76,3.22,13.08,4.99-.65.46-1.35.57-2.09.33-3.37-.96-6.97-1.67-10.46-.94l-.6.11c-4.02.15-7.89-1.25-11.87-1.6-4.4-.38-8.82-.84-13.23-.33-6.57-.04-13.11.7-19.62,1.53-4.82.67-9.46,2.49-14.37,2.56-7.52.97-15.08,1.35-22.63,1.92-8.66,1.62-17.47,2.21-26.2,3.37-8.64,1.27-17.38,1.55-26.03,2.8-10.05,1.62-20.27,1.88-30.35,3.36-5.95.89-11.97,1.19-17.96,1.72-4.2.62-8.44,1.03-12.67,1.41-8.94,1.52-18.08,1.49-26.99,3.24-4.65,1.05-9.46.37-14.15,1.21-11.42,1.49-22.9,2.46-34.34,3.8-3.9.46-7.98,1.18-11.75-.29-5.06-1.98-9.72-5.93-11.25-11.3-2.19-7.14-4.13-14.35-6.7-21.36-2.76-8.76-5.27-17.59-8.16-26.32-2.36-5.84-3.79-12-5.96-17.92-2.25-7.73-4.39-15.5-7.13-23.08-1.24-4.54-2.7-9-4.26-13.43-5.15-16.64-10.24-33.3-15.46-49.92-1.57-5.15-2.92-10.38-4.96-15.38-1.91-4.65-3.23-9.51-4.75-14.29-2.08-5.77-3.79-11.65-5.66-17.48-1.29-4.02-3.07-7.88-4.18-11.96-1.41-5.26-3.4-10.34-4.91-15.56-.91-3.19-2.54-6.14-3.23-9.38-.43-4.58,2.21-8.59,4.72-12.17,2.15-1.93,5.15-2.09,7.87-2.35,49.82-3.09,99.65-5.74,149.46-8.93,42.26-2.88,84.56-5.06,126.81-8.08,2.86-.03,5.73-.18,8.57-.58Z"/>
  <path class="cls-44" d="M763.39,841.47c.2,2.93-1.46,5.62-1.2,8.59-.27,3.71,1.17,8.33-1.88,11.25.83-2.74,1.11-5.6.96-8.45-.18-3.9.52-7.83,2.12-11.39Z"/>
  <path class="cls-70" d="M1264.63,578.34c3.39-.23,6.78-.37,10.17-.53.2,0,.41,0,.61.02l12.96,1.3c3.49.35,6.91,1.18,10.17,2.46l8.58,3.36c3.69,1.44,7.11,3.48,10.14,6.02l23.28,20.22-23.57-12.9c-1.86.01-14.66-3.96-26.64-5.62-12.44-1.72-23.89-.44-25.79-.06-4.54.93-9.08,1.82-13.58,2.87-9.89,3.98-19.25,9.91-25.87,18.39-3.11,3.94-6.71,7.58-8.98,12.11-6.19,13.24-11.99,26.79-15.2,41.1-1.74,6.26-3.58,12.52-5.01,18.86-3.79,15.23-7.52,30.49-10.32,45.95-1.55,5.36-2,10.94-3.31,16.35-2.23,9.58-3.52,19.34-5.44,28.97-2.16,12.02-4.63,24-6.24,36.13-1.66,6.89-2.58,13.93-4.25,20.83-1.36,8.21-2.73,16.42-4.27,24.61-1.05,8.03-2.36,16.02-3.52,24.04-1.82,9.07-2.26,18.34-4.12,27.41-1.59,8.24-2.96,16.53-4.78,24.73-2.97,15.2-4.62,30.66-8.44,45.69-2.62,13.77-6.12,27.35-9.77,40.88-2.27,6.97-5.15,13.76-8.58,20.24-1.96,3.71-4.83,6.82-7.62,9.92-3.09,2.78-5.64,6.3-9.46,8.17-3.41,1.79-6.57,4.14-10.33,5.17-9.79,2.56-20.03,2.04-29.98.77-9.62-.96-19-3.35-28.24-6.09-4.83-1.38-9.86-1.96-14.6-3.66-7.95-1.69-15.58-4.6-23.6-6-2.78-.45-5.29-1.77-7.97-2.52-6.71-1.6-13.25-3.85-20.02-5.25-16.38-3.27-32.12-9-48.35-12.83-4.96-.6-9.61-2.5-14.33-4.01-5.08-1.72-9.56-4.8-13.73-8.09-1.82-1.88-2.66-4.44-3.78-6.75-2.33-5.15-1.86-10.91-2-16.4-.16-5.06,1.76-9.84,2.94-14.67,1.63-6.55,4.94-12.97,10.56-16.93,4.7-4.24,11.1-5.51,17.09-6.78,3.63-.3,7.26-.54,10.89-.79,15.44,1.51,30.32,6.11,45.19,10.27,5.39,1.01,10.33,3.56,15.69,4.68,4.33.96,8.63,2.04,12.87,3.34,5.13,1.81,10.56,2.49,15.8,3.93,7.52,2.26,15.26,3.72,22.8,5.98,5.03,1.53,10.11,2.9,15.31,3.76,6.22,1.08,12.27,3.16,18.63,3.25,3.94.65,8.16.86,11.76-1.17,4.85-1.83,7.34-6.74,9.27-11.2,4.84-13.59,6.38-28,9.2-42.08,1.73-8.78,2.85-17.67,4.5-26.46,1.31-4.65,1.4-9.53,2.45-14.22-.34-.12-1.05-.37-1.39-.49.31-.08.92-.25,1.23-.33,6.1-31.3,11.24-62.79,17.19-94.12,2.19-12.35,4.76-24.63,6.89-36.98,4.01-20.45,8.27-40.86,12.34-61.3.4-1.67.81-3.35,1.18-5.03.77-3.59,2.58-6.88,2.91-10.57.46-4.19,2.24-8.05,3.16-12.13,2.1-10.04,5.98-19.57,9.72-29.08,6.1-12.29,12.59-24.7,22.32-34.58,3.68-3.58,7.08-7.49,11.16-10.64,6.56-5.27,13.64-10.19,21.7-12.81,6.01-2.28,12.16-4.26,18.45-5.65,7.9-1.57,15.91-2.5,23.95-3.04Z"/>
  <path class="cls-70" d="M924.18,1046.5c4.17.93,8.33,1.98,12.3,3.57,2.5,1.02,5.24,1.13,7.77,2.03,1.43.41.86,2.07.87,3.17-1,8.25-3.28,16.35-3.45,24.71h-21.87c.91-7.49,1.56-15,3.02-22.41.82-3.65.44-7.47,1.36-11.07Z"/>
  <path class="cls-69" d="M1098.8,606.46c1.93,4.55,2,9.56,2.51,14.4.15,7.32-2.01,14.48-1.94,21.8.01,3.28-.21,6.57.11,9.85.13,1.93.92,3.96-.06,5.8-.59-2.43-1.03-4.89-1.34-7.36-.27-3.42-.14-6.86,0-10.28.71-6.6,2.16-13.14,1.92-19.81.02-4.64-.92-9.2-1.59-13.77l.39-.64Z"/>
  <path class="cls-39" d="M722.73,613.94c57.75-.25,115.52.01,173.28-.11.06,5.44-.12,10.88.11,16.33-2.84.41-5.71.56-8.57.58-42.25,3.02-84.55,5.2-126.81,8.08-49.81,3.19-99.64,5.84-149.46,8.93-2.73.26-5.72.42-7.87,2.35-3.3,2.33-6.73,5.04-8.11,8.99-1.39,3.89-1.22,8.23-.05,12.16,10.48,31.95,20.91,63.91,31.39,95.86-23.64-.04-603,.04-626.64-.04v-137.24c50.62-.19,656.96-.03,707.58-.06,19.9-.03,39.81.32,59.71-.02.89-.11,1.88-.06,2.66-.58,1.38-.69,1.09-2.56.55-3.71-1.55-1.98-4.24-2.47-6.6-2.74-4.46-.41-8.95-.2-13.42-.41-4.06-.22-8.36.56-12.16-1.28-5.2-2.34-10.72-4.1-15.58-7.1Z"/>
  <path class="cls-39" d="M932.6,630.62c29.28.05,58.58,0,87.87.05,10.18.05,20.38-.22,30.56.22-1.88,3.47-4.63,6.37-6.45,9.88-4.63,8.29-8.51,17.07-10.95,26.27-2.55,8.92-4.54,17.97-6.88,26.94-3.52,12.29-6.77,24.65-10.05,37-2.08,8.02-3.33,16.27-5.98,24.14,2.21,1.98,4.5,3.87,6.87,5.66-.51,2.17-.86,4.43-1.87,6.45-11.64-.2-23.29-.25-34.92.01-14.58-42.56-28.51-85.34-42.72-128.02-.96-3.17-2.81-6.01-5.46-8.02v-.6Z"/>
  <path class="cls-77" d="M1097.24,637.84l.62.03c.08.93.15,1.86.22,2.81-.13,3.42-.26,6.86,0,10.28-.2.44-.62,1.31-.82,1.75-.5-4.95-.01-9.92-.02-14.87Z"/>
  <path class="cls-27" d="M716.26,653.15c12.59-.64,25.17-1.57,37.75-2.45,1.05-.19,1.82.63,2.65,1.12.56,2.4,1.82,4.61,2.21,7.06.56,2.97-2,5.23-2.33,8.06-.44,3.04-.94,6.55-3.51,8.57-3.28.94-6.98.71-9.91,2.67-2.81,1.79-4.51,4.87-5.29,8.04-.66,1.85-.81,4.09-2.37,5.46-4.39.98-8.53-2.32-10.6-5.92-1.9-5.12-1.84-10.72-2.95-16.02-.56-2.03-2.6-3.09-4.23-4.17-4.35-2.55-9.51-4.91-14.65-3.58-3.45.89-4.33,4.73-5.93,7.42-1.57,2.7-5.03,2.86-7.76,3.47-4.91.75-8.63,4.51-11.34,8.41-2.39,3.16-4.56,7.07-3.52,11.17.76,3.19,4.96,3.1,6.48,5.7,1.76,2.78,2.17,6.12,2.26,9.35-4.32,1.93-8.44,5.09-9.98,9.75-2.33,6.36.11,13.24,3.69,18.6,3.89,5.92,7.09,12.23,10.43,18.47-2.33,3.3-5.47,6.45-5.79,10.69-.49,3.02,2.92,5.24,2.17,8.28-.01,1.32-1.62,1.53-2.6,1.27-2.7-2.26-4.49-5.41-5.64-8.7-5.44.81-11.44-.42-16.38,2.48-5.03,3.11-6.33,9.91-4.15,15.16.42,1.59.9,3.38,2.36,4.35,1.67.67,3.53.49,5.29.45,3.32.23,4.73-3.65,7.82-4.16,1.48-.36,2.57,1.07,3.33,2.12.04,2.92-1.39,5.58-2.24,8.31,2.21.46,4.58.33,6.68,1.19,2.88,2.26,3,6.27,4.88,9.18,1.66,1.31,3.91,1.88,6.01,1.88,2.92-.29,4.18-3.26,6.02-5.1,2.14-2.26,5.55-2.33,8.41-1.83,3.75.66,7.52,1.27,11.21,2.24,2.75.66,4.24,3.29,6.55,4.69,3.6,1.83,7.77,2.17,11.34,4.07,3.12,2.09,4.26,5.86,5.74,9.12.33,1.01,1.3,1.53,2.21,1.93,5.73,2.48,11.89,3.7,17.87,5.41,1.76.58,3.94,1.12,4.67,3.06,1.35,3.52.86,7.4.27,11.04-1.6,3.56-2.29,7.49-2.12,11.39.15,2.85-.13,5.71-.96,8.45-1.91,1.57-4.01,2.92-6.28,3.92-1.63.58-3.16,1.91-2.97,3.81.15,4.29-.29,8.55-1.41,12.7-.98,1.31-1.81,2.78-3,3.93-1.46,1.13-3.23,1.75-4.77,2.78-.2,1.26.02,2.53.1,3.81-3.33,1.36-6.96,1.45-10.49,1.9-4.16.34-8.29,1.2-12.47.88-.09-.55-.28-1.63-.37-2.18-1.6-8.38-3.48-16.71-4.81-25.14-.6-3.03-1.05-6.13-2.25-8.98-1.32-2.01-3.65-2.99-5.49-4.42-5.6-4.13-11.03-8.82-14.6-14.86-2.1-4.94-2.84-10.83-.53-15.85,1.5-3.4,1.62-7.35.56-10.88-.25-1.27-1.67-1.3-2.66-1.6-4.02-.89-8.46-1.6-11.39-4.77-2.43-1.93-3.39-5.03-5.52-7.19-3.83-1.3-7.99-1.29-11.99-1.72-1.39-.27-3.02-.13-4.16-1.08-1.28-1.81-1.66-4.06-2.38-6.12-13.15-40.64-26.64-81.17-39.8-121.81-.8-2.76.08-5.91,2.36-7.72,2.56-2.29,6.24-1.74,9.4-2,8.46-.72,16.94-1.01,25.4-1.66,6.6-.34,13.2-.81,19.79-1.19,8.64-.3,17.25-1.2,25.9-1.4,6.59-.5,13.18-1.11,19.79-1.32Z"/>
  <path class="cls-27" d="M692.47,694.38c.86-1.6,2.5-3.04,4.43-2.86,3.26.58,5.57,3.14,8.11,5.03,2.02,1.53,4.81,2.09,6.3,4.3,2.57,3.7,3.83,8.12,6.36,11.85,1.22,1.74,1.98,3.75,2.01,5.89-3.01,1.1-6.22.58-9.32.51-2.12-.12-3.98,1.05-5.86,1.85-.86-3.96-2.4-7.92-5.49-10.67-2.61-2.62-6.39-3.48-9.97-3.45.12-4.35,1.41-8.61,3.43-12.44Z"/>
  <path class="cls-65" d="M848.26,643.11c11.71-.8,23.42-1.66,35.13-2.45,3.56-.18,7.35-1.1,10.74.42-16.19,1.23-32.39,2.18-48.59,3.33-1.1-.12-2.2-.27-3.29-.45,1.77-1.22,4-.72,6.01-.86Z"/>
  <path class="cls-47" d="M756.76,650.57c8.7-.71,17.4-1.39,26.11-2.01,2.58-.18,5.25-.56,7.76.3-.89,2.71-1.94,5.72-.83,8.53,1.51,3.75,4.01,7.66,8.16,8.79,5.97,1.58,11.83-1.34,17.72-1.66,2.07,1.71,3.77,3.82,5.67,5.7,2.53,2.07,1.57,6.38-.83,8.15-5.03.86-8.23-4.74-13.08-4.94-2.71-.28-5.66.37-7.45,2.57-2.05,1.97-1.98,5-3.14,7.43-1.31,2.55-3.64,4.38-5.16,6.8-1.01,1.48-.92,3.75.56,4.91,2.85,2.56,6.05,4.72,9.17,6.94,1.98,1.47,4.74,1.36,6.58-.27-1-4.01-2.04-8.02-2.72-12.1,5.15,1.98,10.69,2.56,15.88,4.39-1.2,2.59-4.52,3.29-5.6,5.97-1.02,2.43-.79,5.15-1.42,7.68-.31,1.08-1.49,1.6-2.55,1.55-2.59-.09-5-1.62-7.62-1.2-2.71.48-5.25,1.65-7.66,2.93-.37-.83-.72-1.65-1.09-2.46-.11.27-.34.81-.45,1.08-1.62-1.5-2.91-3.42-4.96-4.39-2.91-1.32-3.69-4.75-5.91-6.79-1.07-.51-2.71.31-2.29,1.62.82,2.23,2.64,4.11,2.74,6.59.18,2.62.34,5.46,2.1,7.59,1.12,1.57,3.27,1.14,4.94,1.21l-.22.46c.7-.24,1.39-.49,2.1-.73,0,.89.03,1.78.06,2.69l.69.09c-.74.84-1.39,2.21-2.71,2.04-1.91-.72-3.58-2.06-5.67-2.21.19.96-.27,2.24.5,3.02,1.02.44,2.1.72,3.11,1.18,2.01,1.71,2.94,4.39,2.78,6.99-3.37,0-7.25.58-9.38,3.49-2.13,4.91,1.19,12.52,7.18,12.14,3.37.22,5.96-2.42,7.76-4.95,2.22-3.09,2.46-7.52,5.8-9.77,3.24-.94,5.95,1.5,7.8,3.84,2.5,2.62,4.95,6.43,9.06,6.17-.46-2.02-1.8-3.59-2.94-5.23-.97-1.37-1.34-3.19-2.76-4.2-1.02-.82-2.14-1.62-2.56-2.91,3.23,1.52,6.02,3.84,9.36,5.17,3.11,1.21,4.25,5.36,7.76,5.7.08-.93.18-1.85.27-2.76,3.34-1.26,2.83-5.26,3.95-8.04.58-1.34.93-3.79,2.83-3.64,1.53.92,1.41,3.07,2.27,4.51,1.85-1.09,1.69-3.92,3.74-4.76,1.84-.65,3.09,1.1,4.2,2.24,2.3,2.66,5.45,4.44,7.51,7.33-2.17-.38-4.44.83-6.64.75-2.05-.08-4.04-1.47-6.08-1.32-4.94.24-8.94,5.29-8.26,10.13,3.73.46,8.3-1.39,11.9,0,1.89.72,3.3,3.7,4.64,5.41,1.72,1.75.62,5.44-1.99,5.47-4.87.39-9.68-1.01-14.18-2.74-.86-.3-1.84-.7-2.67-.11-1.19,1.49-1.56,3.52-2.98,4.84-4.11-.9-7.48-3.64-11.23-5.41-2.62-1.17-3.08-4.35-5.13-6.08-3.59-1.05-7.4.09-10.91,1.01-3.54,1.09-7.5,1.82-10.16,4.61-2.01,2.09-3.94,4.41-4.75,7.25-.88,2.92-1.81,5.85-3.11,8.62-.19-.21-.56-.63-.75-.84-1.36,3.02-3.06,5.97-3.73,9.25-.49,3.97-.28,8.06.85,11.9.22-.21.68-.63.91-.84.83,2.5,1.18,5.14,2.01,7.66,1.71,4.47,5.39,7.74,8.81,10.93,2.27,1.89,4.68,4.18,7.82,4.22,5.46.5,10.43-2.18,15.6-3.38,3.47.22,6.22,2.81,8.77,4.94,2.96,2.66.95,7.17,2.98,10.29,1.91,3.41,4.39,6.45,6.65,9.64,4.11,5.65,0,13.06,2.49,19.23,2.03,4.86,5.22,9.13,7.09,14.07,1.61,3.82,2.85,7.98,5.73,11.08,2.24,2.42,5.93,1.86,8.8,1.17,4.23-1.01,7.7-4.32,9.11-8.4.94-2.9,2.61-5.49,3.56-8.37.54-3.21.39-6.48.7-9.71-.3.01-.91.04-1.21.05,1.76-.37,3.01-1.86,2.64-3.69l-.49-.42c3.46,1.16,6.5,3.23,9.88,4.58-1.21-.05-1.51.34-.91,1.2,1.47,1.71,2.99,3.4,3.99,5.45,2.69-.6,5.59-1.25,7.57-3.33,4.2.67,8.54,1.15,12.78.53,5.51,1.93,10.74,4.56,16.1,6.86,7.75,3.48,15.63,6.66,23.27,10.38.06.39.2,1.18.27,1.57-7.2-.3-14.31,1.12-21.47,1.71-36.11,4.16-72.27,7.9-108.4,11.92-15.33,1.79-30.7,3.16-46,5.15-8.51,1.26-17.13,1.67-25.65,2.87-.03-.28-.08-.84-.11-1.13-.08-1.28-.3-2.55-.1-3.81,1.53-1.03,3.3-1.65,4.77-2.78,1.19-1.15,2.01-2.62,3-3.93,3.19-3.62,2.15-8.84,2.46-13.26-.19-1.51,2.85-1.82,1.92-3.25,2.27-1,4.37-2.34,6.28-3.92,3.04-2.92,1.6-7.54,1.88-11.25-.27-2.97,1.4-5.66,1.2-8.59.59-3.64,1.08-7.52-.27-11.04-.72-1.93-2.91-2.48-4.67-3.06-5.98-1.71-12.14-2.92-17.87-5.41-.91-.41-1.88-.93-2.21-1.93-1.48-3.26-2.62-7.03-5.74-9.12-3.57-1.9-7.74-2.24-11.34-4.07-2.31-1.4-3.8-4.03-6.55-4.69-3.69-.97-7.47-1.58-11.21-2.24-2.86-.5-6.27-.43-8.41,1.83-1.84,1.85-3.1,4.82-6.02,5.1-2.1,0-4.35-.57-6.01-1.88-1.88-2.9-2-6.92-4.88-9.18-2.1-.86-4.47-.73-6.68-1.19.85-2.73,2.28-5.39,2.24-8.31-.77-1.05-1.86-2.47-3.33-2.12-3.09.51-4.5,4.39-7.82,4.16-1.76.04-3.62.22-5.29-.45-1.46-.96-1.94-2.76-2.36-4.35.97-2.72-.58-5.59.32-8.32.56-2.81,2.94-4.58,4.54-6.77l-.7-.06c4.94-2.9,10.94-1.67,16.38-2.48,1.15,3.29,2.94,6.45,5.64,8.7.98.26,2.59.06,2.6-1.27.75-3.04-2.65-5.26-2.17-8.28.32-4.25,3.47-7.4,5.79-10.69.99,1.5,1.57,4.4,3.96,3.75,2.02-.71,2.14-3.38,2.88-5.11,1.78-6.75,5.25-12.84,8.19-19.11,3.86,3.76,10.39-1.27,9.3-5.95-1.22-2.74-4.52-3.48-7.18-4.01-.05-1-.06-1.99-.03-2.97,1.88-.8,3.73-1.97,5.86-1.85,3.11.07,6.31.58,9.32-.51-.04-2.14-.79-4.16-2.01-5.89-2.53-3.73-3.79-8.16-6.36-11.85-1.49-2.21-4.27-2.76-6.3-4.3-2.54-1.89-4.85-4.44-8.11-5.03-1.93-.18-3.56,1.26-4.43,2.86-2.02,3.84-3.31,8.09-3.43,12.44-1.95.06-3.9.3-5.8.7-.1-3.23-.5-6.57-2.26-9.35-1.53-2.59-5.72-2.51-6.48-5.7-1.04-4.09,1.12-8.01,3.52-11.17,2.71-3.9,6.43-7.66,11.34-8.41,2.73-.6,6.19-.77,7.76-3.47,1.6-2.69,2.48-6.53,5.93-7.42,5.13-1.34,10.29,1.03,14.65,3.58,1.63,1.08,3.68,2.14,4.23,4.17,1.12,5.3,1.05,10.9,2.95,16.02,2.07,3.6,6.21,6.9,10.6,5.92,1.56-1.37,1.71-3.61,2.37-5.46.78-3.18,2.47-6.25,5.29-8.04,2.93-1.96,6.63-1.73,9.91-2.67,2.57-2.02,3.07-5.53,3.51-8.57.33-2.83,2.89-5.09,2.33-8.06-.39-2.45-1.65-4.65-2.21-7.06.03-.32.08-.94.1-1.26ZM701.5,672.41c-2.01.44-2.88,2.54-3.52,4.27-1.29,3.58-1.1,7.88,1.09,11.06,3.59,3.37,9.74,1.83,12.64-1.72,1.2-3.23-1.11-6.26-2.83-8.8-1.62-2.47-4.16-5.2-7.38-4.81ZM759.17,680.91c-1.58,1.51-4.37,4.39-2.05,6.41,2.74,2.74,7.53,2.16,9.45-1.24,1.06-3.85-4.19-6.58-7.4-5.17ZM775.74,706.62c-.32,2.17-.78,4.42-.2,6.6.77,1.24,2.43.3,3.59.33,1.9-2.4.7-5.28-.85-7.47-.84.18-1.69.35-2.53.55ZM716.71,722.03c-1,3.67,3.26,5.35,6.18,5.47,2.34-.63,1.34-3.47-.06-4.54-1.89-.87-4.05-1.46-6.12-.93ZM754.3,751.28c-8.31.96-15.69,7.86-16.82,16.22-1.04,7.02,1.87,13.89,5.5,19.74,4.33,6.68,7.47,14.03,11.42,20.92.8,1.51,2.42,2.9,4.25,2.38,2.38-1.73,2.93-4.81,3.95-7.38,1.66-5.25,4.11-10.19,6.81-14.96,3.07-5.32,5.29-11.36,5.09-17.57.18-5.91-2.4-11.94-7.03-15.67-3.67-2.9-8.51-4.3-13.16-3.68ZM677.48,780.45v1.98c4.73,1.44,9.66,2.23,14.55,2.94,1.58.29,1.95-2.1.39-2.38-4.65-1.98-9.88-3.23-14.93-2.53ZM696.35,788.38c.46.63.86,1.34,1.48,1.87,2.81.49,5.62-.25,8.33-.9-.13-1-.3-2.19-1.45-2.47-2.77-1.56-6.23-.75-8.36,1.5Z"/>
  <path class="cls-47" d="M963.02,746.69c2.88,8.37,5.45,16.85,8.22,25.26,1.79,5.48,3.96,10.83,5.42,16.41,4.59,13.75,9.36,27.45,13.63,41.3-18.49-1.07-36.81-4.13-54.96-7.67-5.61-1.48-11.5-2.12-16.92-4.19-10.81-8.42-21.47-17.06-32.66-24.99-2.55-1.96-5.55-3.3-7.9-5.48-.03-.26-.08-.79-.1-1.05,3.11-2.58,5.54-5.84,7.97-9.04,1.45-2,2.91-4.18,3.24-6.69.06-1.11.1-2.56-.95-3.23-2.64-1.64-5.83-1.84-8.82-2.34-4.05-.15-5.86-4.46-7.32-7.61,1.17-.26,2.36-.92,3.59-.67,2.43.97,4.39,2.85,6.92,3.64,4.58,1.62,9.54.9,14.24,1.93,3.78.6,8,2,9.71,5.76,3.26,6.47,7.26,12.51,10.98,18.72,1.07-.13,1.54-1.19,2.21-1.88.74.2,1.48.41,2.22.64.41,2.46,2,4.39,3.78,6.04.94-1.09,2.66-2.13,2-3.81-1.64-1.23-4.56-1.12-5.06-3.51-1.03-4.71-1.92-9.78-.24-14.46,1,1.66,2.13,4.29,4.54,3.65,2.29-2.83,2.38-6.86,4.35-9.93,4.41,2.26,6.32,7.16,8.56,11.29,1.31,1.05,3.78.72,4.27,2.67,2.11,6.2,6.45,11.26,9.18,17.17,1.09-.25,2.67.21,3.35-.91-.3-2.69-2.83-4.11-4.46-5.96-2.08-2.47-3.27-5.65-3.43-8.87,3.35-.44,4.74,2.88,6.74,4.84.89.95,2.56,2.06,3.49.55,1.83-2.89,2.87-7.23.33-10.04-3.13-3.69-7.26-6.41-10.26-10.22-.74-1.45,1.04-2.45,1.95-3.26,2.7-2.4,7.33-2.19,8.98-5.77,1.19-2.71,2.41-5.44,3.19-8.29ZM968.81,787.9c-1.67,2.99-4.01,5.66-4.99,9.01-.88,2.69.44,5.7,2.7,7.29,1.42,1.01,3.08,2.74,4.99,1.93,2.56-1.06,3.35-4.16,3.26-6.67-.19-2.57,1-4.98,1.07-7.5-.82-2.54-2.37-4.77-3.44-7.19-2.1-.51-2.69,1.76-3.58,3.14ZM943.75,793.23c5.04,5.31,9.72,10.99,15.12,15.97.79.91,1.84-.38,2.66-.62-.06-2.85-1.25-5.55-2.81-7.86-1.95-1.72-4.43-2.62-6.62-3.96-2.09-1.15-3.66-3-5.71-4.2-.94-.81-1.86.25-2.66.67ZM962.21,810.73c-.86.29-1.28,1.84-.3,2.21,2.44,1.12,5.34,1.36,7.93.57-.04-.48-.11-1.44-.15-1.93-2.47-.39-4.96-1.08-7.48-.85Z"/>
  <path class="cls-47" d="M659.97,797.45c4,.43,8.16.41,11.99,1.72,2.13,2.15,3.09,5.25,5.52,7.19,2.93,3.18,7.37,3.89,11.39,4.77.99.3,2.4.34,2.66,1.6,1.06,3.53.95,7.49-.56,10.88-2.31,5.01-1.56,10.91.53,15.85,3.57,6.04,9.01,10.74,14.6,14.86,1.84,1.43,4.17,2.41,5.49,4.42,1.2,2.85,1.65,5.95,2.25,8.98,1.33,8.43,3.21,16.76,4.81,25.14-.23.91-.46,1.83-.69,2.76-6.24.91-12.52,1.48-18.78,2.23-3.26.36-6.87.45-9.62-1.62-3.56-2.4-4.18-6.96-5.43-10.74-5.38-17.07-10.76-34.14-16.39-51.14-4.23-11.99-7.38-24.33-12.04-36.17,1.43-.15,2.85-.37,4.25-.72Z"/>
  <path class="cls-82" d="M595.3,659.08c1.38-3.95,4.81-6.67,8.11-8.99-2.51,3.58-5.15,7.59-4.72,12.17.7,3.24,2.33,6.19,3.23,9.38,1.52,5.22,3.51,10.3,4.91,15.56,1.12,4.08,2.89,7.94,4.18,11.96,1.87,5.83,3.58,11.71,5.66,17.48,1.53,4.78,2.84,9.64,4.75,14.29,2.04,4.99,3.39,10.22,4.96,15.38,5.22,16.62,10.31,33.29,15.46,49.92,1.56,4.43,3.02,8.89,4.26,13.43,2.74,7.58,4.88,15.35,7.13,23.08,2.17,5.91,3.61,12.07,5.96,17.92,2.88,8.73,5.4,17.56,8.16,26.32,2.57,7.01,4.51,14.22,6.7,21.36,1.53,5.37,6.19,9.32,11.25,11.3,3.77,1.47,7.85.75,11.75.29,11.44-1.34,22.92-2.31,34.34-3.8,4.68-.84,9.49-.15,14.15-1.21,8.92-1.75,18.05-1.72,26.99-3.24,4.23-.37,8.47-.79,12.67-1.41,5.99-.53,12.01-.83,17.96-1.72,10.08-1.48,20.3-1.74,30.35-3.36,8.65-1.24,17.39-1.53,26.03-2.8,8.73-1.17,17.54-1.76,26.2-3.37,7.55-.57,15.12-.95,22.63-1.92,4.91-.07,9.55-1.88,14.37-2.56,6.51-.84,13.05-1.57,19.62-1.53,4.41-.51,8.83-.05,13.23.33,3.98.35,7.85,1.75,11.87,1.6,5.6.63,10.97,2.45,16.42,3.75,21.59,6.26,42.65,14.17,63.82,21.68,2.86-7.78,5.47-15.64,8.16-23.46,1.25-3.23,2.07-6.63,3.78-9.66,16.88,7.7,34.56,13.7,52.77,17.35.34.12,1.05.37,1.39.49-1.05,4.7-1.15,9.57-2.45,14.22-1.65,8.8-2.77,17.68-4.5,26.46-2.81,14.08-4.36,28.49-9.2,42.08-1.93,4.46-4.42,9.37-9.27,11.2-3.6,2.03-7.83,1.83-11.76,1.17-6.36-.08-12.41-2.17-18.63-3.25-5.2-.86-10.28-2.23-15.31-3.76-7.54-2.26-15.28-3.73-22.8-5.98-5.24-1.44-10.67-2.12-15.8-3.93-4.24-1.3-8.54-2.38-12.87-3.34-5.36-1.12-10.29-3.67-15.69-4.68-14.87-4.16-29.75-8.75-45.19-10.27-3.63.25-7.26.49-10.89.79-5.99,1.27-12.39,2.55-17.09,6.78-5.62,3.96-8.93,10.38-10.56,16.93-1.17,4.84-3.1,9.62-2.94,14.67.14,5.5-.32,11.25,2,16.4,1.11,2.31,1.95,4.87,3.78,6.75,4.17,3.3,8.65,6.38,13.73,8.09,4.72,1.52,9.37,3.41,14.33,4.01,16.23,3.83,31.97,9.56,48.35,12.83,6.76,1.4,13.3,3.66,20.02,5.25,2.69.75,5.2,2.07,7.97,2.52,8.02,1.41,15.64,4.32,23.6,6,4.74,1.7,9.77,2.29,14.6,3.66,9.24,2.74,18.62,5.13,28.24,6.09,9.95,1.27,20.19,1.79,29.98-.77,3.75-1.03,6.92-3.38,10.33-5.17,3.82-1.87,6.36-5.39,9.46-8.17.32.86.65,1.76.98,2.66.83-.15,1.67-.3,2.51-.42.27.27.79.81,1.05,1.08.78-.42,1.64-.89,2.5-.32-.61,1.04-1.38,1.98-2.12,2.94,1.45.75,2.93,1.46,4.44,2.12-.86.93-1.77,1.82-2.72,2.66-.13-.92-.23-1.84-.33-2.74-1.36.32-2.71.68-4.04,1.08.11-.96.2-1.91.3-2.85-1.6,1.31-1.6,3.37-1.14,5.22-.56.6-1.1,1.22-1.65,1.85-.82-2.87-3.92-2.83-6.17-3.9-.51.53-.99,1.08-1.48,1.65-.82-.1-1.63-.19-2.43-.25.65.67,1.31,1.35,1.98,2.04.78-.14,1.56-.27,2.36-.38-1.01,2.47-3.68,2.86-6.03,3.03,1.29,1.15,4.2,2.05,3.51,4.21-2.3.33-3.4-2.73-5.57-3.33.36,1.51,1.1,2.89,2.07,4.11-3.35.58-7.42,1.89-10.25-.75-1.62-.89-.83-2.9-1.6-4.23-1.17,1.43-1.05,3.37-1.33,5.1,1.12.95,2.26,1.88,3.42,2.79.89-.41,1.79-.8,2.69-1.19.62,2.11,1.35,4.22,2.52,6.12h-51.15c-3.23-1.72-6.85-2.41-10.32-3.45-6.49-2.23-12.95-4.57-19.55-6.46-.77,3.26-.78,6.64-1.46,9.91h-74.56c.18-8.35,2.45-16.45,3.45-24.71-.01-1.1.56-2.76-.87-3.17-2.53-.9-5.27-1.01-7.77-2.03-3.97-1.59-8.13-2.64-12.3-3.57-.91,3.61-.54,7.42-1.36,11.07-1.46,7.41-2.11,14.92-3.02,22.41h-96.34c.65-2.95.78-6.03,1.84-8.87,3.21-7.59,4.76-15.74,7.28-23.56,5.81-21.18,12.02-42.26,18.22-63.34,1.74-6.6,4.29-12.97,5.81-19.62,2.99-9.91,6.31-19.73,9.78-29.49,4.43-11.69,10.83-22.77,19.86-31.52,4.53-4.25,9.33-8.31,14.91-11.12,2.46-1.39,5.15-2.31,7.61-3.7-7.58.48-15.04,2.12-22.61,2.72-31.84,3.92-63.75,7.1-95.62,10.74-18.27,1.95-36.52,4.16-54.8,6.04-16.21,1.41-32.34,3.72-48.54,5.19-6.37.61-12.68-2.5-16.62-7.42-2.99-4.42-4.02-9.75-5.65-14.73-.89-2.88-1.86-5.73-2.63-8.63-7.39.65-14.81.28-22.21.41-11.26.03-22.53.04-33.8.04-1.93.19-3.53-.93-5.03-1.94-1.23-4.17-.18-8.47,1.2-12.44,4.87-15.07,9.87-30.11,14.62-45.22.37-1.15.72-2.29,1.07-3.42,2.53-7.53,5.09-15.05,7.4-22.65,1.84-5.62,4.07-11.19,5.33-16.96-1.19-4.52-2.96-8.87-4.23-13.37-10.48-31.95-20.9-63.91-31.39-95.86-1.17-3.93-1.34-8.28.05-12.16Z"/>
  <path class="cls-7" d="M694.66,653.29c4.52-.43,9.09-.15,13.59-.88,2.64-.04,5.67-.88,8.01.74-6.61.21-13.2.82-19.79,1.32-.61-.39-1.22-.78-1.81-1.18Z"/>
  <path class="cls-41" d="M647.86,656.04c4.42-.19,8.86-.25,13.26-.79,3.14-.09,6.5-.78,9.45.63-6.6.38-13.19.84-19.79,1.19-.97-.09-1.93-.18-2.89-.28l-.03-.74Z"/>
  <path class="cls-72" d="M878.66,663.3c5.13-1.08,10.92-.02,14.74,3.74,4.28,4.34,6.1,10.87,5.15,16.84-1.28,8.75-7.5,15.68-9.55,24.18-.51,1.71-.75,3.73-2.33,4.86-1.68.38-3.28-.52-3.91-2.1-3.37-7.24-7.53-14.08-11.44-21.04-2.04-3.67-3.96-7.67-3.58-11.99-.11-6.55,4.58-12.84,10.91-14.5ZM880.78,673.21c-5.7,2.21-5.43,11.17-.04,13.58,4.27,2.29,9.72-1.42,9.95-6.05.77-5.19-5.05-9.8-9.91-7.53Z"/>
  <path class="cls-72" d="M754.3,751.28c4.65-.62,9.49.77,13.16,3.68,4.63,3.73,7.21,9.76,7.03,15.67.2,6.22-2.02,12.25-5.09,17.57-2.7,4.77-5.15,9.72-6.81,14.96-1.02,2.57-1.57,5.65-3.95,7.38-1.83.52-3.45-.86-4.25-2.38-3.94-6.9-7.09-14.24-11.42-20.92-3.63-5.84-6.54-12.72-5.5-19.74,1.12-8.36,8.51-15.26,16.82-16.22ZM754.95,761.75c-1.72.32-3.35,1.15-4.54,2.45-3.35,3.6-2.72,10.07,1.3,12.93,3.95,3.23,10.43.91,11.99-3.8,2.55-5.52-2.59-12.91-8.76-11.58Z"/>
  <path class="cls-37" d="M701.5,672.41c3.22-.39,5.76,2.34,7.38,4.81,1.72,2.54,4.03,5.58,2.83,8.8-2.9,3.54-9.05,5.09-12.64,1.72-2.19-3.18-2.38-7.48-1.09-11.06.64-1.73,1.51-3.83,3.52-4.27Z"/>
  <path class="cls-20" d="M880.78,673.21c4.86-2.27,10.68,2.34,9.91,7.53-.23,4.63-5.67,8.35-9.95,6.05-5.39-2.42-5.66-11.37.04-13.58Z"/>
  <path class="cls-81" d="M759.17,680.91c3.21-1.41,8.46,1.32,7.4,5.17-1.92,3.4-6.71,3.97-9.45,1.24-2.32-2.02.47-4.9,2.05-6.41Z"/>
  <path class="cls-81" d="M702.41,733.88c1.55-3.09,1.89-6.57,2.12-9.96,2.66.53,5.96,1.27,7.18,4.01,1.1,4.68-5.44,9.71-9.3,5.95Z"/>
  <path class="cls-29" d="M944.14,693.54c-.36-.86-.35-1.78.17-2.55,4.31,12.15,8.17,24.45,12.37,36.65-.2.2-.59.58-.79.77-4.08-11.57-7.71-23.29-11.75-34.87Z"/>
  <path class="cls-75" d="M781.63,700.09c-.42-1.31,1.22-2.14,2.29-1.62,2.21,2.05,3,5.47,5.91,6.79,2.05.96,3.34,2.88,4.96,4.39-.52,2.26-1.77,4.17-3.37,5.83-1.67-.07-3.82.37-4.94-1.21-1.76-2.13-1.92-4.97-2.1-7.59-.11-2.48-1.92-4.36-2.74-6.59Z"/>
  <path class="cls-33" d="M1146.9,711.54c1.05-3.79,1.22-7.82,2.81-11.44.09.44.27,1.32.37,1.76-4.07,20.44-8.33,40.84-12.34,61.3-1.59-1.92-.15-4.36.15-6.47,2.86-15.07,6.26-30.05,9.01-45.15Z"/>
  <path class="cls-59" d="M775.74,706.62c.84-.2,1.69-.37,2.53-.55,1.55,2.19,2.75,5.08.85,7.47-1.15-.04-2.81.91-3.59-.33-.58-2.17-.12-4.43.2-6.6Z"/>
  <path class="cls-72" d="M683.23,707.53c1.91-.41,3.85-.65,5.8-.7,3.58-.03,7.36.84,9.97,3.45,3.09,2.75,4.63,6.71,5.49,10.67-.03.98-.02,1.98.03,2.97-.22,3.39-.56,6.87-2.12,9.96-2.95,6.27-6.41,12.36-8.19,19.11-.75,1.73-.86,4.4-2.88,5.11-2.39.65-2.97-2.25-3.96-3.75-3.35-6.24-6.55-12.55-10.43-18.47-3.58-5.36-6.02-12.25-3.69-18.6,1.55-4.65,5.66-7.81,9.98-9.75ZM686,716.66c-2.72,1.08-4.53,3.94-4.45,6.86-.11,4,3.65,7.9,7.76,7.26,3.87-.2,6.93-4.18,6.34-7.97-.25-4.58-5.41-7.73-9.65-6.15Z"/>
  <path class="cls-49" d="M794.77,709.65c.11-.27.34-.8.45-1.08.37.81.72,1.63,1.09,2.46-2.17,1.68-1.54,4.61-2.29,6.95l-.69-.09c-.04-.91-.06-1.8-.06-2.69-.7.25-1.4.49-2.1.73l.22-.46c1.6-1.66,2.85-3.56,3.37-5.83Z"/>
  <path class="cls-12" d="M686,716.66c4.24-1.58,9.4,1.56,9.65,6.15.59,3.8-2.47,7.77-6.34,7.97-4.11.63-7.87-3.26-7.76-7.26-.08-2.91,1.73-5.77,4.45-6.86Z"/>
  <path class="cls-76" d="M861.73,720.33c2.58.06,2.57,3.32,3.6,5.04,2.71,4.35,5.74,8.53,8.02,13.13.52,1.18.62,3.22-1.02,3.52-1.87,1.15-3.89-.22-5.12-1.63-3.17-3.67-4.81-8.3-7.26-12.43-.63-1.43-2.07-2.87-1.36-4.52.35-1.52,1.5-2.92,3.13-3.11Z"/>
  <path class="cls-2" d="M716.71,722.03c2.07-.53,4.23.06,6.12.93,1.4,1.08,2.4,3.91.06,4.54-2.92-.12-7.18-1.8-6.18-5.47Z"/>
  <path class="cls-72" d="M912.8,730.44c5.06-5.31,14.06-5.8,19.79-1.29,4.94,3.66,6.84,10.31,5.82,16.22-1.1,6.48-4.27,12.35-7.28,18.11-1.96,3.07-2.05,7.09-4.35,9.93-2.4.64-3.54-1.99-4.54-3.65-2.64-8.77-9.45-15.5-12.61-24.03-1.95-5.17-.55-11.26,3.16-15.29ZM923.58,735.12c-5.03.18-8.02,6.37-5.49,10.58,1.95,4.29,8.39,5.12,11.25,1.29,4.17-4.3.27-12.54-5.76-11.88Z"/>
  <path class="cls-14" d="M1102.35,731.65c.52-1.86,1.43-3.68,3.19-4.64-.84,7.5-3.47,14.62-5.56,21.82-3.41,12.07-7.16,24.03-11.46,35.81-.96,0-1.93,0-2.88.02,1.18-5.36,3.35-10.46,4.84-15.74,4-12.4,7.89-24.85,11.88-37.26Z"/>
  <path class="cls-35" d="M754.95,761.75c6.17-1.33,11.31,6.06,8.76,11.58-1.57,4.71-8.04,7.04-11.99,3.8-4.02-2.86-4.65-9.33-1.3-12.93,1.18-1.3,2.82-2.14,4.54-2.45Z"/>
  <path class="cls-79" d="M850.83,761.98c2.98.24,5.67,1.84,7.93,3.7,2.05,2.53,3.1,5.71,5.1,8.29,1.69,2.62,4.83,4.47,4.99,7.88-3.64-.97-7.39-2.25-10.45-4.49.49-.01,1.48-.04,1.98-.06-.34-1.27-.77-2.52-1.54-3.58-1.95-2.83-4.11-5.51-6.28-8.17-.91-1.02-1.39-2.3-1.73-3.58Z"/>
  <path class="cls-6" d="M781.59,764.9c.19.21.56.63.75.84-1.24,2.83-2.94,5.53-3.46,8.63-.6,3.61-.36,7.34.73,10.84-.22.21-.68.63-.91.84-1.13-3.85-1.34-7.94-.85-11.9.67-3.28,2.38-6.23,3.73-9.25Z"/>
  <path class="cls-19" d="M980.79,767.25c11.63-.26,23.28-.22,34.92-.01-.34,6.79-2.64,13.25-4.1,19.84-1.64,7.39-3.48,14.73-5.41,22.06-1.74,5.93-2.83,12.05-5.21,17.79-6.9-19.83-13.56-39.75-20.2-59.67Z"/>
  <path class="cls-71" d="M654.98,783.53c-2.19-5.25-.88-12.04,4.15-15.16l.7.06c-1.6,2.19-3.98,3.97-4.54,6.77-.9,2.74.65,5.6-.32,8.32Z"/>
  <path class="cls-38" d="M677.48,780.45c5.06-.7,10.29.56,14.93,2.53,1.56.29,1.2,2.67-.39,2.38-4.89-.71-9.82-1.5-14.55-2.94v-1.98Z"/>
  <path class="cls-30" d="M968.81,787.9c.89-1.39,1.48-3.65,3.58-3.14,1.07,2.43,2.62,4.65,3.44,7.19-.07,2.52-1.26,4.93-1.07,7.5.09,2.52-.7,5.61-3.26,6.67-1.91.81-3.56-.91-4.99-1.93-2.26-1.59-3.58-4.61-2.7-7.29.98-3.35,3.32-6.02,4.99-9.01Z"/>
  <path class="cls-61" d="M696.35,788.38c2.13-2.25,5.59-3.07,8.36-1.5,1.15.28,1.31,1.48,1.45,2.47-2.71.65-5.53,1.39-8.33.9-.61-.53-1.01-1.24-1.48-1.87Z"/>
  <path class="cls-54" d="M943.75,793.23c.79-.42,1.72-1.48,2.66-.67,2.05,1.2,3.62,3.06,5.71,4.2,2.19,1.34,4.67,2.24,6.62,3.96,1.55,2.31,2.75,5.01,2.81,7.86-.82.24-1.87,1.53-2.66.62-5.41-4.98-10.08-10.66-15.12-15.97Z"/>
  <path class="cls-9" d="M618.49,815.88c2.36-6.67,4.15-13.56,6.78-20.12.06.42.2,1.27.27,1.68-2.31,7.6-4.87,15.12-7.4,22.65-.86-1.36-.07-2.86.35-4.2Z"/>
  <path class="cls-4" d="M859.68,799.59c.82-.73,2.7.81,1.43,1.48-2.48,1.79-5.31,3.08-7.66,5.07-4.37,3.59-8.41,7.83-10.93,12.95-1.57,3.1-.3,6.93,2.12,9.22,2.05-2.21,3.61-4.84,5.83-6.9,2.01-1.84,3.51-4.5,6.29-5.25-.22.94-.22,2.05-1.01,2.77-2.81,3.07-5.74,6.04-8.32,9.32-1.7,2.12-2.56,5.13-1.29,7.69,1.95,4.17,5.94,7.13,10.12,8.82,4.73,1.61,10.34,3,14.91.17.37,1.83-.88,3.32-2.64,3.69-6.58.6-13.58-.72-18.76-5.03-4.02-3.17-6.93-8.27-6.15-13.51-2.5-1.89-3.73-5.07-3.4-8.15.48-4.2,2.56-8.08,5.22-11.3,3.92-4.6,8.82-8.38,14.22-11.06Z"/>
  <path class="cls-5" d="M962.21,810.73c2.52-.22,5.01.46,7.48.85.04.49.11,1.45.15,1.93-2.59.79-5.49.56-7.93-.57-.98-.37-.56-1.92.3-2.21Z"/>
  <path class="cls-10" d="M0,823.37c12.66-.18,581.02-.08,593.68-.12,7.8.12,15.61-.22,23.39.27-4.75,15.11-9.75,30.15-14.62,45.22-1.37,3.97-2.43,8.28-1.2,12.44,1.24,3.65,4.54,6.01,7.85,7.68,6.78,3.72,14.06,6.39,20.95,9.86,12.18,5.71,24.45,11.24,36.72,16.76,7.71,2.99,15.44,7.03,23.98,6.23,19.01-1.39,37.92-3.87,56.9-5.53,31.44-2.41,62.78-6.02,94.21-8.67,9.13-.91,18.28-1.66,27.41-2.56,5.67-.33,11.28-1.42,16.99-1.38-9.02,8.75-15.43,19.83-19.86,31.52-74.27-.22-148.54.06-222.8-.08-29.3.09-614.31-5.95-643.6-5.76v-105.89Z"/>
  <path class="cls-84" d="M857.35,836.72c-1.16-.58-.55-2.12.67-1.88,1.97.53,3.66,1.74,5.44,2.71,8.11,4.7,16.41,9.22,25.46,11.84,4.89,1.69,10.14,1.95,15.06,3.54-4.25.62-8.58.14-12.78-.53-3.63-.86-7.19-1.93-10.65-3.31-3.38-1.35-6.42-3.42-9.88-4.58-4.48-2.55-8.84-5.28-13.33-7.79Z"/>
  <path class="cls-16" d="M879.65,850.29c-.6-.85-.3-1.24.91-1.2,3.45,1.39,7.02,2.45,10.65,3.31-1.98,2.08-4.87,2.74-7.57,3.33-1.01-2.05-2.52-3.74-3.99-5.45Z"/>
  <path class="cls-17" d="M1055.08,858.45c1.47.37,3.45.44,4.09,2.1,1.5,3.33.77,7.1.56,10.62-.04,2-1.09,4.16-.06,6.07-1.71,3.03-2.52,6.43-3.78,9.66-2.69,7.83-5.3,15.69-8.16,23.46-21.17-7.51-42.24-15.41-63.82-21.68-5.46-1.29-10.83-3.11-16.42-3.75l.6-.11c3.49-.73,7.09-.02,10.46.94.74.24,1.43.13,2.09-.33,9.46,3.41,19.31,5.74,29.31,6.88,8.07.94,16.62.35,23.94-3.45,4.02-1.86,7-5.25,9.93-8.45,5.21-6.5,7.85-14.51,11.27-21.98Z"/>
  <path class="cls-74" d="M751.08,869.04c-.19-1.91,1.34-3.23,2.97-3.81.94,1.43-2.11,1.74-1.92,3.25-.31,4.42.73,9.64-2.46,13.26,1.12-4.15,1.56-8.41,1.41-12.7Z"/>
  <path class="cls-24" d="M601.25,881.18c1.5,1.01,3.11,2.13,5.03,1.94,11.26,0,22.53-.01,33.8-.04,7.4-.13,14.82.24,22.21-.41.77,2.9,1.74,5.76,2.63,8.63,1.63,4.99,2.66,10.31,5.65,14.73,3.94,4.91,10.25,8.03,16.62,7.42,16.21-1.47,32.33-3.78,48.54-5.19,18.28-1.88,36.53-4.09,54.8-6.04,31.87-3.64,63.79-6.82,95.62-10.74,7.57-.6,15.03-2.24,22.61-2.72-2.46,1.39-5.15,2.31-7.61,3.7-5.58,2.81-10.38,6.88-14.91,11.12-5.7-.04-11.31,1.05-16.99,1.38-9.13.9-18.28,1.65-27.41,2.56-31.43,2.65-62.77,6.26-94.21,8.67-18.98,1.66-37.89,4.15-56.9,5.53-8.54.8-16.27-3.24-23.98-6.23-12.27-5.51-24.53-11.05-36.72-16.76-6.9-3.47-14.17-6.15-20.95-9.86-3.3-1.67-6.6-4.04-7.85-7.68Z"/>
  <path class="cls-68" d="M0,929.26c29.29-.19,614.3,5.85,643.6,5.76,74.26.14,148.53-.15,222.8.08-3.47,9.76-6.79,19.57-9.78,29.49-31.22-.35-62.44-.04-93.66-.15-54.31.13-108.63.06-162.95.11-14.77.06-585.25-.21-600.01.1v-35.38Z"/>
  <path class="cls-64" d="M600.01,964.54c54.32-.05,108.64.02,162.95-.11,31.22.11,62.44-.2,93.66.15-1.53,6.66-4.08,13.02-5.81,19.62-6.2,21.08-12.41,42.16-18.22,63.34-2.52,7.82-4.07,15.97-7.28,23.56-1.05,2.85-1.19,5.92-1.84,8.87H0v-115.35c14.76-.31,585.24-.04,600.01-.1Z"/>
  <path class="cls-50" d="M1017.69,1070.07c6.6,1.89,13.06,4.23,19.55,6.46,3.47,1.04,7.09,1.74,10.32,3.45h-31.33c.68-3.28.7-6.65,1.46-9.91Z"/>
  <path id="güneş" class="cls-13" d="M653.22,609.44c-7.03-32.26.39-67.14,18.69-94.48,7.5-11.49,17.36-21.21,27.49-30.38,20.86-16.46,46.85-26.75,73.5-27.96,29.91-1.27,60.38,7.28,84.47,25.29,14.83,11.72,28.05,25.86,37.16,42.52,14.39,27.41,24.69,56.24,16.86,86.41"/>
  <g id="martı2">
    <path class="cls-36" d="M105.59,193.92c1.58-1.9,4.23-.88,6.26-.52-1.94.48-3.84,1.02-5.75,1.56.62,1.91,1.22,3.83,1.9,5.72-1.6-1.72-4.58-4.38-2.41-6.77Z"/>
    <path class="cls-11" d="M106.09,194.96c1.91-.54,3.81-1.08,5.75-1.56,8.74,1.66,17.49,3.64,26.46,3.73,3.15,4.18,5.88,8.73,9.58,12.48,3.86,3.93,8.34,7.19,12.5,10.81-.39.44-1.17,1.31-1.55,1.75-15.98-1.32-31.77-6.43-44.74-16.01-2.15-1.68-4.46-3.28-6.11-5.48-.68-1.89-1.28-3.81-1.9-5.72Z"/>
    <path class="cls-80" d="M138.31,197.13c.59.01,1.79.03,2.4.04l.41.73c5.51,10.52,15.11,18.19,25.17,24.12l.34.27c-2.46.46-5.23-.13-7.79-.12.38-.44,1.15-1.31,1.55-1.75-4.16-3.62-8.63-6.88-12.5-10.81-3.71-3.75-6.43-8.3-9.58-12.48Z"/>
    <path class="cls-1" d="M141.12,197.9c4.39-.44,8.82-.32,13.16.48-3.48.67-7.01.85-10.55.81,4.1,7.3,10.59,12.77,17.3,17.59,3.13,2.22,7.25,3.6,8.8,7.42-1.17-.74-2.34-1.49-3.54-2.18-10.07-5.93-19.66-13.6-25.17-24.12Z"/>
    <path class="cls-3" d="M143.73,199.19c3.54.04,7.07-.15,10.55-.81,4.46-.78,8.97.06,13.46.11,9.48.23,19.41,1.29,27.73,6.22,12.09,7.5,21.57,18.4,33.35,26.3,6.24,4.16,13.9,8.67,21.58,5.45l-.56.5c-.73.62-1.45,1.27-2.17,1.91,5.58-1.26,10.91-3.39,16.39-5.01,3.7-1.2,7.55,0,11.17.9,1.01.34,1.76,1.14,2.45,1.92.56,2.98-.03,5.97-1,8.78-.51-.22-1.53-.68-2.05-.91-.42-1.89-.84-3.78-1.24-5.68-2.11-.61-5.24-1.76-6.25,1.11-1.89,3.31,1.83,5.42,4,7.21-6.21,3.71-11.59,8.51-17.21,13.01-6.79,5.45-15.4,7.59-23.06,11.46-8.21,3.09-17.35,1.24-25.7,3.75-5.15,1.38-7.7,7.06-12.94,8.27-6.2,1.66-14.2.41-17.61-5.61-1.22-1.74-.49-5.09,1.92-5.18,12.81-1.48,22.31-10.89,32.82-17.37l-.86-.47c-4.45-2.83-9.37-4.86-13.6-8.05-7.53-5.4-13.93-12.14-21.07-18.02-1.65-1.31-3.09-2.87-3.98-4.8-1.55-3.83-5.68-5.2-8.8-7.42-6.71-4.81-13.2-10.29-17.3-17.59Z"/>
    <path class="cls-55" d="M292.83,181.44c4.5-1.69,9.78-5.58,14.42-2.29-1.57,5.15-6.85,7.44-10.63,10.74-14.18,10.62-28.16,22.83-35.46,39.35-5.16,1.76-10.22,4.06-15.65,4.82-4.43.12-8.33-2.43-12.28-4.08.75-1.91,1.62-3.78,2.85-5.42,8.98-11.81,18.43-24.33,32.23-30.72,4.59-1.38,8.82-3.67,13.02-5.95,5.73-3.14,12.14-4.73,17.96-7.64-2.18.23-4.35.61-6.46,1.19Z"/>
    <path class="cls-26" d="M268.31,193.84c7.53-5.27,16.02-8.99,24.52-12.4,2.11-.58,4.28-.95,6.46-1.19-5.83,2.92-12.23,4.51-17.96,7.64-4.2,2.28-8.43,4.56-13.02,5.95Z"/>
    <path class="cls-23" d="M228.82,231.02c1.56.2,3.13.4,4.7.61-.07-.41-.22-1.25-.29-1.65,3.96,1.65,7.85,4.2,12.28,4.08,5.43-.77,10.49-3.06,15.65-4.82l.4.94c-1.46.62-2.9,1.23-4.35,1.85,1.1.21,2.21.42,3.32.64-3.38,1.28-6.72,2.63-10.14,3.8-7.67,3.23-15.34-1.29-21.58-5.45Z"/>
    <path class="cls-25" d="M247.67,238.88c.71-.65,1.44-1.29,2.17-1.91,5.53-1.67,11.01-3.52,16.62-4.91,3.23-.89,6.41.55,8.77,2.71-3.62-.91-7.47-2.1-11.17-.9-5.48,1.62-10.81,3.75-16.39,5.01Z"/>
    <path class="cls-45" d="M191.76,265.62c5.7-3.32,10.61-7.94,16.73-10.56l.86.47c-10.51,6.48-20.01,15.88-32.82,17.37,5-2.58,10.49-4.18,15.23-7.28Z"/>
    <path class="cls-67" d="M267.13,240c1.01-2.87,4.14-1.72,6.25-1.11.4,1.9.82,3.78,1.24,5.68.52.23,1.55.69,2.05.91-3.58,2.16-7.33,4.09-10.63,6.68-6.28,4.86-12.01,10.62-19.22,14.15-5.06,2.45-10.44,4.25-15.96,5.36,7.66-3.87,16.26-6.01,23.06-11.46,5.61-4.5,11-9.3,17.21-13.01-2.17-1.79-5.89-3.9-4-7.21ZM269.04,239.49c-.95,2.04-.06,4,1.03,5.77.72-.25,2.15-.74,2.87-.98l-.56-1.04c1.8.01.77-3.39-.71-2.35l-.08-.91c-.63-.13-1.92-.37-2.55-.5Z"/>
    <path class="cls-63" d="M269.04,239.49c.63.13,1.92.37,2.55.5l.08.91c.17.58.54,1.76.71,2.35l.56,1.04c-.72.24-2.15.73-2.87.98-1.09-1.77-1.98-3.73-1.03-5.77Z"/>
    <path class="cls-15" d="M277.68,236.7c5.77-.31,12.14.25,16.63,4.33-5.08,4.02-12.16,2.42-17.84,5.15l.21-.7c.97-2.81,1.56-5.8,1-8.78Z"/>
    <path class="cls-18" d="M271.67,240.9c1.48-1.04,2.51,2.36.71,2.35-.17-.58-.54-1.76-.71-2.35Z"/>
  </g>
  <g id="martı2-2" data-name="martı2">
    <path class="cls-36" d="M38.33,414.72c1.21-1.46,3.24-.68,4.8-.4-1.49.37-2.95.78-4.41,1.2.47,1.47.93,2.94,1.46,4.39-1.22-1.32-3.51-3.36-1.84-5.19Z"/>
    <path class="cls-11" d="M38.72,415.52c1.46-.42,2.92-.83,4.41-1.2,6.7,1.27,13.41,2.79,20.29,2.86,2.42,3.2,4.51,6.69,7.35,9.57,2.96,3.01,6.39,5.51,9.58,8.29-.3.33-.89,1-1.18,1.34-12.25-1.01-24.36-4.93-34.3-12.27-1.65-1.28-3.42-2.51-4.68-4.2-.52-1.45-.98-2.92-1.46-4.39Z"/>
    <path class="cls-80" d="M63.42,417.19c.46,0,1.37.03,1.84.03l.32.56c4.23,8.06,11.58,13.95,19.3,18.49l.26.2c-1.89.35-4.01-.1-5.97-.09.29-.34.88-1.01,1.18-1.34-3.19-2.77-6.62-5.28-9.58-8.29-2.84-2.87-4.93-6.36-7.35-9.57Z"/>
    <path class="cls-1" d="M65.57,417.78c3.36-.34,6.76-.25,10.09.37-2.67.51-5.37.65-8.09.62,3.14,5.59,8.12,9.79,13.26,13.48,2.4,1.71,5.56,2.76,6.75,5.69-.9-.56-1.79-1.14-2.72-1.67-7.72-4.54-15.07-10.43-19.3-18.49Z"/>
    <path class="cls-3" d="M67.57,418.76c2.71.03,5.42-.11,8.09-.62,3.42-.6,6.88.05,10.32.09,7.27.18,14.88.99,21.26,4.77,9.27,5.75,16.53,14.11,25.57,20.16,4.78,3.19,10.66,6.65,16.54,4.18l-.43.39c-.56.48-1.11.97-1.66,1.47,4.28-.97,8.36-2.6,12.56-3.84,2.84-.92,5.78,0,8.56.69.77.26,1.35.87,1.88,1.47.43,2.28-.02,4.57-.77,6.73-.39-.17-1.18-.52-1.57-.7-.32-1.45-.64-2.9-.95-4.35-1.62-.47-4.02-1.35-4.79.85-1.45,2.54,1.4,4.15,3.06,5.52-4.76,2.84-8.89,6.52-13.19,9.97-5.21,4.18-11.81,5.82-17.68,8.79-6.3,2.37-13.3.95-19.71,2.88-3.95,1.06-5.9,5.41-9.92,6.34-4.76,1.27-10.89.31-13.5-4.3-.94-1.34-.37-3.9,1.47-3.97,9.82-1.14,17.11-8.35,25.16-13.31l-.66-.36c-3.41-2.17-7.19-3.73-10.43-6.17-5.77-4.14-10.68-9.31-16.15-13.81-1.26-1-2.37-2.2-3.05-3.68-1.19-2.93-4.35-3.99-6.75-5.69-5.14-3.69-10.12-7.89-13.26-13.48Z"/>
    <path class="cls-55" d="M181.88,405.15c3.45-1.3,7.49-4.28,11.05-1.76-1.2,3.95-5.25,5.7-8.15,8.23-10.87,8.14-21.59,17.5-27.19,30.17-3.95,1.35-7.84,3.11-12,3.7-3.4.09-6.38-1.86-9.42-3.13.58-1.46,1.24-2.9,2.18-4.16,6.89-9.06,14.13-18.65,24.71-23.55,3.52-1.06,6.76-2.82,9.98-4.56,4.39-2.4,9.31-3.62,13.77-5.86-1.67.18-3.34.47-4.95.91Z"/>
    <path class="cls-26" d="M163.08,414.66c5.77-4.04,12.28-6.9,18.8-9.51,1.61-.44,3.28-.73,4.95-.91-4.47,2.23-9.38,3.45-13.77,5.86-3.22,1.74-6.46,3.5-9.98,4.56Z"/>
    <path class="cls-23" d="M132.81,443.16c1.2.15,2.4.31,3.6.47-.06-.31-.17-.96-.22-1.27,3.03,1.27,6.02,3.22,9.42,3.13,4.16-.59,8.04-2.35,12-3.7l.31.72c-1.12.48-2.22.94-3.33,1.42.85.16,1.69.32,2.55.49-2.59.98-5.15,2.02-7.77,2.91-5.88,2.47-11.76-.99-16.54-4.18Z"/>
    <path class="cls-25" d="M147.26,449.19c.55-.5,1.1-.99,1.66-1.47,4.24-1.28,8.44-2.7,12.74-3.76,2.47-.68,4.92.42,6.72,2.08-2.78-.7-5.73-1.61-8.56-.69-4.2,1.24-8.29,2.87-12.56,3.84Z"/>
    <path class="cls-45" d="M104.39,469.7c4.37-2.54,8.14-6.09,12.82-8.1l.66.36c-8.06,4.97-15.34,12.18-25.16,13.31,3.83-1.98,8.04-3.2,11.68-5.58Z"/>
    <path class="cls-67" d="M162.18,450.05c.78-2.2,3.17-1.32,4.79-.85.31,1.46.63,2.9.95,4.35.4.17,1.19.53,1.57.7-2.74,1.66-5.62,3.14-8.15,5.12-4.82,3.73-9.2,8.14-14.73,10.85-3.88,1.88-8.01,3.25-12.24,4.11,5.87-2.97,12.47-4.61,17.68-8.79,4.3-3.45,8.43-7.13,13.19-9.97-1.66-1.37-4.51-2.99-3.06-5.52ZM163.64,449.66c-.73,1.56-.04,3.07.79,4.42.55-.19,1.65-.57,2.2-.75l-.43-.8c1.38,0,.59-2.6-.54-1.8l-.06-.7c-.48-.1-1.47-.29-1.95-.38Z"/>
    <path class="cls-63" d="M163.64,449.66c.48.1,1.47.29,1.95.38l.06.7c.13.45.41,1.35.54,1.8l.43.8c-.55.18-1.65.56-2.2.75-.83-1.35-1.52-2.86-.79-4.42Z"/>
    <path class="cls-15" d="M170.27,447.52c4.42-.24,9.31.19,12.75,3.32-3.89,3.08-9.32,1.86-13.67,3.95l.16-.54c.74-2.16,1.2-4.45.77-6.73Z"/>
    <path class="cls-18" d="M165.66,450.74c1.13-.8,1.92,1.81.54,1.8-.13-.45-.41-1.35-.54-1.8Z"/>
  </g>
  <g id="martı2-3" data-name="martı2">
    <path class="cls-36" d="M1798.07,477.75c-1.21-1.46-3.24-.68-4.8-.4,1.49.37,2.95.78,4.41,1.2-.47,1.47-.93,2.94-1.46,4.39,1.22-1.32,3.51-3.36,1.84-5.19Z"/>
    <path class="cls-11" d="M1797.68,478.55c-1.46-.42-2.92-.83-4.41-1.2-6.7,1.27-13.41,2.79-20.29,2.86-2.42,3.2-4.51,6.69-7.35,9.57-2.96,3.01-6.39,5.51-9.58,8.29.3.33.89,1,1.18,1.34,12.25-1.01,24.36-4.93,34.3-12.27,1.65-1.28,3.42-2.51,4.68-4.2.52-1.45.98-2.92,1.46-4.39Z"/>
    <path class="cls-80" d="M1772.98,480.21c-.46,0-1.37.03-1.84.03l-.32.56c-4.23,8.06-11.58,13.95-19.3,18.49l-.26.2c1.89.35,4.01-.1,5.97-.09-.29-.34-.88-1.01-1.18-1.34,3.19-2.77,6.62-5.28,9.58-8.29,2.84-2.87,4.93-6.36,7.35-9.57Z"/>
    <path class="cls-1" d="M1770.83,480.8c-3.36-.34-6.76-.25-10.09.37,2.67.51,5.37.65,8.09.62-3.14,5.59-8.12,9.79-13.26,13.48-2.4,1.71-5.56,2.76-6.75,5.69.9-.56,1.79-1.14,2.72-1.67,7.72-4.54,15.07-10.43,19.3-18.49Z"/>
    <path class="cls-3" d="M1768.82,481.79c-2.71.03-5.42-.11-8.09-.62-3.42-.6-6.88.05-10.32.09-7.27.18-14.88.99-21.26,4.77-9.27,5.75-16.53,14.11-25.57,20.16-4.78,3.19-10.66,6.65-16.54,4.18l.43.39c.56.48,1.11.97,1.66,1.47-4.28-.97-8.36-2.6-12.56-3.84-2.84-.92-5.78,0-8.56.69-.77.26-1.35.87-1.88,1.47-.43,2.28.02,4.57.77,6.73.39-.17,1.18-.52,1.57-.7.32-1.45.64-2.9.95-4.35,1.62-.47,4.02-1.35,4.79.85,1.45,2.54-1.4,4.15-3.06,5.52,4.76,2.84,8.89,6.52,13.19,9.97,5.21,4.18,11.81,5.82,17.68,8.79,6.3,2.37,13.3.95,19.71,2.88,3.95,1.06,5.9,5.41,9.92,6.34,4.76,1.27,10.89.31,13.5-4.3.94-1.34.37-3.9-1.47-3.97-9.82-1.14-17.11-8.35-25.16-13.31l.66-.36c3.41-2.17,7.19-3.73,10.43-6.17,5.77-4.14,10.68-9.31,16.15-13.81,1.26-1,2.37-2.2,3.05-3.68,1.19-2.93,4.35-3.99,6.75-5.69,5.14-3.69,10.12-7.89,13.26-13.48Z"/>
    <path class="cls-55" d="M1654.51,468.18c-3.45-1.3-7.49-4.28-11.05-1.76,1.2,3.95,5.25,5.7,8.15,8.23,10.87,8.14,21.59,17.5,27.19,30.17,3.95,1.35,7.84,3.11,12,3.7,3.4.09,6.38-1.86,9.42-3.13-.58-1.46-1.24-2.9-2.18-4.16-6.89-9.06-14.13-18.65-24.71-23.55-3.52-1.06-6.76-2.82-9.98-4.56-4.39-2.4-9.31-3.62-13.77-5.86,1.67.18,3.34.47,4.95.91Z"/>
    <path class="cls-26" d="M1673.31,477.69c-5.77-4.04-12.28-6.9-18.8-9.51-1.61-.44-3.28-.73-4.95-.91,4.47,2.23,9.38,3.45,13.77,5.86,3.22,1.74,6.46,3.5,9.98,4.56Z"/>
    <path class="cls-23" d="M1703.59,506.19c-1.2.15-2.4.31-3.6.47.06-.31.17-.96.22-1.27-3.03,1.27-6.02,3.22-9.42,3.13-4.16-.59-8.04-2.35-12-3.7l-.31.72c1.12.48,2.22.94,3.33,1.42-.85.16-1.69.32-2.55.49,2.59.98,5.15,2.02,7.77,2.91,5.88,2.47,11.76-.99,16.54-4.18Z"/>
    <path class="cls-25" d="M1689.14,512.22c-.55-.5-1.1-.99-1.66-1.47-4.24-1.28-8.44-2.7-12.74-3.76-2.47-.68-4.92.42-6.72,2.08,2.78-.7,5.73-1.61,8.56-.69,4.2,1.24,8.29,2.87,12.56,3.84Z"/>
    <path class="cls-45" d="M1732,532.72c-4.37-2.54-8.14-6.09-12.82-8.1l-.66.36c8.06,4.97,15.34,12.18,25.16,13.31-3.83-1.98-8.04-3.2-11.68-5.58Z"/>
    <path class="cls-67" d="M1671.15,518.6c4.76,2.84,8.89,6.52,13.19,9.97,5.21,4.18,11.81,5.82,17.68,8.79-4.23-.86-8.36-2.23-12.24-4.11-5.53-2.71-9.92-7.13-14.73-10.85-2.53-1.98-5.41-3.46-8.15-5.12.39-.17,1.18-.52,1.57-.7.32-1.45.64-2.9.95-4.35,1.62-.47,4.02-1.35,4.79.85,1.45,2.54-1.4,4.15-3.06,5.52ZM1670.8,513.07l-.06.7c-1.13-.8-1.92,1.81-.54,1.8l-.43.8c.55.18,1.65.56,2.2.75.83-1.35,1.52-2.86.79-4.42-.48.1-1.47.29-1.95.38Z"/>
    <path class="cls-63" d="M1672.75,512.68c-.48.1-1.47.29-1.95.38l-.06.7c-.13.45-.41,1.35-.54,1.8l-.43.8c.55.18,1.65.56,2.2.75.83-1.35,1.52-2.86.79-4.42Z"/>
    <path class="cls-15" d="M1666.13,510.54c-4.42-.24-9.31.19-12.75,3.32,3.89,3.08,9.32,1.86,13.67,3.95l-.16-.54c-.74-2.16-1.2-4.45-.77-6.73Z"/>
    <path class="cls-18" d="M1670.73,513.76c-1.13-.8-1.92,1.81-.54,1.8.13-.45.41-1.35.54-1.8Z"/>
  </g>
  <g id="martı3">
    <path class="cls-66" d="M1820.95,52.6c7.95-.69,15.93-1.72,23.91-1.99l-.97,1.03c-4.7,4.09-11.35,3.98-15.04,9.83-3.21,5.52-7.22,10.12-11.34,14.51,3.73,5.2,9.43,6.25,14.39,8.56,1.48-.2,3.43,3.2,1.37,3.87-3.97,3.34-8.55.11-12.81.02-4.48.13-8.92,1.83-13.39.86-5.61-1.33-10.54-6.13-13.35-12.38-.7-1.69-1.39-3.38-2.05-5.08,1.64-1.76,2.99-4.8,5.47-4.48,3.34.27,6.44,2.1,9.59,3.46,4.37-6.43,6.53-17.14,14.23-18.21ZM1796,74.25c-1.47,1.61.05,5.94,2.01,4.12,1.44-1.6-.15-5.88-2.01-4.12Z"/>
    <path class="cls-78" d="M1828.85,61.47c3.69-5.85,10.34-5.74,15.04-9.83,2.28-.39,4.59-.36,6.92-.24-1.32,2.02-2.87,3.87-4.86,4.72-5.53,2.59-11.29,4.26-17.1,5.34Z"/>
    <path class="cls-22" d="M1779.35,74.77c3.63-3.18,8.07-3.54,12.33-2.95.65,1.69,1.34,3.38,2.05,5.08l.49,1.21c-4.95-1.24-9.91-2.26-14.87-3.34Z"/>
    <path class="cls-48" d="M1796,74.25c1.86-1.76,3.45,2.52,2.01,4.12-1.96,1.82-3.48-2.51-2.01-4.12Z"/>
  </g>
  <g id="martı3-2" data-name="martı3">
    <path class="cls-66" d="M101.07,72.13c3.15-1.36,6.24-3.2,9.59-3.46,2.48-.31,3.83,2.73,5.47,4.48-.65,1.69-1.34,3.38-2.05,5.08-2.81,6.25-7.74,11.05-13.35,12.38-4.47.97-8.91-.74-13.39-.86-4.26.09-8.83,3.32-12.81-.02-2.06-.67-.11-4.07,1.37-3.87,4.96-2.3,10.66-3.35,14.39-8.56-4.12-4.39-8.13-9-11.34-14.51-3.69-5.85-10.34-5.74-15.04-9.83l-.97-1.03c7.98.27,15.97,1.3,23.91,1.99,7.7,1.07,9.86,11.78,14.23,18.21ZM109.78,79.7c1.96,1.82,3.48-2.51,2.01-4.12-1.86-1.76-3.45,2.52-2.01,4.12Z"/>
    <path class="cls-78" d="M78.95,62.79c-3.69-5.85-10.34-5.74-15.04-9.83-2.28-.39-4.59-.36-6.92-.24,1.32,2.02,2.87,3.87,4.86,4.72,5.53,2.59,11.29,4.26,17.1,5.34Z"/>
    <path class="cls-22" d="M128.45,76.1c-3.63-3.18-8.07-3.54-12.33-2.95-.65,1.69-1.34,3.38-2.05,5.08l-.49,1.21c4.95-1.24,9.91-2.26,14.87-3.34Z"/>
    <path class="cls-48" d="M111.79,75.58c-1.86-1.76-3.45,2.52-2.01,4.12,1.96,1.82,3.48-2.51,2.01-4.12Z"/>
  </g>
  <g id="martı4">
    <path class="cls-28" d="M1748.53,222c11.96-3.01,20.92-11.85,31.92-16.81,1.94,8.61-5.02,15.12-10.25,20.87-5.69,5.43-10.91,11.67-17.84,15.51-1.97.57-3.93,1.12-5.89,1.67,1.16-6.53,1.92-13.13,2.01-19.77l.05-1.48Z"/>
    <path class="cls-46" d="M1739.97,225.9c1.78-.87,3.54-1.76,5.36-2.62,3.01,9.62-1.78,18.8-6.35,26.99-1.33,2.08-3.02,3.88-4.61,5.75,1.39-10.16,12.44-20.01,5.6-30.12Z"/>
    <path class="cls-83" d="M1745.33,223.28c.78.05,2.37.14,3.15.2-.09,6.64-.85,13.24-2.01,19.77,1.96-.55,3.91-1.1,5.89-1.67-4.36,3.99-8.91,7.88-14.23,10.51l.85-1.81c4.57-8.18,9.36-17.36,6.35-26.99Z"/>
    <path class="cls-58" d="M1703.54,241.22c11.03-7.37,24.02-10.98,36.44-15.32,6.83,10.11-4.22,19.96-5.6,30.12-6.19,15.23-13.63,30.17-24.53,42.64,13.01,7.61,28.57,6.21,42.57,10.43-2.79,7.1-9.14,13.01-16.99,13.59-7.51.87-13.7-4.84-20.99-5.28-7.31.32-14.16,3.31-21.38,4.18-13.86,2.01-28.22-1.94-39.64-9.87.09-2.74.23-5.48.18-8.2-1.64-2.19-3.43-4.23-5.27-6.21-1.73,1.44-3.45,2.86-5.14,4.32-.09-2.47-.14-4.93-.14-7.38.96-3.81,5.03-6.92,9.02-6.16,6.4.78,13.86,4.52,19.43-.71,14.3-12.65,16.3-34.6,32.06-46.15Z"/>
    <path class="cls-42" d="M1640.86,300.44c.16-2.24.89-4.31,2.17-6.21,0,2.46.05,4.91.14,7.38,1.69-1.46,3.42-2.88,5.14-4.32-.3,2.99-.28,6.01.02,9.02,1.32-.71,3.93-2.12,5.25-2.81.05,2.72-.09,5.46-.18,8.2-3.42-1.46-6.78-2.97-10.11-4.54-.85-2.24-1.69-4.48-2.44-6.72Z"/>
    <path class="cls-60" d="M1619.64,306.83c4.82-6.3,12.76-8.11,20.19-9.32.25.73.78,2.21,1.03,2.94.75,2.24,1.58,4.48,2.44,6.72-7.86-1.14-15.78-.78-23.66-.34Z"/>
    <path class="cls-34" d="M1648.32,297.29c1.83,1.97,3.63,4.02,5.27,6.21-1.32.69-3.93,2.1-5.25,2.81-.3-3.01-.32-6.03-.02-9.02Z"/>
  </g>
  <path class="cls-27" d="M839.63,804.31c.52-1.24,1.05-2.47,1.7-3.65.24,1.83,0,3.67-.27,5.5-1.22-.44-2.47-.81-3.73-1.1,0,.6,0,1.21,0,1.82-2.14,2.12-1.6,3.6-2.36,6.46.71-.34-.25.71.46.39.45.58.89,1.17,1.36,1.78,1.62-1.19,3.49-1.93,5.45-2.35.79-1.08,1.57-2.17,2.36-3.26.21.19.63.56.84.74-2.66,3.22-4.75,7.09-5.22,11.3-.34,3.08.9,6.26,3.4,8.15-.79,5.24,2.12,10.34,6.15,13.51,5.18,4.31,12.18,5.62,18.76,5.03.3-.01.91-.04,1.21-.05-.31,3.23-.15,6.5-.7,9.71-.95,2.88-2.62,5.47-3.56,8.37-1.41,4.09-4.87,7.4-9.11,8.4-2.88.69-6.56,1.24-8.8-1.17-2.88-3.1-4.12-7.26-5.73-11.08-1.87-4.94-5.06-9.21-7.09-14.07-2.49-6.17,1.62-13.58-2.49-19.23-2.26-3.19-4.74-6.23-6.65-9.64-2.03-3.11-.02-7.62-2.98-10.29-2.55-2.13-5.3-4.72-8.77-4.94-5.17,1.2-10.14,3.88-15.6,3.38-3.14-.04-5.55-2.33-7.82-4.22-3.42-3.19-7.1-6.45-8.81-10.93-.83-2.52-1.18-5.15-2.01-7.66-1.09-3.5-1.33-7.23-.73-10.84.52-3.1,2.22-5.79,3.46-8.63,1.31-2.77,2.24-5.7,3.11-8.62.82-2.84,2.74-5.16,4.75-7.25,2.66-2.78,6.62-3.52,10.16-4.61,3.52-.92,7.32-2.07,10.91-1.01,2.05,1.73,2.52,4.91,5.13,6.08,3.75,1.77,7.12,4.51,11.23,5.41,1.42-1.32,1.79-3.35,2.98-4.84.83-.6,1.81-.2,2.67.11,4.5,1.73,9.31,3.13,14.18,2.74,2.61-.04,3.71-3.72,1.99-5.47-1.7-2.18-2.72-4.91-5.46-5.5-.97-.21-2.8,1.37-4.18,1.4s-3.16-1.05-3.89-1.24c-1.53-.41-4.09,1.66-4.85-1.09-.51-.87-1.02-4.02-.13-4.09,1.3-.09-.64-3.51.6-3.15,5.29,1.53,4.85-2.13,9.45-2.21,1.73-.12,4.23,1.56,6.01,1.66,2.57.15,4.41-1.17,6.89-.74-2.06-2.88-5.21-4.67-7.51-7.33-1.12-1.13-2.37-2.88-4.2-2.24-2.05.84-1.89,3.67-3.74,4.76-.86-1.44-.75-3.59-2.27-4.51-1.91-.15-2.25,2.29-2.83,3.64-1.12,2.78-.61,6.78-3.95,8.04-.09.91-.18,1.83-.27,2.76-3.52-.34-4.65-4.49-7.76-5.7-3.34-1.33-6.13-3.65-9.36-5.17.42,1.29,1.54,2.1,2.56,2.91,1.41,1.02,1.79,2.83,2.76,4.2,1.14,1.65,2.48,3.21,2.94,5.23-4.11.27-6.56-3.55-9.06-6.17-1.86-2.33-4.56-4.77-7.8-3.84-3.34,2.25-3.58,6.69-5.8,9.77-1.79,2.53-4.39,5.17-7.76,4.95-5.99.37-9.31-7.23-7.18-12.14,2.13-2.91,6.01-3.49,9.38-3.49.16-2.6-.77-5.28-2.78-6.99-1.01-.46-2.1-.74-3.11-1.18-.77-.78-.31-2.06-.5-3.02,2.09.15,3.76,1.48,5.67,2.21,1.33.17,1.98-1.2,2.71-2.04.75-2.33.11-5.27,2.29-6.95,2.41-1.28,4.94-2.45,7.66-2.93,2.62-.42,5.03,1.1,7.62,1.2,1.05.06,2.24-.46,2.55-1.55.63-2.54.4-5.25,1.42-7.68,1.08-2.68,4.39-3.37,5.6-5.97-5.19-1.84-10.72-2.41-15.88-4.39.68,4.08,1.72,8.09,2.72,12.1-1.84,1.63-4.61,1.74-6.58.27-3.12-2.21-6.31-4.38-9.17-6.94-1.48-1.16-1.57-3.42-.56-4.91,1.52-2.42,3.85-4.25,5.16-6.8,1.16-2.43,1.09-5.46,3.14-7.43,1.79-2.2,4.74-2.85,7.45-2.57,4.86.2,8.06,5.8,13.08,4.94,2.4-1.76,3.36-6.07.83-8.15-1.91-1.88-3.6-3.99-5.67-5.7-5.88.32-11.75,3.24-17.72,1.66-4.15-1.12-6.64-5.04-8.16-8.79-1.11-2.81-.06-5.82.83-8.53.86-.51,1.74-1.04,2.77-1.08,17.39-.85,34.76-2.24,52.14-3.35,16.2-1.15,32.41-2.1,48.59-3.33,9.06-.23,18.1-1.1,27.15-1.76,2.7-.06,5.27,1.43,6.9,3.52,1.15,1.65,1.53,3.66,2.17,5.55,4.55,14.23,9.37,28.38,13.96,42.59-.52.77-.53,1.69-.17,2.55,4.04,11.58,7.67,23.3,11.75,34.87.2-.19.59-.58.79-.77,2.21,6.31,4.21,12.71,6.34,19.06-.77,2.85-2,5.58-3.19,8.29-1.65,3.58-6.28,3.37-8.98,5.77-.91.8-2.69,1.81-1.95,3.26,3,3.81,7.13,6.53,10.26,10.22,2.54,2.81,1.5,7.15-.33,10.04-.94,1.51-2.61.4-3.49-.55-2-1.97-3.4-5.29-6.74-4.84.16,3.22,1.35,6.41,3.43,8.87,1.63,1.84,4.16,3.26,4.46,5.96-.68,1.12-2.26.65-3.35.91-2.73-5.91-7.07-10.97-9.18-17.17-.49-1.95-2.95-1.62-4.27-2.67-2.24-4.13-4.16-9.03-8.56-11.29,3.01-5.76,6.18-11.64,7.28-18.11,1.02-5.91-.88-12.56-5.82-16.22-5.73-4.51-14.73-4.01-19.79,1.29-3.71,4.03-5.12,10.11-3.16,15.29,3.16,8.54,9.96,15.26,12.61,24.03-1.68,4.68-.79,9.75.24,14.46.51,2.39,3.42,2.28,5.06,3.51.65,1.68-1.07,2.72-2,3.81-1.78-1.65-3.37-3.58-3.78-6.04-.75-.22-1.48-.44-2.22-.64-.67.69-1.15,1.75-2.21,1.88-3.71-6.21-7.71-12.25-10.98-18.72-1.71-3.76-5.93-5.15-9.71-5.76-4.7-1.03-9.66-.3-14.24-1.93-2.52-.79-4.49-2.66-6.92-3.64-1.22-.25-2.41.41-3.59.67,1.46,3.16,3.27,7.47,7.32,7.61,2.99.5,6.17.7,8.82,2.34,1.05.67,1.01,2.12.95,3.23-.33,2.51-1.79,4.68-3.24,6.69-2.43,3.2-4.86,6.46-7.97,9.04-.02-.34-.07-1.03-.09-1.37-.6.28-1.2.58-1.79.89-1.6-1.76-4.13-3.62-6.52-2.19-.18-.59-.35-1.17-.51-1.76-.15-3.41-3.29-5.26-4.99-7.88-2-2.58-3.06-5.76-5.1-8.29-2.26-1.86-4.95-3.46-7.93-3.7.34,1.28.82,2.56,1.73,3.58,2.17,2.66,7.46,9.55,9.41,12.39-1.26,1.26-5.56-1.62-6.7-.26-.18-.79-.37-1.56-.54-2.33-.99.48-1.98.98-2.95,1.49.37.5.75,1,1.12,1.52-.41-.03-1.24-.09-1.65-.12-1.2-.69-2.31-1.75-3.75-1.8-1.34.11-2.53.82-3.72,1.4,1.34,1.15,2.93.59,4.3-.16-.3,1.59-.56,3.19-.77,4.81-2.69,1.35,11.36,3.51,8.63,3.33-.06.84-1,.48-1.05,1.34.6-.49-1.58.97-.96.51.09.82-1.99.46-2.33,1.28-1.33.29.42-1.26-.78-.55,1.58,1.77-3.29.65-1.17,1.53,1.24.7-4.41-1.17-3.26-1.52.96-.67,1.8.44,2.59.87-1.18,1.95-1.55,4.33-2.86,6.21-.25-.03-.77-.07-1.03-.1l-5.46,8.9ZM878.66,663.3c-6.33,1.66-11.02,7.95-10.91,14.5-.38,4.32,1.54,8.32,3.58,11.99,3.91,6.96,8.06,13.79,11.44,21.04.63,1.57,2.23,2.47,3.91,2.1,1.57-1.12,1.82-3.15,2.33-4.86,2.05-8.5,8.27-15.43,9.55-24.18.96-5.97-.86-12.5-5.15-16.84-3.82-3.76-9.62-4.82-14.74-3.74ZM861.73,720.33c-1.62.18-2.78,1.59-3.13,3.11-.71,1.65.72,3.09,1.36,4.52,2.45,4.13,4.09,8.76,7.26,12.43,1.23,1.41,3.25,2.78,5.12,1.63,1.64-.3,1.54-2.33,1.02-3.52-2.28-4.61-5.31-8.78-8.02-13.13-1.03-1.72-1.02-4.99-3.6-5.04Z"/>
  <path class="cls-57" d="M1017.58,760.78c5.58,4.1,11.74,7.31,18.03,10.19,13.98,6.58,28.82,11.27,43.91,14.53-1.96,9.06-4.89,17.88-7.54,26.75-4.76,15.7-10.4,31.14-16.9,46.2-3.42,7.47-6.06,15.48-11.27,21.98-2.93,3.21-5.91,6.6-9.93,8.45-7.32,3.8-15.87,4.39-23.94,3.45-10-1.15-19.85-3.47-29.31-6.88-4.32-1.77-8.78-3.18-13.08-4.99-8.09-3.35-16.01-7.12-24.18-10.27-7.64-3.73-15.52-6.9-23.27-10.38-5.36-2.3-10.6-4.93-16.1-6.86-4.92-1.59-10.17-1.85-15.06-3.54-9.05-2.62-17.35-7.14-25.46-11.84-1.78-.98-3.47-2.19-5.44-2.71-1.22-.24-1.84,1.31-.67,1.88,4.49,2.51,8.85,5.25,13.33,7.79l.49.42c-4.57,2.83-10.18,1.44-14.91-.17-4.18-1.69-8.18-4.65-10.12-8.82-1.27-2.56-.41-5.57,1.29-7.69,2.57-3.28,5.51-6.25,8.32-9.32.79-.72.78-1.83,1.01-2.77-2.78.75-4.27,3.41-6.29,5.25-2.22,2.05-3.78,4.68-5.83,6.9-2.42-2.29-3.68-6.12-2.12-9.22,2.52-5.13,6.55-9.36,10.93-12.95,2.35-1.99,5.17-3.28,7.66-5.07,1.27-.67-.6-2.21-1.43-1.48-5.4,2.68-10.31,6.46-14.22,11.06-.21-.18-.22,1.16-.43.97-.79,1.08-1.4,2.11-2.2,3.19-1.95.41-2.4,1.87-4.02,3.06-.46-.6-1.66-.12-2.11-.7-.72.32-1.01-4.17-1.72-3.83.77-2.86.22-4.34,2.36-6.46,0-.61,0-1.22,0-1.82,1.27.3,1.62-2.75,2.84-2.31.27-1.83,1.4-.25,1.16-2.08,1.03-1.91,2.43-3.56,3.76-5.25.26.03.77.07,1.03.1,1.31-1.88,1.68-4.25,2.86-6.21-.79-.44,3.59-2.49,2.62-1.81-1.15.35,3.47-1.06,2.23-1.76-2.12-.88-5.63-.89-7.21-2.66,1.2-.71-3.51-.08-2.19-.37.34-.82.67.74.58-.09-.62.46.19-.63-.42-.14.06-.86.21.34.27-.49,2.74.18-.68,1.76,2.01.41.22-1.62-16.92-3.68-16.62-5.27-1.37.75,1.34-.85,0-2,1.19-.58,1.21-2.82,2.55-2.94,1.44.05,1.78-1.71,2.98-1.02.41.03,1.54-.34,1.96-.31-.38-.52,1.65.22,1.28-.28.97-.51,10.46,2.73,11.45,2.26.17.77,5.03,2.19,5.22,2.98,1.14-1.36.29.41,1.55-.85.77,1.05,2.77,1.09,3.12,2.35-.49.01-1.48.04-1.98.06,3.06,2.24,6.81,3.52,10.45,4.49.15.58.32,1.17.51,1.76,2.39-1.43,4.92.42,6.52,2.19.59-.3,1.19-.6,1.79-.89.02.34.07,1.03.09,1.37.02.26.07.79.1,1.05,2.36,2.18,5.36,3.52,7.9,5.48,11.19,7.92,21.85,16.57,32.66,24.99,5.42,2.07,11.31,2.71,16.92,4.19,18.15,3.54,36.47,6.6,54.96,7.67,2.74.04,5.52.46,8.25.03,1.4-.17,2.01-1.63,2.45-2.77,2.38-5.74,3.47-11.86,5.21-17.79,1.93-7.33,3.77-14.67,5.41-22.06,1.46-6.6,3.75-13.05,4.1-19.84,1.01-2.02,1.36-4.28,1.87-6.45Z"/>
  <path class="cls-4" d="M837.8,819.66c-2.5-1.89-3.73-5.07-3.4-8.15.48-4.2,2.56-8.08,5.22-11.3,3.92-4.6,8.82-8.38,14.22-11.06.82-.73,2.7.81,1.43,1.48-2.48,1.79-5.31,3.08-7.66,5.07-4.37,3.59-8.41,7.83-10.93,12.95-1.57,3.1-.3,6.93,2.12,9.22,2.05-2.21,3.61-4.84,5.83-6.9,2.01-1.84,3.51-4.5,6.29-5.25-.22.94-.22,2.05-1.01,2.77-2.81,3.07-5.74,6.04-8.32,9.32l-3.8,1.84Z"/>
  <path class="cls-4" d="M830.49,776.66c.56-3.69,3-6.48,6.15-7.4,4.31-1.24,9.11-.48,13.59,1.23,6.44,2.57,12.6,6.64,17.94,11.75,1.13.64.59,3.47-.7,2.28-3-2.11-5.68-4.83-8.8-6.7-5.7-3.53-11.85-6.4-18.09-7.13-3.8-.49-6.86,2.6-7.83,6.37,3.18,1.42,6.52,2.11,9.64,3.81,2.8,1.55,6.14,2.14,8.27,5.04-1.03.14-2.1.62-3.19.02-4.4-1.94-8.77-4.07-13.25-5.65l-3.72-3.62Z"/>
  <path class="cls-51" d="M715.02,605.33c3.26.16,6.53-.24,9.58-1.28-.43-.06-1.29-.17-1.72-.22,7.3-2.06,14.38-4.83,21.55-7.29,3.91-1.34,8.01-3.1,12.23-2.19,4.05.89,8.13,1.62,12.23,2.33-.43.18-1.29.53-1.71.71,3.09.32,6.2.27,9.31.22l-.07-.86c-.36.02-1.08.06-1.43.08,7.16-1.65,12.58-6.9,17.89-11.64,14.43-13.65,28.1-28.07,42.47-41.78q1.89-2.24,3.69-4.38c13.58,11.99,28,26.17,41.69,38.04,2.78,2.55,6.58,3.46,10.15,4.29,1.67.34,3.36.6,5.05.88l.63.12c.07,1.86-.07,1.44-.21,3.3l-.76-.13c-.32,4.46-.46,8.96-.11,13.42l.67.05c5.58.13,11.17.02,16.75.06-.04-4.71.04-9.41-.04-14.12l.59-.11c7.12.3,14.24.11,21.37.16l.45-.06h.77c.16-3.23-.04-6.48.34-9.69.25-2.23,1.79-3.82,3.17-5.48,1.24-1.48,2.82-2.64,4.61-3.38h.03c.7-3.82,3.45-7.31,7.33-8.18l-.02-1.87c-.23-1.2.23-1.44-.81-2.84-.47-1.18-2.09-2.83-1.27-4.15,1.17-2.17,3.01-23.3,3.11-25.76.49,2.2,2.48,23.8,3.42,25.88.87,1.67-.38,1.81-.53,3.57-.27,1.41-1.22,4.15-1.03,5.58,3.97.33,6.13,4.14,6.77,7.68,3.09,1,6.22,2.66,7.54,5.82,1.43,7.23-.11,14.67,1.44,21.9l.44-.06.51-.08c3.32.37,6.66.25,9.99.25,0-2.56-.01-5.12.04-7.66,4.44-.14,8.88-.04,13.32-.06,0,4,0,8,0,12,3.28.13,6.56.15,9.84.06v-19.1c3.93.02,7.86-.06,11.79.06.7.25,1.41.52,2.12.81.27,6.26.03,12.54.18,18.81h.75c2.09,0,4.18,0,6.26,0,0-2.36.01-4.72-.07-7.07l.59-.13c7.07.33,14.16.07,21.24.18-.14,4.17-.05,8.35.16,12.52,10.7.3,21.41.04,32.11.23,0,1.29-.01,2.59-.03,3.9-.66.59-1.31,1.18-1.94,1.8l.76-.11c-10.67,4.32-19.96,11.59-27.18,20.51-10.18-.44-20.38-.18-30.56-.22-29.29-.04-58.59,0-87.87-.05v.6c-3.42-1.94-7.32-3.11-11.29-2.68-8.39.67-16.79,1.24-25.19,1.62-.22-5.44-.05-10.88-.11-16.33-57.76.13-115.53-.13-173.28.11,4.87,3,10.38,4.76,15.58,7.1,3.8,1.84,8.1,1.06,12.16,1.28,4.47.21,8.96,0,13.42.41,2.36.27,5.05.76,6.6,2.74.54,1.15.83,3.02-.55,3.71-.78.52-1.77.48-2.66.58-19.9.34-39.81,0-59.71.02-50.62.03-656.96-.13-707.58.06v-27.63l100.74-59.5,121.53,60.25h23.49s0-25.55,0-25.55h18.38l.51,25.69,31.66.11v-19.13s14.81,0,14.81,0v19.18s111.32.37,111.32.37l-.13-26.22,102.38,1.05.38,25.52,31.17.1c3.02.9,6.2.45,9.3.55,4.65-.08,9.32.12,13.97-.04l.04-.68c.11-3.21,0-6.42.12-9.63,4.01.18,8.06-.32,12.04.3-.21,3.36-.15,6.73-.14,10.1,3.3,0,6.61.03,9.92,0,.06-.86.11-1.72.17-2.57l1.63-1.48c3.48.08,5.4-.05,8.87.22h.09c1.53-5.34,6.42-9.79,11.61-11.35,1.32-.3,2.35-.4,3.68-.62l.54-.04c2.25-5.15,7.55-8.83,13.13-9.83.25-1.93.41-3.88,1.05-5.72l1.14.04c.55,1.87.72,3.83,1.01,5.77,6.15,1.62,11.2,6.49,12.76,12.68,1.33.22,2.66.43,3.99.72,5.19,1.56,9.89,5.38,11.43,10.72l.21.56c4.55.54,9.14-.04,13.7.3h2.67c.02,1.64.07,3.07.11,4.72v.71c3.55.08,7.09.1,10.63-.06.08-1.56.14-3.11.18-4.66,3.92-.11,7.83-.03,11.76-.04l3.19.6Z"/>
  <path class="cls-51" d="M608.74,607.07c.09.66.14-19.61.14-19.61l-1.36-1.61v-1.88l1.21.05-.17-7.93,1.9-15.04,1.63,15.04.06,7.88h1.2l-.13,1.97-1.06,1.51-.03,19.46-3.4.16Z"/>
  <path class="cls-51" d="M317.67,595.13c.14.97.21-28.97.21-28.97l-2-2.38v-2.78l1.79.07-.25-11.72,2.81-22.22,2.4,22.22.09,11.65h1.77l-.19,2.91-1.57,2.23-.05,28.75-5.02.24Z"/>
  <path class="cls-51" d="M300.53,602.28c.09.67.15-20.05.15-20.05l-1.39-1.65v-1.92l1.24.05-.17-8.11,1.95-15.38,1.66,15.38.07,8.06h1.22l-.13,2.01-1.09,1.55-.04,19.9-3.48.17Z"/>
  <path class="cls-51" d="M673.18,607.07c.09.66.14-19.61.14-19.61l-1.36-1.61v-1.88l1.21.05-.17-7.93,1.9-15.04,1.63,15.04.06,7.88h1.2l-.13,1.97-1.06,1.51-.03,19.46-3.4.16Z"/>
  <path class="cls-51" d="M299.29,609.13s.84-1.74,2.88-3.12,4.96-2.39,7.72-1.77h0s-.78-9.47,6.78-9.11l4.54-3.7c1.57-2.99,5.42-9.13,11.63-9.09v-1.24s0-2.86,0-2.86c0,0,.67-3.6,4.31-2.47.94-2.4,4.32-14.26,18.64-15.87q1.4-2.32,2.47-4.17c.03-1.27.05-2.92.05-2.92l.7-5.44.66,5.39v2.89l2.38,4.2c3.65.7,14.83,1.81,19.58,16.08,2.58.19,4.87-.14,4.81,3.7l-.06,3.96s6.24-.5,11.64,8.09c-.23-8.91.14-25.2.14-25.2l-1.03-1.23-.58-2.83h1.76v-13.31s2.51-20.54,2.51-20.54l2.18,20.53.36,12.88,1.96.03-.76,3.23-1.11,1.46-.22,29.4s7.12-1.43,7.39,8.29c1.11.31,5.35.13,8.95,5.3-.02-14.19.02-26.32.02-26.32,0,0-1.43-2.09-1.47-1.86s0-2.07,0-2.07l2.07-.2-.13-8.9,1.7-16.99,1.9,16.99v8.86h1.92v2.38l-1.76,1.87.39,24.52.16,5.87"/>
  <polygon class="cls-51" points="1597.12 637.84 1597.12 602.47 1619.05 602.47 1619.05 616.98 1627.34 616.98 1627.34 603.13 1654.51 603.13 1654.51 616.98 1662.79 616.98 1662.79 577.4 1684.9 577.4 1684.9 616.98 1698.25 616.98 1698.25 593.09 1716.66 593.09 1716.66 619.22 1731.86 619.22 1731.86 600.19 1745.21 600.19 1745.21 619.22 1761.79 619.22 1761.79 587.66 1782.51 587.66 1782.51 619.22 1798.62 619.22 1798.62 602.95 1810.59 603.13 1810.59 617.43 1810.59 619.22 1817.58 619.22 1817.58 636.49 1597.12 637.84"/>
  <polygon class="cls-51" points="1820.7 637.84 1820.7 601.54 1842.64 601.54 1842.64 616.43 1850.93 616.43 1850.93 602.21 1878.09 602.21 1878.09 616.43 1886.38 616.43 1886.38 575.8 1908.48 575.8 1908.48 616.43 1920 616.43 1920 637.84 1820.7 637.84"/>
</svg>